<svg xmlns="http://www.w3.org/2000/svg" xmlns:xlink="http://www.w3.org/1999/xlink" width="116" height="116" viewBox="0 0 116 116">
  <defs>
    <filter id="Rect치ngulo_401369" x="0" y="0" width="116" height="116" filterUnits="userSpaceOnUse">
      <feOffset dx="6" dy="7" input="SourceAlpha"/>
      <feGaussianBlur stdDeviation="4" result="blur"/>
      <feFlood flood-opacity="0.251"/>
      <feComposite operator="in" in2="blur"/>
      <feComposite in="SourceGraphic"/>
    </filter>
  </defs>
  <g id="Grupo_1178171" data-name="Grupo 1178171" transform="translate(-231.781 -5768)">
    <g transform="matrix(1, 0, 0, 1, 231.78, 5768)" filter="url(#Rect치ngulo_401369)">
      <g id="Rect치ngulo_401369-2" data-name="Rect치ngulo 401369" transform="translate(6 5)" fill="#e0ee33" stroke="#fff" stroke-width="3">
        <path d="M0,0H63A29,29,0,0,1,92,29V63A29,29,0,0,1,63,92H29A29,29,0,0,1,0,63V0A0,0,0,0,1,0,0Z" stroke="none"/>
        <path d="M1.5,1.5H63A27.5,27.5,0,0,1,90.5,29V63A27.5,27.5,0,0,1,63,90.5H29A27.5,27.5,0,0,1,1.5,63V1.5A0,0,0,0,1,1.5,1.5Z" fill="none"/>
      </g>
    </g>
    <g id="Grupo_1178419" data-name="Grupo 1178419" transform="translate(253.537 5785.461)">
      <path id="Trazado_1034699" data-name="Trazado 1034699" d="M12.584,66.9a1.28,1.28,0,0,0,1.522.442,19.487,19.487,0,0,1,21.554,4.7,1.766,1.766,0,0,0,2.566,0,19.49,19.49,0,0,1,21.034-4.908,1.444,1.444,0,0,0,1.691-.516,37.793,37.793,0,0,0,4.478-8.584,1.434,1.434,0,0,0-.369-1.556A19.388,19.388,0,0,1,64.172,28.7a1.452,1.452,0,0,0,.293-1.6,36.176,36.176,0,0,0-7.111-10.557,1.457,1.457,0,0,0-1.559-.349A9.372,9.372,0,0,1,43.216,9.163,1.427,1.427,0,0,0,42.1,8.025a27.315,27.315,0,0,0-10.251-.116,1.432,1.432,0,0,0-1.157,1.163,9.369,9.369,0,0,1-12.91,6.995,1.458,1.458,0,0,0-1.616.3A36.03,36.03,0,0,0,9.111,26.579a1.436,1.436,0,0,0,.3,1.636A19.33,19.33,0,0,1,15.33,42.156,19.348,19.348,0,0,1,8.5,56.93a1.434,1.434,0,0,0-.4,1.606A37.617,37.617,0,0,0,12.584,66.9Zm0,0" transform="translate(-6.517 -6.5)" fill="#c35d1d"/>
      <path id="Trazado_1034700" data-name="Trazado 1034700" d="M237.633,99.656a19.388,19.388,0,0,1-.889-27.777,1.452,1.452,0,0,0,.293-1.6,36.157,36.157,0,0,0-7.111-10.557,1.457,1.457,0,0,0-1.559-.349,9.378,9.378,0,0,1-10.08-2.206,59.385,59.385,0,0,1-11.7,56.494,19.528,19.528,0,0,1,1.643,1.558,1.766,1.766,0,0,0,2.567,0,19.49,19.49,0,0,1,21.034-4.908,1.444,1.444,0,0,0,1.691-.516A37.815,37.815,0,0,0,238,101.212,1.435,1.435,0,0,0,237.633,99.656Zm0,0" transform="translate(-179.089 -49.678)" fill="#bc5214"/>
      <path id="Trazado_1034701" data-name="Trazado 1034701" d="M174.311,49.252a18.4,18.4,0,0,1-.844-26.369,2.425,2.425,0,0,0,.483-2.683,36.99,36.99,0,0,0-7.306-10.843,2.431,2.431,0,0,0-2.615-.578A8.39,8.39,0,0,1,152.77,2.486,2.427,2.427,0,0,0,150.879.562a28.454,28.454,0,0,0-10.62-.12,2.419,2.419,0,0,0-1.952,1.964,8.348,8.348,0,0,1-4.774,6.179.983.983,0,0,0,.816,1.788,10.313,10.313,0,0,0,5.895-7.634.447.447,0,0,1,.362-.362,26.467,26.467,0,0,1,9.882.112.445.445,0,0,1,.348.35A10.325,10.325,0,0,0,161.011,11.3a10.308,10.308,0,0,0,3.725-.691.477.477,0,0,1,.5.119A35.035,35.035,0,0,1,172.155,21a.469.469,0,0,1-.1.517,20.37,20.37,0,0,0,.933,29.184.455.455,0,0,1,.111.49,36.794,36.794,0,0,1-4.361,8.361.461.461,0,0,1-.541.16,20.384,20.384,0,0,0-3.788-1.017.983.983,0,1,0-.324,1.938,18.392,18.392,0,0,1,3.421.919,2.428,2.428,0,0,0,2.842-.872,38.8,38.8,0,0,0,4.595-8.807A2.406,2.406,0,0,0,174.311,49.252Zm0,0" transform="translate(-115.104)"/>
      <path id="Trazado_1034702" data-name="Trazado 1034702" d="M45.07,114.537a20.315,20.315,0,0,0-14.076,6.437.784.784,0,0,1-1.134,0,20.52,20.52,0,0,0-14.911-6.454,20.313,20.313,0,0,0-7.731,1.513.3.3,0,0,1-.352-.1A36.625,36.625,0,0,1,2.5,107.787a.449.449,0,0,1,.121-.5A20.354,20.354,0,0,0,9.8,91.761,20.2,20.2,0,0,0,3.58,77.112a.451.451,0,0,1-.094-.514,34.9,34.9,0,0,1,6.857-9.938.476.476,0,0,1,.531-.085,10.27,10.27,0,0,0,4.075.834.983.983,0,1,0,0-1.965,8.312,8.312,0,0,1-3.3-.674,2.43,2.43,0,0,0-2.7.507A36.856,36.856,0,0,0,1.7,75.769a2.417,2.417,0,0,0,.511,2.756A18.255,18.255,0,0,1,7.831,91.76a18.393,18.393,0,0,1-6.487,14.026,2.415,2.415,0,0,0-.681,2.707,38.561,38.561,0,0,0,4.6,8.58,2.253,2.253,0,0,0,2.693.779,18.5,18.5,0,0,1,20.466,4.467,2.748,2.748,0,0,0,4,0A18.367,18.367,0,0,1,45.149,116.5a.982.982,0,1,0-.079-1.963Zm0,0" transform="translate(0 -56.105)"/>
      <path id="Trazado_1034703" data-name="Trazado 1034703" d="M80.421,99.985c-.279-.05-.558-.109-.832-.177a.982.982,0,0,0-.474,1.907c.316.079.64.147.963.2a.983.983,0,0,0,.343-1.935Zm0,0" transform="translate(-67.668 -86.707)"/>
      <path id="Trazado_1034704" data-name="Trazado 1034704" d="M66.369,419.149a.983.983,0,0,0,.207-.022c.286-.061.576-.118.863-.167a.983.983,0,1,0-.337-1.936c-.312.054-.627.115-.938.182a.983.983,0,0,0,.2,1.944Zm0,0" transform="translate(-56.386 -362.376)"/>
      <path id="Trazado_1034705" data-name="Trazado 1034705" d="M88.966,264.086h.02a.983.983,0,0,0,.982-.963q0-.243,0-.485t0-.471a.983.983,0,0,0-.982-.964h-.019a.983.983,0,0,0-.964,1q0,.216,0,.435t0,.445A.983.983,0,0,0,88.966,264.086Zm0,0" transform="translate(-76.038 -226.982)"/>
      <path id="Trazado_1034706" data-name="Trazado 1034706" d="M77.86,200.273c-.1-.3-.217-.6-.333-.9a.983.983,0,1,0-1.829.721c.107.27.21.547.306.823a.983.983,0,0,0,1.856-.648Zm0,0" transform="translate(-65.286 -172.715)"/>
      <path id="Trazado_1034707" data-name="Trazado 1034707" d="M86.56,230.216a.982.982,0,0,0-1.928.38c.056.286.108.577.154.865a.982.982,0,0,0,.969.831.992.992,0,0,0,.154-.012.982.982,0,0,0,.818-1.123C86.678,230.843,86.622,230.526,86.56,230.216Zm0,0" transform="translate(-73.093 -199.366)"/>
      <path id="Trazado_1034708" data-name="Trazado 1034708" d="M241.387,33.334a.983.983,0,0,0-.806-.66q-.2-.025-.392-.047a.983.983,0,0,0-.463,1.894.983.983,0,0,0,1.83-.717C241.5,33.646,241.44,33.489,241.387,33.334Zm0,0" transform="translate(-207.337 -28.346)"/>
      <path id="Trazado_1034709" data-name="Trazado 1034709" d="M256.845,59.273a.982.982,0,1,0-1.61,1.126c.187.268.386.532.591.787a.983.983,0,1,0,1.53-1.234C257.179,59.733,257.007,59.5,256.845,59.273Zm0,0" transform="translate(-221.207 -51.143)"/>
      <path id="Trazado_1034710" data-name="Trazado 1034710" d="M98.091,416.331h.034c.256-.009.516-.013.772-.013h.112a.983.983,0,0,0,0-1.965H98.9c-.281,0-.565,0-.842.014a.983.983,0,0,0,.033,1.965Zm0,0" transform="translate(-83.952 -360.067)"/>
      <path id="Trazado_1034711" data-name="Trazado 1034711" d="M77.392,326.263c.117-.3.229-.6.334-.9a.983.983,0,1,0-1.855-.65c-.1.274-.2.551-.307.823a.982.982,0,1,0,1.827.722Zm0,0" transform="translate(-65.17 -281.604)"/>
      <path id="Trazado_1034712" data-name="Trazado 1034712" d="M86.487,295.162c.062-.31.119-.626.169-.94a.983.983,0,0,0-1.941-.311c-.046.289-.1.58-.156.865a.983.983,0,0,0,.771,1.157,1,1,0,0,0,.194.019A.983.983,0,0,0,86.487,295.162Zm0,0" transform="translate(-73.03 -254.686)"/>
      <path id="Trazado_1034713" data-name="Trazado 1034713" d="M257.121,432.056c-.287.137-.574.28-.854.427a.983.983,0,1,0,.913,1.74c.258-.136.522-.268.787-.394a.983.983,0,0,0-.845-1.774Zm0,0" transform="translate(-221.801 -375.369)"/>
      <path id="Trazado_1034714" data-name="Trazado 1034714" d="M142.626,92.962c-.256.121-.518.235-.78.338a.983.983,0,0,0,.719,1.829c.3-.12.607-.251.9-.391a.983.983,0,0,0-.841-1.776Zm0,0" transform="translate(-122.286 -80.701)"/>
      <path id="Trazado_1034715" data-name="Trazado 1034715" d="M169.7,77.482a.98.98,0,0,0,.622-.223c.253-.208.5-.426.739-.648a.983.983,0,0,0-1.346-1.432c-.2.192-.42.381-.639.56a.983.983,0,0,0,.623,1.743Zm0,0" transform="translate(-146.177 -65.097)"/>
      <path id="Trazado_1034716" data-name="Trazado 1034716" d="M61.871,172.464a.983.983,0,0,0,1.709-.971c-.157-.276-.321-.552-.489-.822a.983.983,0,0,0-1.669,1.038C61.576,171.957,61.727,172.211,61.871,172.464Zm0,0" transform="translate(-52.811 -147.908)"/>
      <path id="Trazado_1034717" data-name="Trazado 1034717" d="M110.119,103.034a.983.983,0,0,0,.98.919l.064,0c.326-.021.655-.054.978-.1a.982.982,0,0,0-.259-1.948c-.28.037-.564.065-.846.083A.983.983,0,0,0,110.119,103.034Zm0,0" transform="translate(-95.256 -88.548)"/>
      <path id="Trazado_1034718" data-name="Trazado 1034718" d="M160.161,424.269a.982.982,0,0,0,.622,1.242c.275.092.553.19.828.294a.983.983,0,0,0,.693-1.839c-.3-.112-.6-.22-.9-.319A.983.983,0,0,0,160.161,424.269Zm0,0" transform="translate(-138.699 -368.1)"/>
      <path id="Trazado_1034719" data-name="Trazado 1034719" d="M129.029,417.061a.983.983,0,0,0,.832,1.114c.287.041.578.09.866.143a.982.982,0,1,0,.358-1.932c-.314-.058-.631-.111-.943-.156A.983.983,0,0,0,129.029,417.061Zm0,0" transform="translate(-111.681 -361.69)"/>
      <path id="Trazado_1034720" data-name="Trazado 1034720" d="M45.4,144.449a.982.982,0,0,0-1.333.394c-.056.1-.112.206-.167.31a.983.983,0,0,0,.129,1.109q.182.207.358.418a1.253,1.253,0,0,0,1.012-2.231Zm0,0" transform="translate(-37.617 -125.421)"/>
      <path id="Trazado_1034721" data-name="Trazado 1034721" d="M44.168,379.665a.983.983,0,0,0-1.384.127c-.185.223-.379.446-.575.665a.983.983,0,1,0,1.461,1.315c.213-.237.424-.48.626-.723A.982.982,0,0,0,44.168,379.665Zm0,0" transform="translate(-36.025 -329.727)"/>
      <path id="Trazado_1034722" data-name="Trazado 1034722" d="M58.466,119.813a.982.982,0,0,0,1.365-.258c.168-.247.34-.491.511-.727a.982.982,0,1,0-1.59-1.155c-.182.251-.365.512-.545.774A.983.983,0,0,0,58.466,119.813Zm0,0" transform="translate(-49.998 -101.905)"/>
      <path id="Trazado_1034723" data-name="Trazado 1034723" d="M43.618,405.836a.983.983,0,0,0-.415,1.326c.146.279.3.558.449.83a.983.983,0,0,0,1.715-.959c-.143-.256-.286-.52-.424-.783A.983.983,0,0,0,43.618,405.836Zm0,0" transform="translate(-37.011 -352.569)"/>
      <path id="Trazado_1034724" data-name="Trazado 1034724" d="M61.611,355.759a.983.983,0,0,0,1.353-.317c.167-.271.332-.548.488-.822a.983.983,0,0,0-1.71-.969c-.143.253-.294.507-.448.755A.983.983,0,0,0,61.611,355.759Zm0,0" transform="translate(-52.701 -306.885)"/>
      <path id="Trazado_1034725" data-name="Trazado 1034725" d="M356.716,246.374c-.033.314-.061.634-.082.95a.983.983,0,0,0,.915,1.047l.067,0a.983.983,0,0,0,.979-.917c.019-.292.045-.586.076-.876a.983.983,0,0,0-1.954-.207Zm0,0" transform="translate(-309.474 -213.332)"/>
      <path id="Trazado_1034726" data-name="Trazado 1034726" d="M361.867,214.85c-.089.3-.173.615-.25.923a.983.983,0,0,0,.715,1.192,1.011,1.011,0,0,0,.239.029.984.984,0,0,0,.953-.744c.071-.284.148-.569.229-.848a.982.982,0,0,0-1.886-.552Zm0,0" transform="translate(-313.78 -186.088)"/>
      <path id="Trazado_1034727" data-name="Trazado 1034727" d="M387.095,130.547a.983.983,0,0,0-1.661,1.05c.158.249.314.5.465.758a.983.983,0,0,0,1.69-1C387.428,131.083,387.262,130.813,387.095,130.547Zm0,0" transform="translate(-334.371 -113.046)"/>
      <path id="Trazado_1034728" data-name="Trazado 1034728" d="M368.176,104.607a.982.982,0,1,0-1.506,1.263c.187.224.376.455.56.689a.983.983,0,0,0,1.543-1.217C368.577,105.092,368.376,104.845,368.176,104.607Zm0,0" transform="translate(-317.998 -90.596)"/>
      <path id="Trazado_1034729" data-name="Trazado 1034729" d="M388.807,159.933a.982.982,0,0,0,.81-.425c.165-.239.338-.479.513-.713a.983.983,0,0,0-1.572-1.179c-.191.254-.379.516-.558.776a.982.982,0,0,0,.808,1.54Zm0,0" transform="translate(-336.581 -136.625)"/>
      <path id="Trazado_1034730" data-name="Trazado 1034730" d="M338.39,102.734c-.279.011-.568.012-.852,0a.983.983,0,0,0-.056,1.965q.213.006.428.006c.186,0,.372,0,.554-.011a.983.983,0,0,0-.075-1.964Zm0,0" transform="translate(-292.004 -89.274)"/>
      <path id="Trazado_1034731" data-name="Trazado 1034731" d="M351.247,415.694a.983.983,0,0,0-.894-1.063c-.314-.028-.635-.049-.953-.064a.982.982,0,1,0-.094,1.963c.293.014.588.034.877.059.029,0,.057,0,.086,0A.984.984,0,0,0,351.247,415.694Zm0,0" transform="translate(-302.295 -360.253)"/>
      <path id="Trazado_1034732" data-name="Trazado 1034732" d="M279.424,82.51c-.236-.155-.47-.32-.694-.491a.983.983,0,1,0-1.189,1.565c.259.2.53.388.8.568a.983.983,0,0,0,1.08-1.642Zm0,0" transform="translate(-240.408 -71.099)"/>
      <path id="Trazado_1034733" data-name="Trazado 1034733" d="M286.838,420.839c-.305.084-.614.175-.916.271a.983.983,0,1,0,.594,1.874c.278-.089.561-.172.843-.25a.982.982,0,1,0-.521-1.895Zm0,0" transform="translate(-247.432 -365.674)"/>
      <path id="Trazado_1034734" data-name="Trazado 1034734" d="M318.241,415.091c-.316.029-.636.064-.95.1a.983.983,0,0,0,.254,1.949c.289-.037.583-.07.874-.1a.983.983,0,1,0-.178-1.957Zm0,0" transform="translate(-274.545 -360.705)"/>
      <path id="Trazado_1034735" data-name="Trazado 1034735" d="M307.319,97.249c-.27-.075-.543-.161-.81-.255a.983.983,0,0,0-.654,1.854c.309.108.625.208.939.3a.983.983,0,1,0,.525-1.894Zm0,0" transform="translate(-264.78 -84.237)"/>
      <path id="Trazado_1034736" data-name="Trazado 1034736" d="M373.9,184.506a.983.983,0,0,0-1.318.439c-.142.285-.281.575-.411.863a.982.982,0,1,0,1.79.81c.12-.265.247-.532.378-.793A.983.983,0,0,0,373.9,184.506Zm0,0" transform="translate(-322.905 -160.243)"/>
      <path id="Trazado_1034737" data-name="Trazado 1034737" d="M399.938,395.463a.983.983,0,0,0,.884-.553c.136-.279.271-.566.4-.854a.983.983,0,1,0-1.789-.813c-.123.272-.251.542-.38.806a.984.984,0,0,0,.883,1.413Zm0,0" transform="translate(-346.254 -341.224)"/>
      <path id="Trazado_1034738" data-name="Trazado 1034738" d="M189.941,438.17c.255.139.513.285.765.434a.983.983,0,0,0,1-1.69c-.273-.162-.553-.321-.83-.472a.983.983,0,0,0-.938,1.727Zm0,0" transform="translate(-164.175 -379.16)"/>
      <path id="Trazado_1034739" data-name="Trazado 1034739" d="M191.862,49.872a.983.983,0,0,0-1.335.385c-.137.247-.283.493-.436.729a.983.983,0,0,0,1.652,1.064c.177-.274.346-.558.5-.844A.983.983,0,0,0,191.862,49.872Zm0,0" transform="translate(-164.616 -43.231)"/>
      <path id="Trazado_1034740" data-name="Trazado 1034740" d="M382.159,419.17c-.307-.083-.619-.161-.927-.232a.983.983,0,0,0-.44,1.916c.283.065.57.137.853.213a.983.983,0,0,0,.514-1.9Zm0,0" transform="translate(-329.807 -364.03)"/>
      <path id="Trazado_1034741" data-name="Trazado 1034741" d="M209.016,31.588c-.318.009-.639.025-.954.047a.982.982,0,0,0,.067,1.963l.069,0c.29-.02.585-.035.878-.043a.983.983,0,0,0-.058-1.964Zm0,0" transform="translate(-179.573 -27.449)"/>
      <path id="Trazado_1034742" data-name="Trazado 1034742" d="M218.112,448.954a.98.98,0,0,0-.289.362l-.174-.14a.982.982,0,1,0-1.228,1.534c.228.183.455.372.675.562a.983.983,0,0,0,1.609-.56h.009a.979.979,0,0,0,.6-.206c.23-.179.467-.356.7-.526a.983.983,0,1,0-1.145-1.6C218.62,448.567,218.362,448.76,218.112,448.954Zm0,0" transform="translate(-187.312 -389.48)"/>
      <path id="Trazado_1034743" data-name="Trazado 1034743" d="M390.033,367.34a.983.983,0,0,0-1.616,1.118c.18.259.367.52.559.775a.982.982,0,0,0,1.571-1.18C390.371,367.819,390.2,367.579,390.033,367.34Zm0,0" transform="translate(-336.944 -318.847)"/>
      <path id="Trazado_1034744" data-name="Trazado 1034744" d="M357.861,280.322a.983.983,0,0,0,.868-1.085c-.032-.29-.059-.584-.08-.876a.983.983,0,0,0-1.96.141c.023.317.052.637.087.952a.982.982,0,0,0,.975.874A1,1,0,0,0,357.861,280.322Zm0,0" transform="translate(-309.522 -241.1)"/>
      <path id="Trazado_1034745" data-name="Trazado 1034745" d="M362.1,311.138a.983.983,0,0,0,1.884-.56c-.083-.279-.162-.564-.234-.847a.983.983,0,0,0-1.9.488C361.928,310.525,362.014,310.835,362.1,311.138Zm0,0" transform="translate(-313.981 -268.51)"/>
      <path id="Trazado_1034746" data-name="Trazado 1034746" d="M374.329,339.7a.983.983,0,1,0-1.788.816c.131.287.27.577.413.861a.983.983,0,0,0,1.755-.884C374.578,340.234,374.45,339.967,374.329,339.7Zm0,0" transform="translate(-323.222 -294.698)"/>
    </g>
  </g>
</svg>
