<svg xmlns="http://www.w3.org/2000/svg" xmlns:xlink="http://www.w3.org/1999/xlink" width="116" height="116" viewBox="0 0 116 116">
  <defs>
    <filter id="Rect치ngulo_401369" x="0" y="0" width="116" height="116" filterUnits="userSpaceOnUse">
      <feOffset dx="6" dy="7" input="SourceAlpha"/>
      <feGaussianBlur stdDeviation="4" result="blur"/>
      <feFlood flood-opacity="0.251"/>
      <feComposite operator="in" in2="blur"/>
      <feComposite in="SourceGraphic"/>
    </filter>
  </defs>
  <g id="Grupo_1178448" data-name="Grupo 1178448" transform="translate(-801.051 -924)">
    <g transform="matrix(1, 0, 0, 1, 801.05, 924)" filter="url(#Rect치ngulo_401369)">
      <g id="Rect치ngulo_401369-2" data-name="Rect치ngulo 401369" transform="translate(6 5)" fill="#e0ee33" stroke="#fff" stroke-width="3">
        <path d="M0,0H63A29,29,0,0,1,92,29V63A29,29,0,0,1,63,92H29A29,29,0,0,1,0,63V0A0,0,0,0,1,0,0Z" stroke="none"/>
        <path d="M1.5,1.5H63A27.5,27.5,0,0,1,90.5,29V63A27.5,27.5,0,0,1,63,90.5H29A27.5,27.5,0,0,1,1.5,63V1.5A0,0,0,0,1,1.5,1.5Z" fill="none"/>
      </g>
    </g>
    <g id="scissors_7242105" transform="translate(825.051 947)">
      <g id="Grupo_1111538" data-name="Grupo 1111538" transform="translate(0.919 0.919)">
        <g id="Grupo_1111529" data-name="Grupo 1111529" transform="translate(22.055 21.136)">
          <path id="Trazado_900473" data-name="Trazado 900473" d="M211.264,194.026l.013,0a5.515,5.515,0,0,0-.249,1.645H200.919a.919.919,0,0,1-.919-.919v-1.838a.919.919,0,0,1,.919-.919h7.716A6.309,6.309,0,0,0,211.264,194.026Z" transform="translate(-200 -192)" fill="#d3a06c"/>
        </g>
        <g id="Grupo_1111530" data-name="Grupo 1111530" transform="translate(5.152 24.812)">
          <path id="Trazado_900474" data-name="Trazado 900474" d="M71.475,228.365a8.67,8.67,0,0,0,.116-1.422V224h9.19a5.5,5.5,0,0,0,1.948,4.205,9.9,9.9,0,0,1-3.09,1.689l-1.615.539.122,1.829a46.986,46.986,0,0,0,1.329,8.387,7.337,7.337,0,0,0-2.37,5.407H56.888a11.751,11.751,0,0,0-4.038-9.133,8.481,8.481,0,0,1,2.7-.661l7.985-.613a8.83,8.83,0,0,0,1.648-.286,8.68,8.68,0,0,0,3.01-1.5,8.728,8.728,0,0,0,3.286-5.494Z" transform="translate(-52.85 -224)" fill="#cf9e76"/>
        </g>
        <g id="Grupo_1111531" data-name="Grupo 1111531" transform="translate(0 46.868)">
          <path id="Trazado_900475" data-name="Trazado 900475" d="M43.1,419.676H36.488l-.919-.919-1.838.919H9.838A1.837,1.837,0,0,1,8,417.838V416H41.5Q42.222,417.869,43.1,419.676Z" transform="translate(-8 -416)" fill="#dfb28b"/>
        </g>
        <g id="Grupo_1111532" data-name="Grupo 1111532" transform="translate(0 37.734)">
          <path id="Trazado_900476" data-name="Trazado 900476" d="M17.19,345.623H8v-1.318a8.505,8.505,0,0,1,5.152-7.816A11.751,11.751,0,0,1,17.19,345.623Z" transform="translate(-8 -336.49)" fill="#fcd770"/>
        </g>
        <g id="Grupo_1111533" data-name="Grupo 1111533" transform="translate(29.407 41.461)">
          <path id="Trazado_900477" data-name="Trazado 900477" d="M266.37,368.93a46.873,46.873,0,0,0,1.723,5.407H264A7.337,7.337,0,0,1,266.37,368.93Z" transform="translate(-264 -368.93)" fill="#fcd770"/>
        </g>
        <g id="Grupo_1111534" data-name="Grupo 1111534" transform="translate(40.435 0)">
          <path id="Trazado_900478" data-name="Trazado 900478" d="M372.672,22.172a3.677,3.677,0,1,1-5.32,3.289v-.139a3.676,3.676,0,0,1,.317-1.493l3.042-6.844a3.677,3.677,0,0,0,.317-1.493v-.139a3.676,3.676,0,1,0-7.352,0v.139a3.677,3.677,0,0,0,.317,1.493l3.042,6.844a3.677,3.677,0,0,1,.317,1.493,6.318,6.318,0,0,1-3.925,5.847,5.523,5.523,0,0,0-2.272-2.988l.173-.124A3.675,3.675,0,0,0,362.6,23.7l-2.078-5.2A7.335,7.335,0,0,1,360,15.773v-.422a7.352,7.352,0,1,1,14.7,0,11.687,11.687,0,0,1-1.233,5.223Z" transform="translate(-360 -8)" fill="#5cd6b3"/>
        </g>
        <g id="Grupo_1111535" data-name="Grupo 1111535" transform="translate(22.055)">
          <path id="Trazado_900479" data-name="Trazado 900479" d="M202.032,22.172l-.8-1.6A11.687,11.687,0,0,1,200,15.352a7.352,7.352,0,1,1,14.7,0v.422a7.335,7.335,0,0,1-.526,2.731L212.1,23.7a3.675,3.675,0,0,0,1.276,4.356l.173.124a5.524,5.524,0,0,0-2.272,2.987l-.013,0a6.309,6.309,0,0,1-2.629-2.026c-.068-.088-.133-.179-.2-.271a6.3,6.3,0,0,1-1.088-3.544,3.678,3.678,0,0,1,.317-1.493l3.042-6.844a3.677,3.677,0,0,0,.317-1.493v-.139a3.676,3.676,0,0,0-7.352,0v.139a3.678,3.678,0,0,0,.317,1.493l3.042,6.844a3.678,3.678,0,0,1,.317,1.493v.139a3.676,3.676,0,1,1-5.32-3.289Z" transform="translate(-200 -8)" fill="#5cd6b3"/>
        </g>
        <g id="Grupo_1111536" data-name="Grupo 1111536" transform="translate(33.083 19.298)">
          <path id="Trazado_900480" data-name="Trazado 900480" d="M306.778,179.87a5.515,5.515,0,1,1-2.272-2.988,5.514,5.514,0,0,1,2.272,2.988Zm-3.427,1.644a1.838,1.838,0,1,0-1.838,1.838A1.837,1.837,0,0,0,303.352,181.514Z" transform="translate(-296 -176)" fill="#aab2bd"/>
        </g>
        <g id="Grupo_1111537" data-name="Grupo 1111537" transform="translate(30.326 29.018)">
          <path id="Trazado_900481" data-name="Trazado 900481" d="M288.542,262.837l-.122,1.829a46.912,46.912,0,0,1-7.23,22.065h-1.838a46.964,46.964,0,0,1-2.573-4.595q-.882-1.8-1.6-3.676a46.862,46.862,0,0,1-3.052-13.794L272,262.837l1.615-.539a9.9,9.9,0,0,0,3.09-1.689,5.513,5.513,0,0,0,7.131,0,9.9,9.9,0,0,0,3.09,1.689Z" transform="translate(-272 -260.61)" fill="#ccd1d9"/>
        </g>
      </g>
      <g id="Grupo_1111539" data-name="Grupo 1111539" transform="translate(0)">
        <path id="Trazado_900482" data-name="Trazado 900482" d="M55.216,14.767l.431-.862a12.662,12.662,0,0,0,1.33-5.634,8.271,8.271,0,1,0-16.542,0v.422a8.236,8.236,0,0,0,.591,3.072l2.078,5.2A2.748,2.748,0,0,1,42.426,20a6.409,6.409,0,0,0-5.82,0,2.748,2.748,0,0,1-.679-3.037l2.078-5.2A8.235,8.235,0,0,0,38.6,8.693V8.271a8.271,8.271,0,1,0-16.542,0,12.662,12.662,0,0,0,1.33,5.634l.431.862a4.586,4.586,0,0,0-.7,6.545,1.839,1.839,0,0,0-1.06,1.663v1.838a1.84,1.84,0,0,0,1.838,1.838v2.024c0,.037,0,.073,0,.109l-.575-.23a.919.919,0,0,0-.682,1.707l1,.4a7.764,7.764,0,0,1-.432,1.214l-.593-.445a.919.919,0,1,0-1.1,1.47l.74.555a7.906,7.906,0,0,1-.7.786l-.592-.789a.919.919,0,0,0-1.47,1.1l.61.813a7.729,7.729,0,0,1-3.411,1.1L8.7,37.077A9.42,9.42,0,0,0,0,46.469v3.156a2.76,2.76,0,0,0,2.757,2.757h24.11l1.439-.72.72.72h6.43a47.569,47.569,0,0,0,2.365,4.169l.271.426h2.847l.271-.426a47.965,47.965,0,0,0,7.372-22.5l.169-2.538-2.289-.763a8.972,8.972,0,0,1-1.977-.942A6.4,6.4,0,0,0,45.846,24.6a7.2,7.2,0,0,0,3.064-3.209,4.593,4.593,0,1,0,6.3-6.621Zm-11.1,10.965a4.595,4.595,0,1,1-4.595-4.595A4.6,4.6,0,0,1,44.111,25.731Zm-20.217-.919V22.974H26.65a4.586,4.586,0,0,0,3.471-1.588,7.2,7.2,0,0,0,3.064,3.21c-.013.072-.025.143-.036.216ZM27.807,9.529a2.741,2.741,0,0,1-.238-1.12V8.271a2.757,2.757,0,0,1,5.514,0V8.41a2.741,2.741,0,0,1-.238,1.12L30.326,15.2Zm-2.777,3.553a10.815,10.815,0,0,1-1.136-4.812,6.433,6.433,0,0,1,12.866,0v.422a6.407,6.407,0,0,1-.46,2.389l-2.078,5.2a4.583,4.583,0,0,0,.864,4.8,6.466,6.466,0,0,0-1.3,1.745,5.376,5.376,0,0,1-2.538-4.579,2.741,2.741,0,0,1,.238-1.12l3.042-6.845a4.565,4.565,0,0,0,.4-1.866V8.271a4.595,4.595,0,1,0-9.19,0V8.41a4.567,4.567,0,0,0,.4,1.866l3.042,6.845a2.741,2.741,0,0,1,.238,1.12v.139a2.757,2.757,0,1,1-2.757-2.757V13.785a4.585,4.585,0,0,0-1.191.157ZM8.838,38.91l7.984-.614a9.712,9.712,0,0,0,1.2-.171l1.457,1.943a.919.919,0,0,0,1.47-1.1l-1.066-1.421a9.583,9.583,0,0,0,1.318-.693l1.034,1.379a.919.919,0,0,0,1.47-1.1l-1.048-1.4c.172-.16.34-.325.5-.5q.3-.322.563-.666l1.455,1.092a.919.919,0,1,0,1.1-1.47L24.707,33a9.591,9.591,0,0,0,.648-1.655l1.873.749a.919.919,0,1,0,.683-1.707l-2.216-.886c.024-.275.037-.552.037-.831V26.65H33.15a6.407,6.407,0,0,0,1.4,3.162,8.965,8.965,0,0,1-1.978.942l-2.288.763.169,2.538a47.72,47.72,0,0,0,1.233,8.038,8.3,8.3,0,0,0-2.223,4.775H11a12.918,12.918,0,0,0-3.171-7.809,7.5,7.5,0,0,1,1.013-.149ZM33.1,46.868H31.313a6.465,6.465,0,0,1,.96-2.565Q32.652,45.6,33.1,46.868ZM5.928,39.748a10.824,10.824,0,0,1,3.227,7.12H1.838v-.4a7.619,7.619,0,0,1,4.09-6.721Zm23.859,10.8L28.67,49.425l-2.236,1.118H2.757a.92.92,0,0,1-.919-.919v-.919H33.8q.372.927.782,1.838Zm2.5-16.611-.075-1.121.941-.314a10.8,10.8,0,0,0,2.8-1.415A6.4,6.4,0,0,0,38.6,32.1V54.3a46.135,46.135,0,0,1-6.313-20.366Zm14.538-1.121-.075,1.121A46.134,46.134,0,0,1,40.435,54.3V32.1a6.393,6.393,0,0,0,2.646-1.015,10.8,10.8,0,0,0,2.8,1.415ZM48.706,15.2,46.186,9.529a2.741,2.741,0,0,1-.238-1.12V8.271a2.757,2.757,0,1,1,5.514,0V8.41a2.741,2.741,0,0,1-.238,1.12Zm3.676,5.939a2.76,2.76,0,0,1-2.757-2.757v-.139a2.741,2.741,0,0,1,.238-1.12L52.9,10.276a4.565,4.565,0,0,0,.4-1.866V8.271a4.595,4.595,0,1,0-9.19,0V8.41a4.567,4.567,0,0,0,.4,1.866l3.042,6.845a2.741,2.741,0,0,1,.238,1.12,5.374,5.374,0,0,1-2.538,4.579,6.464,6.464,0,0,0-1.3-1.745,4.583,4.583,0,0,0,.864-4.8l-2.078-5.2a6.414,6.414,0,0,1-.46-2.389V8.271a6.433,6.433,0,1,1,12.866,0A10.815,10.815,0,0,1,54,13.083l-.43.86a4.585,4.585,0,0,0-1.191-.157v1.838a2.757,2.757,0,1,1,0,5.514Z" transform="translate(0)"/>
        <path id="Trazado_900483" data-name="Trazado 900483" d="M322.757,205.514A2.757,2.757,0,1,0,320,202.757,2.76,2.76,0,0,0,322.757,205.514Zm0-3.676a.919.919,0,1,1-.919.919A.92.92,0,0,1,322.757,201.838Z" transform="translate(-283.241 -177.026)"/>
      </g>
    </g>
  </g>
</svg>
