<svg xmlns="http://www.w3.org/2000/svg" xmlns:xlink="http://www.w3.org/1999/xlink" width="120" height="120" viewBox="0 0 120 120">
  <defs>
    <filter id="Rect치ngulo_405345" x="0" y="0" width="120" height="120" filterUnits="userSpaceOnUse">
      <feOffset dx="6" dy="7" input="SourceAlpha"/>
      <feGaussianBlur stdDeviation="4" result="blur"/>
      <feFlood flood-opacity="0.251"/>
      <feComposite operator="in" in2="blur"/>
      <feComposite in="SourceGraphic"/>
    </filter>
  </defs>
  <g id="Grupo_1179061" data-name="Grupo 1179061" transform="translate(-604.051 -3836)">
    <g transform="matrix(1, 0, 0, 1, 604.05, 3836)" filter="url(#Rect치ngulo_405345)">
      <g id="Rect치ngulo_405345-2" data-name="Rect치ngulo 405345" transform="translate(6 5)" fill="#cb98f5" stroke="#fff" stroke-width="3">
        <path d="M0,0H67A29,29,0,0,1,96,29V67A29,29,0,0,1,67,96H29A29,29,0,0,1,0,67V0A0,0,0,0,1,0,0Z" stroke="none"/>
        <path d="M1.5,1.5H67A27.5,27.5,0,0,1,94.5,29V67A27.5,27.5,0,0,1,67,94.5H29A27.5,27.5,0,0,1,1.5,67V1.5A0,0,0,0,1,1.5,1.5Z" fill="none"/>
      </g>
    </g>
    <g id="Grupo_1179070" data-name="Grupo 1179070" transform="translate(619.475 3875.302)">
      <path id="Trazado_1034943" data-name="Trazado 1034943" d="M196.605,9.3s-4.02-3.039-5.3-1.013-1.135,3.372.63,5.138" transform="translate(-160.87 -6.744)" fill="#fee372"/>
      <path id="Trazado_1034944" data-name="Trazado 1034944" d="M82,164.438c0,3.451-6.464,5.926-14.262,5.926H26.078a56.342,56.342,0,0,1-9.44-.743c-6.2-1.053-9.028-2.858-9.028-2.858l2.77-4.877,6.815.243Zm0,0" transform="translate(-6.76 -143.816)" fill="#cce6f6"/>
      <path id="Trazado_1034945" data-name="Trazado 1034945" d="M94.583,39.652a76.916,76.916,0,0,1-17.9,2.025c-7.483,0-32.6-2.421-45.746-3.742-4.929-.494-8.172-.835-8.172-.835-1.973-1.991,1.925-8.83,4.11-12.289a8.153,8.153,0,0,1,6.244-3.356c.255-.022.507-.034.758-.034,1.38,0,2.268,1.679,3.6,3.3a6.971,6.971,0,0,0,5.665,3c5.762,0,13.265-6.136,13.265-6.136A170.436,170.436,0,0,0,82.545,32.225s9.518.038,11.833,1.726S96.431,38.752,94.583,39.652Zm0,0" transform="translate(-19.741 -19.031)" fill="#fb6572"/>
      <path id="Trazado_1034946" data-name="Trazado 1034946" d="M15.593,162.721l-1.383,6.9a16.2,16.2,0,0,1-6.6-2.858l2.025-4.877,4.983.243Zm0,0" transform="translate(-6.76 -143.816)" fill="#9dcae0"/>
      <path id="Trazado_1034947" data-name="Trazado 1034947" d="M33.339,24.727c-2.308-2.9-6.71,7.091-4.765,13.212-3.593-.494-5.958-.835-5.958-.835-1.438-1.99,1.4-8.83,3-12.289a5.79,5.79,0,0,1,4.552-3.356,4.737,4.737,0,0,1,.553-.033C31.724,21.425,32.371,23.1,33.339,24.727Zm0,0" transform="translate(-19.741 -19.034)" fill="#ea394e"/>
      <path id="Trazado_1034948" data-name="Trazado 1034948" d="M62.921,25.336,52.729,36.676a57.382,57.382,0,0,0-12.073-4.8C37.907,31.067,35.9,30.6,35.84,30.59c.349-.935.722-1.849,1.081-2.682l4.495,1.468,1.27.415a5.261,5.261,0,0,0,4.376-.512L48,28.706a3.7,3.7,0,0,0,1.568.336c4.2,0,9.671-6.136,9.671-6.136C60.5,23.772,61.734,24.581,62.921,25.336Zm0,0" transform="translate(-31.839 -20.349)" fill="#4695bc"/>
      <path id="Trazado_1034949" data-name="Trazado 1034949" d="M330.511,139.366a41.927,41.927,0,0,1-13.054,2.025c-1.6,0-4.319-.209-7.6-.538h0c0-1.739,4.447-5.839,7.822-6.138.6,2.925,4.052,2.1,6.678,1.2s6-2.249,6-2.249C332.048,135.352,331.857,138.465,330.511,139.366Zm0,0" transform="translate(-255.272 -118.744)" fill="#4695bc"/>
      <path id="Trazado_1034950" data-name="Trazado 1034950" d="M41.416,69.183a18.442,18.442,0,0,0-.76,2.5c-2.748-.806-4.755-1.269-4.816-1.283.349-.935.722-1.849,1.081-2.682Zm0,0" transform="translate(-31.839 -60.156)" fill="#0e708e"/>
      <path id="Trazado_1034951" data-name="Trazado 1034951" d="M208.665,55.652c-3.376.3-7.822,4.4-7.822,6.138h0c-2.9-.293-6.252-.678-9.659-1.095,0-1.684-1.656-3.273-4.039-4.687h0l10.192-11.34a101.16,101.16,0,0,0,15.38,8.208C214.291,54.451,212.042,55.351,208.665,55.652Zm0,0" transform="translate(-152.806 -39.682)" fill="#fee372"/>
      <path id="Trazado_1034952" data-name="Trazado 1034952" d="M237.641,48.408a.848.848,0,1,0-.312-1.03A.854.854,0,0,0,237.641,48.408Zm0,0" transform="translate(-201.23 -41.635)"/>
      <path id="Trazado_1034953" data-name="Trazado 1034953" d="M75.177,14.319c-1.15-.851-3.556-1.42-7.36-1.739-2.222-.187-4.219-.225-4.871-.233-1.066-.317-2.57-.808-4.416-1.466a.694.694,0,0,0-.112-1.1,1.445,1.445,0,0,0-1.62,0l-.424.314q-.838-.313-1.739-.662l.019-.014a.7.7,0,0,0,0-1.2,1.445,1.445,0,0,0-1.62,0l-.514.381q-.83-.334-1.7-.692l.069-.051a.7.7,0,0,0,0-1.2,1.445,1.445,0,0,0-1.62,0l-.516.382q-.818-.349-1.662-.719l.034-.025a.7.7,0,0,0,0-1.2,1.445,1.445,0,0,0-1.62,0l-.438.325c-2.372-1.073-4.858-2.256-7.4-3.545-.457-.255-4.034-2.188-6.7-1.827a3.255,3.255,0,0,0-2.1,1.047c-1.756,2.066-1.759,3.693.075,5.417a12.785,12.785,0,0,1-5.013,1.336c-2.7,0-4.113-1.911-5.363-3.6-1.032-1.391-2.007-2.706-3.752-2.706-.287,0-.582.013-.878.039A9.218,9.218,0,0,0,6.885,5.424a49.746,49.746,0,0,0-3.612,6.8c-1.16,2.815-1.377,4.713-.663,5.9L.087,22.62a.71.71,0,0,0,.3.965c.24.156,6.042,3.81,18.982,3.81H60.491c8.365,0,14.747-2.707,15.2-6.362a3.544,3.544,0,0,0,1.426-2.45A4.563,4.563,0,0,0,75.177,14.319Zm-3.6.5c-1.619.462-3.8,1.072-5.681,1.55-1.21.307-4.893,1.243-6.572.532a1.722,1.722,0,0,1-.383-.218c3.2-.337,5-.99,5.492-1.987a1.235,1.235,0,0,0,.129-.613A45.168,45.168,0,0,1,71.573,14.817ZM42.566,8.467a1.445,1.445,0,0,0,1.62,0l1.23-.91q.843.372,1.658.722l-.743.55a.7.7,0,0,0,0,1.2,1.446,1.446,0,0,0,1.621,0l1.185-.878q.87.361,1.695.695l-.736.545a.7.7,0,0,0,0,1.2,1.446,1.446,0,0,0,1.621,0l1.225-.908q.9.352,1.735.665l-.816.6a.7.7,0,0,0,0,1.2,1.445,1.445,0,0,0,1.62,0l1.358-1.006c2.736.988,4.579,1.566,5.215,1.761a.917.917,0,0,1,.2.225c-.2.205-1.461.75-5.108.99-4.4.29-10.028,3.681-11.328,6.065-3.412-.261-7.232-.586-11.138-.938-.414-1.4-1.975-2.76-4.718-4.11l12.2-10.056q.622.289,1.233.567l-.831.616A.7.7,0,0,0,42.566,8.467ZM30.808,1.995a.831.831,0,0,1,.572-.281,8.689,8.689,0,0,1,3.852.987A38.006,38.006,0,0,1,30.84,5.551C29.5,4.37,29.544,3.483,30.808,1.995ZM8.966,6.134A6.846,6.846,0,0,1,14.2,3.267c.208-.018.414-.027.613-.027.389,0,1.27,1.188,1.743,1.826a12.741,12.741,0,0,0,3.123,3.252A7.836,7.836,0,0,1,15,8.633L8.412,7.041C8.591,6.745,8.774,6.444,8.966,6.134ZM6.123,11.243c1.934.354,6.474,1.231,11.25,2.467a1.516,1.516,0,0,0,.378.048,1.178,1.178,0,0,0,1.082-.569c.208-.442-.106-.927-.7-1.081-4.652-1.2-9.089-2.074-11.2-2.465q.268-.5.568-1.036l6.785,1.64a10.911,10.911,0,0,0,2.562.3,10.491,10.491,0,0,0,4.3-.9l.773-.35a8.237,8.237,0,0,0,2.013.239c5.117,0,11.192-4.314,13.223-5.874q1.551.778,3.05,1.493L27.969,15.246q-2.355-.969-5.534-1.933a1.313,1.313,0,0,0-1.494.464c-.24.434.04.929.626,1.107,7.136,2.166,9.72,3.939,10.567,5.134-12.269-1.129-24.7-2.43-27.507-2.726C4.266,16.454,4.562,14.515,6.123,11.243ZM69.86,24.135A25.554,25.554,0,0,1,60.491,25.7H19.374c-9.662,0-15.061-2.178-16.825-3.043L4.6,19c6.333.669,42.939,4.492,52.35,4.492q.336,0,.667,0c.633-.007,1.138-.392,1.13-.861s-.52-.837-1.145-.837h-.016q-.315,0-.635,0c-1.89,0-4.961-.164-8.7-.429a11.612,11.612,0,0,1,2.746-2.217,16.418,16.418,0,0,1,5.464-2.223,3.5,3.5,0,0,0,1.724,1.445A7.258,7.258,0,0,0,61,18.855a24,24,0,0,0,5.64-.883c2.663-.676,5.921-1.613,7.382-2.038a3.1,3.1,0,0,1,.815,2.484,1.992,1.992,0,0,1-.806,1.444A70.906,70.906,0,0,1,62.07,21.624c-.63.042-1.1.455-1.038.922a1.1,1.1,0,0,0,1.244.769,78.255,78.255,0,0,0,10.763-1.45A7.033,7.033,0,0,1,69.86,24.135Zm0,0" transform="translate(0.001 0.001)"/>
    </g>
  </g>
</svg>
