<svg xmlns="http://www.w3.org/2000/svg" xmlns:xlink="http://www.w3.org/1999/xlink" width="120" height="120" viewBox="0 0 120 120">
  <defs>
    <filter id="Rect치ngulo_405345" x="0" y="0" width="120" height="120" filterUnits="userSpaceOnUse">
      <feOffset dx="6" dy="7" input="SourceAlpha"/>
      <feGaussianBlur stdDeviation="4" result="blur"/>
      <feFlood flood-opacity="0.251"/>
      <feComposite operator="in" in2="blur"/>
      <feComposite in="SourceGraphic"/>
    </filter>
  </defs>
  <g id="Grupo_1179080" data-name="Grupo 1179080" transform="translate(-1219.051 -6490)">
    <g id="Grupo_1179063" data-name="Grupo 1179063" transform="translate(615 2654)">
      <g transform="matrix(1, 0, 0, 1, 604.05, 3836)" filter="url(#Rect치ngulo_405345)">
        <g id="Rect치ngulo_405345-2" data-name="Rect치ngulo 405345" transform="translate(6 5)" fill="#cb98f5" stroke="#fff" stroke-width="3">
          <path d="M0,0H67A29,29,0,0,1,96,29V67A29,29,0,0,1,67,96H29A29,29,0,0,1,0,67V0A0,0,0,0,1,0,0Z" stroke="none"/>
          <path d="M1.5,1.5H67A27.5,27.5,0,0,1,94.5,29V67A27.5,27.5,0,0,1,67,94.5H29A27.5,27.5,0,0,1,1.5,67V1.5A0,0,0,0,1,1.5,1.5Z" fill="none"/>
        </g>
      </g>
    </g>
    <g id="Layer_32" data-name="Layer 32" transform="translate(1235.051 6507)">
      <path id="Trazado_1034961" data-name="Trazado 1034961" d="M67.221,26.993,52.005,24.141,34.087,11H31.7l-3.36,5.04a4.778,4.778,0,0,1-3.976,2.128H19.121a4.779,4.779,0,0,1-4.274-2.642l-1.6-3.2A2.389,2.389,0,0,0,11.107,11H9V34.892H71.119v-3.2a4.779,4.779,0,0,0-3.9-4.7Z" transform="translate(1.362 0.195)" fill="#febe86"/>
      <path id="Trazado_1034962" data-name="Trazado 1034962" d="M71.119,31.389H47.227L36.476,29H9v4.778a2.389,2.389,0,0,0,2.389,2.389H68.73a2.389,2.389,0,0,0,2.389-2.389Z" transform="translate(1.362 3.697)" fill="#d96c5a"/>
      <path id="Trazado_1034963" data-name="Trazado 1034963" d="M28.351,11l-2.157,3.237,17.234,12.31a2.389,2.389,0,0,0,3.081-.257l2.15-2.15L30.741,11Z" transform="translate(4.708 0.195)" fill="#d96c5a"/>
      <path id="Trazado_1034964" data-name="Trazado 1034964" d="M9,21h7.168a9.557,9.557,0,0,1,9.557,9.557H9Z" transform="translate(1.362 2.141)" fill="#d96c5a"/>
      <path id="Trazado_1034965" data-name="Trazado 1034965" d="M61.221,44.993,46.005,42.141,28.087,29H25.7l-3.36,5.04a4.778,4.778,0,0,1-3.976,2.128H13.121a4.779,4.779,0,0,1-4.274-2.642l-1.6-3.2A2.389,2.389,0,0,0,5.107,29H3V52.892H65.119v-3.2a4.779,4.779,0,0,0-3.9-4.7Z" transform="translate(0.195 3.697)" fill="#febe86"/>
      <path id="Trazado_1034966" data-name="Trazado 1034966" d="M65.119,49.389H41.227L30.476,47H3v4.778a2.389,2.389,0,0,0,2.389,2.389H62.73a2.389,2.389,0,0,0,2.389-2.389Z" transform="translate(0.195 7.2)" fill="#d96c5a"/>
      <path id="Trazado_1034967" data-name="Trazado 1034967" d="M22.351,29l-2.157,3.237,17.234,12.31a2.389,2.389,0,0,0,3.081-.257l2.15-2.15L24.741,29Z" transform="translate(3.54 3.697)" fill="#d96c5a"/>
      <path id="Trazado_1034968" data-name="Trazado 1034968" d="M3,39h7.168a9.557,9.557,0,0,1,9.557,9.557H3Z" transform="translate(0.195 5.643)" fill="#d96c5a"/>
      <path id="Trazado_1034969" data-name="Trazado 1034969" d="M68.8,26.014l-14.948-2.8-17.7-12.98A1.2,1.2,0,0,0,35.449,10H33.06a1.2,1.2,0,0,0-.994.532l-2.159,3.237-1.2,1.8a3.575,3.575,0,0,1-2.982,1.6H20.483a3.562,3.562,0,0,1-3.205-1.981l-1.6-3.206A3.563,3.563,0,0,0,12.469,10H10.362a1.2,1.2,0,0,0-1.195,1.195V34.8l-.661-1.321A3.563,3.563,0,0,0,5.3,31.5H3.195A1.2,1.2,0,0,0,2,32.7V58.978a3.584,3.584,0,0,0,3.584,3.584H62.924a3.584,3.584,0,0,0,3.584-3.584V53.388a5.973,5.973,0,0,0-4.873-5.872l-14.947-2.8L41.7,41.06H70.092a3.584,3.584,0,0,0,3.584-3.584V31.885A5.973,5.973,0,0,0,68.8,26.013Zm-27.494-9.04-1.546,2.32-2.911-2.079,1.572-2.357Zm1.929,1.414L46.124,20.5l-1.505,2.258-2.91-2.079Zm4.813,3.53,3.487,2.556L50.37,25.643a1.2,1.2,0,0,1-1.542.125l-2.27-1.619ZM33.7,12.389h1.359l1.434,1.055L34.9,15.826l-2.371-1.694Zm-21.229,0a1.187,1.187,0,0,1,1.068.661l1.6,3.205a5.94,5.94,0,0,0,5.342,3.3h5.241a5.963,5.963,0,0,0,4.971-2.66l.516-.775L47.442,27.715a3.571,3.571,0,0,0,4.617-.382l1.707-1.707,14.6,2.737a3.584,3.584,0,0,1,2.923,3.523v2.007H48.721L38.1,31.531a1.18,1.18,0,0,0-.259-.029H28.211A10.765,10.765,0,0,0,17.53,21.946H11.557V12.389ZM22.743,35.272l-1.2,1.8a3.575,3.575,0,0,1-2.985,1.6H13.315a3.572,3.572,0,0,1-1.758-.465V33.892h12.1ZM11.557,24.335H17.53A8.375,8.375,0,0,1,25.807,31.5H11.557Zm14.974,9.557H27.89l1.434,1.055-1.588,2.382-2.371-1.694Zm4.726,2.469,2.885,2.116L32.6,40.8l-2.911-2.079Zm4.814,3.53,2.885,2.116-1.505,2.258-2.91-2.079Zm4.813,3.53,3.487,2.556L43.2,47.146a1.2,1.2,0,0,1-1.542.125l-2.27-1.619ZM4.389,45.838h5.973a8.375,8.375,0,0,1,8.277,7.168H4.389Zm59.73,13.141a1.2,1.2,0,0,1-1.195,1.195H5.584a1.2,1.2,0,0,1-1.195-1.195V55.395h26.15l10.624,2.361a1.18,1.18,0,0,0,.259.029h22.7Zm0-5.591v2.007H41.553L30.93,53.034a1.18,1.18,0,0,0-.259-.029H21.043a10.765,10.765,0,0,0-10.681-9.557H4.389V33.892H5.3a1.187,1.187,0,0,1,1.068.661l1.6,3.205a5.94,5.94,0,0,0,5.342,3.3h5.241a5.963,5.963,0,0,0,4.971-2.66l.516-.775L40.275,49.211a3.571,3.571,0,0,0,4.617-.382L46.6,47.122l14.6,2.737a3.584,3.584,0,0,1,2.923,3.529Zm7.168-15.912a1.2,1.2,0,0,1-1.195,1.195H38.446l-6.515-4.778h5.776L48.33,36.252a1.18,1.18,0,0,0,.259.029h22.7Z"/>
    </g>
  </g>
</svg>
