<svg xmlns="http://www.w3.org/2000/svg" xmlns:xlink="http://www.w3.org/1999/xlink" width="116" height="116" viewBox="0 0 116 116">
  <defs>
    <filter id="Rectángulo_401369" x="0" y="0" width="116" height="116" filterUnits="userSpaceOnUse">
      <feOffset dx="6" dy="7" input="SourceAlpha"/>
      <feGaussianBlur stdDeviation="4" result="blur"/>
      <feFlood flood-opacity="0.251"/>
      <feComposite operator="in" in2="blur"/>
      <feComposite in="SourceGraphic"/>
    </filter>
  </defs>
  <g id="Grupo_1178447" data-name="Grupo 1178447" transform="translate(-1115.051 -924)">
    <g transform="matrix(1, 0, 0, 1, 1115.05, 924)" filter="url(#Rectángulo_401369)">
      <g id="Rectángulo_401369-2" data-name="Rectángulo 401369" transform="translate(6 5)" fill="#e0ee33" stroke="#fff" stroke-width="3">
        <path d="M0,0H63A29,29,0,0,1,92,29V63A29,29,0,0,1,63,92H29A29,29,0,0,1,0,63V0A0,0,0,0,1,0,0Z" stroke="none"/>
        <path d="M1.5,1.5H63A27.5,27.5,0,0,1,90.5,29V63A27.5,27.5,0,0,1,63,90.5H29A27.5,27.5,0,0,1,1.5,63V1.5A0,0,0,0,1,1.5,1.5Z" fill="none"/>
      </g>
    </g>
    <g id="libro-de-bocetos" transform="translate(1142.051 949)">
      <rect id="Rectángulo_405134" data-name="Rectángulo 405134" width="40.406" height="46.834" rx="6" transform="translate(0.918 3.599)" fill="#64c4ff"/>
      <path id="Trazado_1034017" data-name="Trazado 1034017" d="M6,46.711V10.6A1.606,1.606,0,0,1,7.6,9H36.49a1.606,1.606,0,0,1,1.6,1.6V46.711Z" transform="translate(-1.186 -1.779)" fill="#eef4ff"/>
      <path id="Trazado_1034018" data-name="Trazado 1034018" d="M34.407,30.652,51.064,14a3.4,3.4,0,0,1,4.814,4.814L39.222,35.466,32,37.873Z" transform="translate(-6.325 -2.569)" fill="#ffcd5f"/>
      <path id="Trazado_1034019" data-name="Trazado 1034019" d="M34.408,34.989a4.369,4.369,0,0,1,.62-.045A4.258,4.258,0,0,1,39.222,39.8L32,42.21Z" transform="translate(-6.325 -6.906)" fill="#f9a93e"/>
      <path id="Trazado_1034020" data-name="Trazado 1034020" d="M54.314,24.622A4.82,4.82,0,0,0,49.5,19.808L52.308,17a4.82,4.82,0,0,1,4.814,4.814Z" transform="translate(-9.783 -3.36)" fill="#f9a93e"/>
      <path id="Trazado_1034021" data-name="Trazado 1034021" d="M33.337,39h.268a2.41,2.41,0,0,1,2.407,2.407v.268L32,43.011Z" transform="translate(-6.325 -7.708)" fill="#ef8e2e"/>
      <g id="Grupo_1177650" data-name="Grupo 1177650">
        <path id="Trazado_1034022" data-name="Trazado 1034022" d="M40.92,27.473a.8.8,0,0,0-.8.8V45.735a4.017,4.017,0,0,1-4.012,4.012H5.617A4.017,4.017,0,0,1,1.6,45.735V8.024A4.017,4.017,0,0,1,5.617,4.012H8.826V6.419H6.419A2.41,2.41,0,0,0,4.012,8.826V44.932a.8.8,0,0,0,.8.8H36.909a.8.8,0,0,0,.8-.8V32.287a.8.8,0,1,0-1.6,0V44.13H5.617V8.826a.8.8,0,0,1,.8-.8H8.826v1.6a.8.8,0,1,0,1.6,0v-1.6h4.012v1.6a.8.8,0,1,0,1.6,0v-1.6h4.012v1.6a.8.8,0,1,0,1.6,0v-1.6h4.012v1.6a.8.8,0,0,0,1.6,0v-1.6h4.012v1.6a.8.8,0,0,0,1.6,0v-1.6H35.3a.8.8,0,0,1,.8.8v7.028a.8.8,0,0,0,1.6,0V8.826A2.41,2.41,0,0,0,35.3,6.419H32.9V4.012h3.209a4.017,4.017,0,0,1,4.012,4.012v3.819a.8.8,0,0,0,1.6,0V8.024a5.623,5.623,0,0,0-5.617-5.617H32.9V.8a.8.8,0,0,0-1.6,0v1.6H27.28V.8a.8.8,0,0,0-1.6,0v1.6H21.664V.8a.8.8,0,1,0-1.6,0v1.6H16.047V.8a.8.8,0,1,0-1.6,0v1.6H10.431V.8a.8.8,0,1,0-1.6,0v1.6H5.617A5.623,5.623,0,0,0,0,8.024V45.735a5.623,5.623,0,0,0,5.617,5.617h30.49a5.623,5.623,0,0,0,5.617-5.617V28.275A.8.8,0,0,0,40.92,27.473ZM31.292,4.012V6.419H27.28V4.012Zm-5.617,0V6.419H21.664V4.012Zm-5.617,0V6.419H16.047V4.012Zm-5.617,0V6.419H10.431V4.012Z" fill="#2c3038"/>
        <path id="Trazado_1034023" data-name="Trazado 1034023" d="M57.478,16.2A4.206,4.206,0,0,0,50.3,13.23l-2.214,2.214h0l-2.808,2.808h0L33.642,29.887a.805.805,0,0,0-.194.313l-2.407,7.221a.8.8,0,0,0,1.015,1.015l7.221-2.407a.805.805,0,0,0,.313-.194L51.225,24.2h0l2.808-2.808h0l2.214-2.214A4.233,4.233,0,0,0,57.478,16.2ZM36.5,35.264a3.2,3.2,0,0,0-2.287-2.287l.587-1.761a3.445,3.445,0,0,1,3.46,3.461Zm1.886-4.173a5.027,5.027,0,0,0-2.351-1.329L46.145,19.653a3.993,3.993,0,0,1,3.68,3.68L39.716,33.442A5.022,5.022,0,0,0,38.387,31.091Zm9.136-12.816,1.43-1.43a3.993,3.993,0,0,1,3.68,3.68l-1.43,1.43A5.641,5.641,0,0,0,47.523,18.275ZM33.708,34.5a1.605,1.605,0,0,1,1.274,1.274l-1.91.637ZM55.113,18.044l-1.1,1.1a5.641,5.641,0,0,0-3.68-3.68l1.1-1.1a2.689,2.689,0,0,1,3.676,0,2.607,2.607,0,0,1,0,3.683Z" transform="translate(-6.127 -2.372)" fill="#2c3038"/>
        <path id="Trazado_1034024" data-name="Trazado 1034024" d="M16.658,38.708A4.894,4.894,0,0,0,19.3,41.8a5.686,5.686,0,0,0,2.336.462,9.315,9.315,0,0,0,3.325-.666.8.8,0,0,0-.631-1.475c-.025.01-2.522,1.049-4.378.212A3.315,3.315,0,0,1,18.18,38.2a15.427,15.427,0,0,1-.192-5.34c.309-4.638.694-10.41-5.911-12.812a.8.8,0,1,0-.548,1.508c5.472,1.99,5.16,6.67,4.858,11.2A16.361,16.361,0,0,0,16.658,38.708Z" transform="translate(-2.174 -3.953)" fill="#2c3038"/>
      </g>
    </g>
  </g>
</svg>
