<svg xmlns="http://www.w3.org/2000/svg" xmlns:xlink="http://www.w3.org/1999/xlink" width="116" height="116" viewBox="0 0 116 116">
  <defs>
    <filter id="Rect치ngulo_401369" x="0" y="0" width="116" height="116" filterUnits="userSpaceOnUse">
      <feOffset dx="6" dy="7" input="SourceAlpha"/>
      <feGaussianBlur stdDeviation="4" result="blur"/>
      <feFlood flood-opacity="0.251"/>
      <feComposite operator="in" in2="blur"/>
      <feComposite in="SourceGraphic"/>
    </filter>
  </defs>
  <g id="Grupo_1178451" data-name="Grupo 1178451" transform="translate(-9551 10684)">
    <g transform="matrix(1, 0, 0, 1, 9551, -10684)" filter="url(#Rect치ngulo_401369)">
      <g id="Rect치ngulo_401369-2" data-name="Rect치ngulo 401369" transform="translate(6 5)" fill="#e0ee33" stroke="#fff" stroke-width="3">
        <path d="M0,0H63A29,29,0,0,1,92,29V63A29,29,0,0,1,63,92H29A29,29,0,0,1,0,63V0A0,0,0,0,1,0,0Z" stroke="none"/>
        <path d="M1.5,1.5H63A27.5,27.5,0,0,1,90.5,29V63A27.5,27.5,0,0,1,63,90.5H29A27.5,27.5,0,0,1,1.5,63V1.5A0,0,0,0,1,1.5,1.5Z" fill="none"/>
      </g>
    </g>
    <g id="cuero" transform="translate(9573.005 -10663)">
      <path id="Trazado_1033986" data-name="Trazado 1033986" d="M37.791,2.134C38.966,4.544,42.61,9.9,51.585,9.2a2.009,2.009,0,0,1,2.128,1.554l1.239,5.576a1.99,1.99,0,0,1-1.078,2.23c-2.306,1.116-6.551,4.155-6.551,11.44s4.245,10.324,6.551,11.438a1.99,1.99,0,0,1,1.078,2.23l-1.239,5.576A2.009,2.009,0,0,1,51.585,50.8c-8.975-.7-12.619,4.658-13.794,7.068A2,2,0,0,1,35.99,59H24a2,2,0,0,1-1.8-1.134C21.023,55.456,17.38,50.1,8.4,50.8a2.008,2.008,0,0,1-2.127-1.554L5.038,43.668a1.989,1.989,0,0,1,1.078-2.23c2.3-1.114,6.551-4.153,6.551-11.438S8.421,19.676,6.116,18.562a1.989,1.989,0,0,1-1.078-2.23l1.239-5.576A2.008,2.008,0,0,1,8.4,9.2c8.98.7,12.623-4.656,13.8-7.066A2.005,2.005,0,0,1,24,1H35.99a2,2,0,0,1,1.8,1.134Z" fill="sienna"/>
      <g id="Grupo_1177649" data-name="Grupo 1177649">
        <path id="Trazado_1033987" data-name="Trazado 1033987" d="M34.792,2.134C35.966,4.543,39.608,9.9,48.578,9.2A12.656,12.656,0,0,1,37.792,2.134,2,2,0,0,0,35.99,1h-3a2,2,0,0,1,1.8,1.134Z" fill="#783e22"/>
        <path id="Trazado_1033988" data-name="Trazado 1033988" d="M53.874,41.438C51.568,40.324,47.323,37.285,47.323,30s4.245-10.324,6.551-11.438a1.99,1.99,0,0,0,1.078-2.23l-1.239-5.576A2.009,2.009,0,0,0,51.585,9.2a18.921,18.921,0,0,1-2.545.021,2,2,0,0,1,1.673,1.533l1.239,5.576a1.99,1.99,0,0,1-1.078,2.23c-2.306,1.116-6.551,4.155-6.551,11.44s4.245,10.324,6.551,11.438a1.99,1.99,0,0,1,1.078,2.23l-1.239,5.576a2,2,0,0,1-1.673,1.533,18.921,18.921,0,0,1,2.545.021,2.009,2.009,0,0,0,2.128-1.554l1.239-5.576A1.99,1.99,0,0,0,53.874,41.438Z" fill="#783e22"/>
        <path id="Trazado_1033989" data-name="Trazado 1033989" d="M34.792,57.866A2.005,2.005,0,0,1,32.99,59h3a2,2,0,0,0,1.8-1.134A12.656,12.656,0,0,1,48.578,50.8c-8.97-.7-12.612,4.657-13.786,7.066Z" fill="#783e22"/>
      </g>
      <path id="Trazado_1033990" data-name="Trazado 1033990" d="M54.309,19.463a2.985,2.985,0,0,0,1.619-3.348l-1.239-5.577a3.02,3.02,0,0,0-3.182-2.332C43.128,8.857,39.75,3.87,38.69,1.7A2.986,2.986,0,0,0,35.99,0H24a2.989,2.989,0,0,0-2.7,1.7C20.24,3.874,16.873,8.859,8.483,8.21A3.03,3.03,0,0,0,5.3,10.539L4.062,16.115a2.984,2.984,0,0,0,1.619,3.348C7.917,20.542,11.667,23.347,11.667,30s-3.75,9.458-5.986,10.537a2.984,2.984,0,0,0-1.619,3.348L5.3,49.461a3.023,3.023,0,0,0,3.181,2.333c8.379-.656,11.757,4.335,12.817,6.51A2.989,2.989,0,0,0,24,60H35.99a2.986,2.986,0,0,0,2.7-1.7c1.061-2.174,4.441-7.163,12.817-6.51a3.021,3.021,0,0,0,3.182-2.333l1.239-5.576a2.985,2.985,0,0,0-1.619-3.348c-2.236-1.075-5.986-3.88-5.986-10.533s3.75-9.458,5.986-10.537ZM46.323,30c0,7.745,4.458,11.055,7.115,12.338a.992.992,0,0,1,.538,1.113l-1.239,5.576a1,1,0,0,1-1.074.773c-9.611-.748-13.531,5.085-14.77,7.628a1,1,0,0,1-.9.572H24a1,1,0,0,1-.9-.573c-1.166-2.39-4.7-7.692-13.118-7.692q-.8,0-1.652.065a1,1,0,0,1-1.074-.772L6.014,43.451a.992.992,0,0,1,.537-1.113C9.208,41.055,13.667,37.746,13.667,30S9.208,18.945,6.551,17.662a.992.992,0,0,1-.537-1.113l1.239-5.577A1,1,0,0,1,8.327,10.2c9.61.747,13.531-5.085,14.77-7.628A1,1,0,0,1,24,2H35.99a1,1,0,0,1,.9.572c1.239,2.541,5.157,8.371,14.77,7.627a1,1,0,0,1,1.074.772l1.239,5.577a.992.992,0,0,1-.538,1.113C50.781,18.945,46.323,22.255,46.323,30Z"/>
      <path id="Trazado_1033991" data-name="Trazado 1033991" d="M25.7,4.139a1,1,0,0,0-1.37.353,16,16,0,0,1-1.125,1.662,1,1,0,1,0,1.584,1.222,18.33,18.33,0,0,0,1.264-1.868A1,1,0,0,0,25.7,4.139Z"/>
      <path id="Trazado_1033992" data-name="Trazado 1033992" d="M20.39,8.977a15.026,15.026,0,0,1-1.736,1.154,1,1,0,0,0,.99,1.738,17.108,17.108,0,0,0,1.966-1.307,1,1,0,0,0-1.22-1.585Z"/>
      <path id="Trazado_1033993" data-name="Trazado 1033993" d="M13.171,14.042a19.819,19.819,0,0,0,2.077-.411,1,1,0,1,0-.5-1.938,17.884,17.884,0,0,1-1.865.37,1,1,0,0,0,.284,1.979Z"/>
      <path id="Trazado_1033994" data-name="Trazado 1033994" d="M9.8,14.893a1,1,0,1,0-1.059,1.7,14.622,14.622,0,0,1,1.63,1.18,1,1,0,0,0,1.28-1.538A16.734,16.734,0,0,0,9.8,14.893Z"/>
      <path id="Trazado_1033995" data-name="Trazado 1033995" d="M14.943,23a.985.985,0,0,0,.439-.1,1,1,0,0,0,.458-1.337,16.1,16.1,0,0,0-1.254-2.132,1,1,0,1,0-1.641,1.144,14.1,14.1,0,0,1,1.1,1.867,1,1,0,0,0,.9.558Z"/>
      <path id="Trazado_1033996" data-name="Trazado 1033996" d="M16.087,25.02A1,1,0,0,0,15.3,26.2a18.2,18.2,0,0,1,.277,1.9,1,1,0,0,0,.994.908h.093a1,1,0,0,0,.9-1.088,20.277,20.277,0,0,0-.307-2.1,1,1,0,0,0-1.17-.79Z"/>
      <path id="Trazado_1033997" data-name="Trazado 1033997" d="M16.668,31a1,1,0,0,0-1.087.9,18.2,18.2,0,0,1-.281,1.9,1,1,0,0,0,.783,1.177.967.967,0,0,0,.2.02,1,1,0,0,0,.979-.8,20.275,20.275,0,0,0,.307-2.1,1,1,0,0,0-.9-1.092Z"/>
      <path id="Trazado_1033998" data-name="Trazado 1033998" d="M15.433,36.979a1,1,0,0,0-1.334.47,14.228,14.228,0,0,1-.935,1.656,1,1,0,0,0,1.672,1.1,16.369,16.369,0,0,0,1.066-1.89,1,1,0,0,0-.469-1.336Z"/>
      <path id="Trazado_1033999" data-name="Trazado 1033999" d="M10.367,42.231a14.621,14.621,0,0,1-1.63,1.18,1,1,0,0,0,1.059,1.7,16.733,16.733,0,0,0,1.851-1.338,1,1,0,0,0-1.28-1.538Z"/>
      <path id="Trazado_1034000" data-name="Trazado 1034000" d="M15.248,46.369a19.761,19.761,0,0,0-2.074-.411,1,1,0,0,0-.285,1.98,17.391,17.391,0,0,1,1.863.369,1,1,0,0,0,.5-1.938Z"/>
      <path id="Trazado_1034001" data-name="Trazado 1034001" d="M19.485,48.042a1,1,0,1,0-.97,1.748A15.119,15.119,0,0,1,20.1,50.807a1,1,0,0,0,1.182-1.614,16.957,16.957,0,0,0-1.8-1.151Z"/>
      <path id="Trazado_1034002" data-name="Trazado 1034002" d="M24.6,52.375a1,1,0,1,0-1.561,1.25,16.187,16.187,0,0,1,1.3,1.883A1,1,0,0,0,25.2,56a.989.989,0,0,0,.507-.139,1,1,0,0,0,.353-1.369,18.137,18.137,0,0,0-1.46-2.117Z"/>
      <path id="Trazado_1034003" data-name="Trazado 1034003" d="M31,54H29a1,1,0,0,0,0,2h2a1,1,0,0,0,0-2Z"/>
      <path id="Trazado_1034004" data-name="Trazado 1034004" d="M31,4H29a1,1,0,0,0,0,2h2a1,1,0,0,0,0-2Z"/>
      <path id="Trazado_1034005" data-name="Trazado 1034005" d="M35.208,7.376a1,1,0,0,0,1.584-1.222,16,16,0,0,1-1.125-1.662,1,1,0,0,0-1.723,1.016,18.33,18.33,0,0,0,1.264,1.868Z"/>
      <path id="Trazado_1034006" data-name="Trazado 1034006" d="M40.356,11.869a1,1,0,1,0,.99-1.738A15.026,15.026,0,0,1,39.61,8.977a1,1,0,0,0-1.22,1.585A17.108,17.108,0,0,0,40.356,11.869Z"/>
      <path id="Trazado_1034007" data-name="Trazado 1034007" d="M47.113,12.063a17.883,17.883,0,0,1-1.865-.37,1,1,0,0,0-.5,1.938,19.818,19.818,0,0,0,2.077.411,1,1,0,1,0,.284-1.979Z"/>
      <path id="Trazado_1034008" data-name="Trazado 1034008" d="M50.2,14.893a16.733,16.733,0,0,0-1.851,1.338,1,1,0,1,0,1.28,1.538,14.622,14.622,0,0,1,1.63-1.18,1,1,0,0,0-1.059-1.7Z"/>
      <path id="Trazado_1034009" data-name="Trazado 1034009" d="M45.414,19.428A16.1,16.1,0,0,0,44.16,21.56a1,1,0,0,0,.458,1.337.985.985,0,0,0,.439.1,1,1,0,0,0,.9-.561,14.1,14.1,0,0,1,1.1-1.867,1,1,0,1,0-1.641-1.144Z"/>
      <path id="Trazado_1034010" data-name="Trazado 1034010" d="M43.332,29h.093a1,1,0,0,0,.994-.908A18.2,18.2,0,0,1,44.7,26.2a1,1,0,0,0-1.961-.394,20.276,20.276,0,0,0-.307,2.1A1,1,0,0,0,43.332,29Z"/>
      <path id="Trazado_1034011" data-name="Trazado 1034011" d="M44.7,33.8a18.2,18.2,0,0,1-.277-1.895,1,1,0,1,0-1.991.184,20.274,20.274,0,0,0,.307,2.105,1,1,0,0,0,.979.8.967.967,0,0,0,.2-.02A1,1,0,0,0,44.7,33.8Z"/>
      <path id="Trazado_1034012" data-name="Trazado 1034012" d="M44.567,36.979a1,1,0,0,0-.469,1.334,16.368,16.368,0,0,0,1.066,1.89,1,1,0,1,0,1.672-1.1,14.228,14.228,0,0,1-.935-1.656,1,1,0,0,0-1.334-.468Z"/>
      <path id="Trazado_1034013" data-name="Trazado 1034013" d="M50.2,45.107a1,1,0,1,0,1.059-1.7,14.623,14.623,0,0,1-1.63-1.18,1,1,0,0,0-1.28,1.538A16.734,16.734,0,0,0,50.2,45.107Z"/>
      <path id="Trazado_1034014" data-name="Trazado 1034014" d="M44.752,46.369a1,1,0,1,0,.5,1.938,17.39,17.39,0,0,1,1.863-.369,1,1,0,0,0-.285-1.98,19.759,19.759,0,0,0-2.078.411Z"/>
      <path id="Trazado_1034015" data-name="Trazado 1034015" d="M40.515,48.042a16.956,16.956,0,0,0-1.8,1.151A1,1,0,0,0,39.9,50.807a15.121,15.121,0,0,1,1.587-1.017,1,1,0,1,0-.97-1.748Z"/>
      <path id="Trazado_1034016" data-name="Trazado 1034016" d="M35.4,52.375a18.138,18.138,0,0,0-1.46,2.117,1,1,0,0,0,.353,1.369A.989.989,0,0,0,34.8,56a1,1,0,0,0,.863-.492,16.186,16.186,0,0,1,1.3-1.883,1,1,0,1,0-1.561-1.25Z"/>
    </g>
  </g>
</svg>
