<svg xmlns="http://www.w3.org/2000/svg" xmlns:xlink="http://www.w3.org/1999/xlink" width="443" height="357" viewBox="0 0 443 357">
  <defs>
    <clipPath id="clip-path">
      <rect id="Rectángulo_402609" data-name="Rectángulo 402609" width="443" height="357" transform="translate(0 0)" fill="none" stroke="#de0909" stroke-width="1"/>
    </clipPath>
    <clipPath id="clip-path-2">
      <path id="Trazado_1033594" data-name="Trazado 1033594" d="M0,0,89.577-.07l-.085,108.323-89.577.07Z" fill="#8b2adb"/>
    </clipPath>
  </defs>
  <g id="Enmascarar_grupo_1098705" data-name="Enmascarar grupo 1098705" clip-path="url(#clip-path)">
    <g id="Grupo_1099550" data-name="Grupo 1099550" transform="translate(-2.074 -0.046)">
      <g id="Grupo_1099546" data-name="Grupo 1099546" transform="translate(0 147.607)">
        <path id="Unión_20" data-name="Unión 20" d="M97.868,209.443H0A24.621,24.621,0,0,0,9.616,207.5a24.71,24.71,0,0,0,7.877-5.31,24.7,24.7,0,0,0,5.31-7.877,24.618,24.618,0,0,0,1.948-9.645v-33.65a69.628,69.628,0,0,1-.813-10.627V69.055a69.056,69.056,0,0,1,138.111,0v71.332a69.059,69.059,0,0,1-64.181,68.886v.169h0Z" transform="translate(0 0)" fill="#8132c3"/>
        <path id="Trazado_1033365" data-name="Trazado 1033365" d="M-156.453,13.275v-101.2h35.626l31.414,52.951a66.913,66.913,0,0,1-.863-7.811q-.242-4.286-.242-11.2V-87.926h35v101.2h-35.9l-31.069-52.536q.552,3.387.829,7.293t.276,8.744v36.5ZM-2.143-23.5h15.12L9.87-34.975q-2.278-8.71-3.107-13.41a71.754,71.754,0,0,1-1.036-8.848H5.106a71.754,71.754,0,0,1-1.036,8.848q-.829,4.7-3.107,13.41ZM-50.335,13.275l36.04-101.2H26.164l35.35,101.2H22.436L19.191.556H-8.219l-3.107,12.719ZM85.333-32V-87.926h36.385v65.808a62.471,62.471,0,0,1-1.139,13.48A30.13,30.13,0,0,1,116.886.417a31.726,31.726,0,0,1-12.428,11.475,36.98,36.98,0,0,1-17.4,4.078,48.529,48.529,0,0,1-16.536-2.7A46.95,46.95,0,0,1,56.266,4.911L68.142-22.256A30.218,30.218,0,0,0,73.8-17.313a9.016,9.016,0,0,0,4.764,1.555q3.935,0,5.351-2.972T85.333-32Zm53.715,45.278v-101.2H206.64v27.443H174.674v9.747h29v25.922h-29v10.645h32.8V13.275Z" transform="translate(235.533 89.931)" fill="#fff"/>
      </g>
      <g id="Grupo_1099549" data-name="Grupo 1099549" transform="translate(5.055 0)">
        <path id="Trazado_1033366" data-name="Trazado 1033366" d="M-179.648,11.808V-76.228h37.778q19.94,0,29.16,7.7t9.219,24.414q0,15.575-8.288,22.761t-26.307,7.186H-148V11.808Zm31.772-63.562v14.673h4.925q4.5,0,6.907-1.894a6.455,6.455,0,0,0,2.4-5.382A6.558,6.558,0,0,0-136.1-49.8a10.749,10.749,0,0,0-6.847-1.954Zm79.461,31.57h13.153l-2.7-9.982q-1.982-7.577-2.7-11.666a62.419,62.419,0,0,1-.9-7.7h-.541a62.422,62.422,0,0,1-.9,7.7q-.721,4.089-2.7,11.666Zm-41.923,31.991,31.352-88.036h35.2l30.751,88.036H-47.033L-49.856.744H-73.7l-2.7,11.065Zm108.53,0V-47.424h-17.6v-28.8H47.383v28.8h-17.6V11.808ZM88.585-53.557v17.2H93.51q4.5,0,6.937-2.195a8.029,8.029,0,0,0,2.432-6.284,8.379,8.379,0,0,0-2.432-6.464q-2.432-2.255-6.937-2.255ZM57.593,11.808V-76.228h39.76q17.3,0,26.427,7.637t9.129,22.009q0,9.381-4.595,15.454a17.817,17.817,0,0,1-12.4,7.1L139.4,11.808H103.96L88.585-17.236V11.808ZM189.548-15.432a13.676,13.676,0,0,0,10.721-4.54q4.054-4.54,4.054-12.057,0-7.577-4.054-12.177a13.593,13.593,0,0,0-10.721-4.6,13.643,13.643,0,0,0-10.751,4.63q-4.084,4.63-4.084,12.147T178.8-19.972A13.768,13.768,0,0,0,189.548-15.432Zm47.028-16.6a46.909,46.909,0,0,1-3.424,18.01A44.805,44.805,0,0,1,223.122.864,45.937,45.937,0,0,1,207.9,10.726a49.191,49.191,0,0,1-18.349,3.428,49.284,49.284,0,0,1-18.439-3.428A45.754,45.754,0,0,1,155.853.744a42.658,42.658,0,0,1-9.91-14.673,47.741,47.741,0,0,1-3.363-18.1,48.2,48.2,0,0,1,3.363-18.161,42.517,42.517,0,0,1,9.91-14.733,45.167,45.167,0,0,1,15.2-9.892,49.833,49.833,0,0,1,18.5-3.4,49.833,49.833,0,0,1,18.5,3.4A45.814,45.814,0,0,1,223.3-64.923a43.912,43.912,0,0,1,9.88,14.793A47.661,47.661,0,0,1,236.575-32.029Z" transform="translate(179.648 129.66)" fill="#fff"/>
        <path id="Unión_21" data-name="Unión 21" d="M20.891,100.426V60.2a60.681,60.681,0,0,1,.709-9.268V21.6a21.47,21.47,0,0,0-1.7-8.408,21.533,21.533,0,0,0-4.63-6.866A21.522,21.522,0,0,0,8.408,1.7,21.457,21.457,0,0,0,0,0H85.337V.148A60.2,60.2,0,0,1,141.285,60.2v40.228a60.2,60.2,0,1,1-120.394,0Z" transform="translate(413.216 160.669) rotate(180)" fill="#36cecc"/>
        <path id="Trazado_1033368" data-name="Trazado 1033368" d="M-179.648,11.808V-76.228h37.778q19.94,0,29.16,7.7t9.219,24.414q0,15.575-8.288,22.761t-26.307,7.186H-148V11.808Zm31.772-63.562v14.673h4.925q4.5,0,6.907-1.894a6.455,6.455,0,0,0,2.4-5.382A6.558,6.558,0,0,0-136.1-49.8a10.749,10.749,0,0,0-6.847-1.954Zm79.461,31.57h13.153l-2.7-9.982q-1.982-7.577-2.7-11.666a62.419,62.419,0,0,1-.9-7.7h-.541a62.422,62.422,0,0,1-.9,7.7q-.721,4.089-2.7,11.666Zm-41.923,31.991,31.352-88.036h35.2l30.751,88.036H-47.033L-49.856.744H-73.7l-2.7,11.065Zm108.53,0V-47.424h-17.6v-28.8H47.383v28.8h-17.6V11.808ZM88.585-53.557v17.2H93.51q4.5,0,6.937-2.195a8.029,8.029,0,0,0,2.432-6.284,8.379,8.379,0,0,0-2.432-6.464q-2.432-2.255-6.937-2.255ZM57.593,11.808V-76.228h39.76q17.3,0,26.427,7.637t9.129,22.009q0,9.381-4.595,15.454a17.817,17.817,0,0,1-12.4,7.1L139.4,11.808H103.96L88.585-17.236V11.808ZM189.548-15.432a13.676,13.676,0,0,0,10.721-4.54q4.054-4.54,4.054-12.057,0-7.577-4.054-12.177a13.593,13.593,0,0,0-10.721-4.6,13.643,13.643,0,0,0-10.751,4.63q-4.084,4.63-4.084,12.147T178.8-19.972A13.768,13.768,0,0,0,189.548-15.432Zm47.028-16.6a46.909,46.909,0,0,1-3.424,18.01A44.805,44.805,0,0,1,223.122.864,45.937,45.937,0,0,1,207.9,10.726a49.191,49.191,0,0,1-18.349,3.428,49.284,49.284,0,0,1-18.439-3.428A45.754,45.754,0,0,1,155.853.744a42.658,42.658,0,0,1-9.91-14.673,47.741,47.741,0,0,1-3.363-18.1,48.2,48.2,0,0,1,3.363-18.161,42.517,42.517,0,0,1,9.91-14.733,45.167,45.167,0,0,1,15.2-9.892,49.833,49.833,0,0,1,18.5-3.4,49.833,49.833,0,0,1,18.5,3.4A45.814,45.814,0,0,1,223.3-64.923a43.912,43.912,0,0,1,9.88,14.793A47.661,47.661,0,0,1,236.575-32.029Z" transform="translate(179.648 129.66)" fill="none" stroke="#fff" stroke-width="2"/>
        <g id="Grupo_1099548" data-name="Grupo 1099548" transform="matrix(-0.391, 0.921, -0.921, -0.391, 159.068, 42.404)">
          <g id="Grupo_1099547" data-name="Grupo 1099547" clip-path="url(#clip-path-2)">
            <path id="Trazado_1033367" data-name="Trazado 1033367" d="M10.9,85.23l2.723,2.25,1.41,1.1,1.413,1.053,1.431,1.012,1.453.975,1.482.932,1.508.883,1.537.837,1.574.786,1.606.729,1.642.675,1.687.615,1.723.548,1.763.488,1.814.418,1.856.344,1.9.277,1.955.2,2,.121,1.764.035,1.757-.046,1.738-.125,1.724-.2,1.711-.272,1.686-.345,1.668-.41,1.65-.48,1.62-.547,1.6-.606,1.574-.672,1.541-.731,1.513-.785,1.485-.846,1.448-.9,1.416-.948,1.384-1L72,89.55l1.306-1.094,1.269-1.145L75.8,86.125,76.985,84.9l1.143-1.271,1.093-1.307,1.049-1.342,1-1.382.949-1.413.9-1.443.849-1.479.792-1.5.74-1.53.683-1.561.621-1.581.564-1.6.5-1.628.436-1.643.373-1.659.306-1.68.235-1.688.168-1.7.095-1.715.018-1.718-.052-1.725-.132-1.733-.212-1.73-.288-1.73L88.448,45.4l-.461-1.735L87.21,41.2,86.3,38.724l-1.038-2.441L84.11,33.876l-1.269-2.366-1.376-2.3-1.475-2.24L78.409,24.8l-1.676-2.07L74.97,20.755l-1.859-1.869-1.921-1.721-1.681-1.4-1.685-1.336-1.706-1.288L64.388,11.9l-1.763-1.2L60.833,9.559l-1.824-1.1L57.146,7.409l-1.9-1-1.939-.946-1.986-.893L49.3,3.743l-1.589-.6-1.566-.546L44.6,2.1l-1.524-.439L41.57,1.278,40.087.945,38.624.66,37.179.427,35.759.243l-1.4-.138L32.978.016,31.624-.025H30.291L28.978.024,27.693.117,26.43.25,25.188.426,23.935.653l-2.311.54L19.371,1.9l-2.133.852-2.029.979L13.291,4.844,11.5,6.074,9.825,7.406,8.27,8.846l-1.42,1.527-1.3,1.6-1.17,1.686-1.03,1.745-.9,1.8-.767,1.854-.622,1.886L.57,22.859.225,24.806.032,26.757l-.054,1.957.1,1.963.257,1.941.4,1.921.568,1.9.73,1.846.883,1.8,1.055,1.744,1.188,1.62.7.841.713.783.752.754.791.732.837.708.874.678.913.651.958.624,1,.59,1.033.561,1.079.53,1.116.494,1.153.462,1.2.428,1.235.39,1.272.355,1.317.318,1.355.278,1.392.241,1.436.2,1.474.158,1.513.119,1.557.076,1.6.031,1.805-.019,1.791-.088,1.763-.155,1.742-.217,1.728-.284,1.706-.349,1.693-.408,1.685-.474,1.673-.536,1.667-.592,1.667-.654,1.634-.7a2.478,2.478,0,1,0-1.952-4.556l-1.564.67-1.52.6-1.516.538-1.514.485-1.51.424-1.519.366-1.526.313-1.536.252-1.558.194-1.577.138-1.6.078-1.641.017-1.453-.029-1.411-.069-1.368-.108-1.327-.142-1.278-.179-1.236-.214-1.2-.245-1.148-.277-1.107-.31-1.068-.336-1.021-.365-.982-.394L16.91,46.4l-.9-.442-.862-.469L14.324,45l-.781-.509-.747-.533-.711-.552-.67-.568-.636-.59-.6-.606-.564-.619-.5-.6-1-1.359L7.286,37.7l-.7-1.425-.578-1.465-.445-1.494-.32-1.535L5.04,30.222l-.078-1.566.046-1.585.158-1.587.279-1.574.4-1.569.511-1.549.627-1.513.747-1.483.851-1.441.96-1.382,1.077-1.327L11.8,12.38,13.08,11.2l1.393-1.1,1.49-1.022,1.587-.92,1.7-.816,1.795-.714,1.891-.59,2.046-.472,1-.176,1.059-.149,1.089-.113,1.114-.078L30.376,5h1.165l1.189.038,1.211.081,1.24.124,1.263.165,1.285.21,1.315.258,1.337.3,1.358.351,1.387.4,1.409.449,1.431.5,1.451.554,1.892.782,1.838.829,1.8.882,1.767.929,1.729.977,1.7,1.029,1.675,1.074,1.647,1.122,1.626,1.173L64.7,18.458l1.589,1.264,1.556,1.3,1.743,1.565,1.654,1.669,1.587,1.786,1.516,1.879,1.429,1.965,1.342,2.047,1.255,2.107,1.15,2.156,1.046,2.2.944,2.228.824,2.239.706,2.26.392,1.485.32,1.5L84,49.6l.182,1.5.112,1.5.043,1.5-.018,1.5-.084,1.488-.149,1.487-.207,1.48-.269,1.466-.331,1.46-.386,1.448-.443,1.43-.5,1.418-.553,1.4-.606,1.379-.661,1.361-.707,1.34-.756,1.312-.807,1.288-.85,1.263-.894,1.229-.941,1.2-.98,1.169-1.019,1.131-1.061,1.1-1.1,1.061-1.13,1.017-1.168.977-1.2.937-1.227.888-1.261.843-1.288.8-1.311.746-1.341.695-1.363.646-1.381.589-1.407.533-1.425.48-1.438.419-1.46.358-1.474.3-1.483.235-1.5.17-1.511.109-1.517.039L43.6,94.261l-1.8-.108-1.735-.179-1.688-.246-1.645-.306-1.594-.369-1.559-.431-1.524-.485-1.485-.542-1.458-.6-1.432-.65-1.4-.7L24.9,88.887l-1.367-.8-1.346-.848-1.335-.9-1.324-.938-1.312-.979-1.288-1.008L14.31,81.251l-2.6-2.292-.6-.553.27-.02,2.674-.028,2.728-.025,1.381.012,1.389.019,1.357.026,1.309.03,1.239.033,1.149.034,1.051.032.926.03.78.025.338.01.3.008.254.006.218,0,.188,0,.133,0a2.478,2.478,0,1,0-.078-4.956h-.164l-.18,0-.233-.006-.283-.008-.329-.01-.776-.025-.927-.031-1.058-.034-1.159-.035-1.253-.035-1.326-.034-1.376-.032-1.414-.026-1.453-.018-2.759.013-2.812.011-2.234.144-2.145.139-.731.162-.028.01-.055.021-.084.031-.111.043-.139.052-.167.064-.2.074-.264.1-.291.122-.288.137-.293.161-.309.2-.338.279-.37.414-.358.638-.137.457-.014.063-.012.053-.01.045-.009.036-.006.027,0,.018,0,.009-.051.321-.08.834-.02,1.023L2.5,80.142l.084,1.176.124,1.251.158,1.315.192,1.381L3.277,86.7l.242,1.468.26,1.5.276,1.519.572,3.022.582,2.949.547,2.758.25,1.28.228,1.192.2,1.089.171.979.132.839.1.719a2.62,2.62,0,0,0,5.193-.7l-.107-.787-.151-.938-.184-1.041-.21-1.13-.236-1.221-.257-1.3-.553-2.759L9.742,93.2l-.583-2.991-.278-1.475-.263-1.455-.243-1.417L8.153,84.5l-.192-1.3-.085-.651.323.3Z" transform="translate(0.01 0.011)" fill="#8b2adb"/>
          </g>
        </g>
        <path id="Trazado_1033392" data-name="Trazado 1033392" d="M96.861,50.393,86.541,79.5H95.96l2.116-29.11Z" transform="translate(3.158 1.95)" fill="#fff"/>
      </g>
    </g>
  </g>
</svg>
