<svg xmlns="http://www.w3.org/2000/svg" xmlns:xlink="http://www.w3.org/1999/xlink" width="116" height="116" viewBox="0 0 116 116">
  <defs>
    <filter id="Rect치ngulo_401369" x="0" y="0" width="116" height="116" filterUnits="userSpaceOnUse">
      <feOffset dx="6" dy="7" input="SourceAlpha"/>
      <feGaussianBlur stdDeviation="4" result="blur"/>
      <feFlood flood-opacity="0.251"/>
      <feComposite operator="in" in2="blur"/>
      <feComposite in="SourceGraphic"/>
    </filter>
  </defs>
  <g id="Grupo_1178427" data-name="Grupo 1178427" transform="translate(-1073.051 -2611.884)">
    <g transform="matrix(1, 0, 0, 1, 1073.05, 2611.88)" filter="url(#Rect치ngulo_401369)">
      <g id="Rect치ngulo_401369-2" data-name="Rect치ngulo 401369" transform="translate(6 5)" fill="#e0ee33" stroke="#fff" stroke-width="3">
        <path d="M0,0H63A29,29,0,0,1,92,29V63A29,29,0,0,1,63,92H29A29,29,0,0,1,0,63V0A0,0,0,0,1,0,0Z" stroke="none"/>
        <path d="M1.5,1.5H63A27.5,27.5,0,0,1,90.5,29V63A27.5,27.5,0,0,1,63,90.5H29A27.5,27.5,0,0,1,1.5,63V1.5A0,0,0,0,1,1.5,1.5Z" fill="none"/>
      </g>
    </g>
    <g id="Grupo_1178426" data-name="Grupo 1178426" transform="translate(1096.45 2635.033)">
      <g id="Grupo_1178424" data-name="Grupo 1178424" transform="translate(0.817 0.816)">
        <g id="Grupo_1178423" data-name="Grupo 1178423">
          <path id="Trazado_1034747" data-name="Trazado 1034747" d="M50.612,21.481c-3.937,1.746-5.879,5.975-5.879,10.553a11.289,11.289,0,0,0,.23,2.268,13.4,13.4,0,0,0,3.291,6.837,7.265,7.265,0,0,0,2.109,1.41,1.042,1.042,0,0,1,.541,1.34L49,52.01a1.045,1.045,0,0,1-.969.652H43.56c-4.594,0-8.959.391-11.946,3.874l-.055-.185a2.123,2.123,0,0,1-3.221-.037h-.055c-1.433-1.671-3.182-1.164-5.123-2.1a15.729,15.729,0,0,0-6.823-1.556H11.867a1.045,1.045,0,0,1-.969-.652L7.615,43.89a1.041,1.041,0,0,1,.541-1.34,11.22,11.22,0,0,0-.036-20.507,1.041,1.041,0,0,1-.55-1.319l3.28-8.712a1.046,1.046,0,0,1,.978-.677,1.014,1.014,0,0,1,.206.021A15.746,15.746,0,0,0,25.5,7.76a1.052,1.052,0,0,1,.7-.26h7.5a1.054,1.054,0,0,1,.7.26,15.738,15.738,0,0,0,10.377,3.9,15.779,15.779,0,0,0,3.094-.307,1.045,1.045,0,0,1,1.184.656l1.765,5.174.352,2.976a1.042,1.042,0,0,1-.551,1.319Z" transform="translate(-7.502 -7.5)" fill="#d1a08f"/>
          <path id="Trazado_1034748" data-name="Trazado 1034748" d="M180,121.9a11.247,11.247,0,0,1-6.418-7.979h0a11.233,11.233,0,0,1,6.454-12.529,1.042,1.042,0,0,0,.55-1.319l-1.516-3.538c-2.7,1.037-11.445,4.463-11.445,15.8,0,.042,0,.186,0,.371a1.189,1.189,0,0,1-1.184,1.186l-10.071.033a4.907,4.907,0,0,0-4.951,4.85v14.8a15.715,15.715,0,0,1,5.123,3.934l.055.064a2.122,2.122,0,0,0,3.222,0l.055-.064a15.738,15.738,0,0,1,11.947-5.49h4.468a1.046,1.046,0,0,0,.969-.654l3.283-8.118A1.04,1.04,0,0,0,180,121.9Z" transform="translate(-135.76 -86.847)" fill="#c68d7a"/>
          <circle id="Elipse_11699" data-name="Elipse 11699" cx="2.529" cy="2.529" r="2.529" transform="translate(19.876 7.823)" fill="#8c808b"/>
          <g id="Grupo_1178422" data-name="Grupo 1178422" transform="translate(18.892 29.57)">
            <path id="Trazado_1034749" data-name="Trazado 1034749" d="M211.8,303.587l-3.33.218H183.323a2.166,2.166,0,0,1-2.166-2.166V281.471a2.166,2.166,0,0,1,2.166-2.166h25.145l3.657.218a2.166,2.166,0,0,1,2.166,2.166l-.326,19.732A2.166,2.166,0,0,1,211.8,303.587Z" transform="translate(-181.157 -279.305)" fill="#d1a08f"/>
            <path id="Trazado_1034750" data-name="Trazado 1034750" d="M433.4,279.3h-4.2a2.171,2.171,0,0,1,2.171,2.171v1.573l.418.972.12,12.749-.539,4.012v.85A2.171,2.171,0,0,1,429.2,303.8h4.2a2.166,2.166,0,0,0,2.166-2.166V281.471A2.166,2.166,0,0,0,433.4,279.3Z" transform="translate(-402.212 -279.305)" fill="#c68d7a"/>
            <g id="Grupo_1178421" data-name="Grupo 1178421" transform="translate(21.073 7.357)">
              <path id="Trazado_1034751" data-name="Trazado 1034751" d="M387.384,356.5l-2.632.218h-8.537a1.359,1.359,0,0,1-1.359-1.359v-7.068a1.359,1.359,0,0,1,1.359-1.359h8.537l2.632.218a1.359,1.359,0,0,1,1.359,1.359v6.633A1.359,1.359,0,0,1,387.384,356.5Z" transform="translate(-374.857 -346.927)" fill="#8c808b"/>
              <g id="Grupo_1178420" data-name="Grupo 1178420" transform="translate(3.982 0)">
                <path id="Trazado_1034752" data-name="Trazado 1034752" d="M466.885,346.927h-3.067a1.359,1.359,0,0,1,1.359,1.359v7.068a1.359,1.359,0,0,1-1.359,1.359h3.067a1.359,1.359,0,0,0,1.359-1.359v-7.068A1.359,1.359,0,0,0,466.885,346.927Z" transform="translate(-458.122 -346.927)" fill="#7a6d79"/>
                <circle id="Elipse_11700" data-name="Elipse 11700" cx="1.622" cy="1.622" r="1.622" transform="translate(0 3.27)" fill="#7a6d79"/>
              </g>
            </g>
          </g>
        </g>
      </g>
      <g id="Grupo_1178425" data-name="Grupo 1178425" transform="translate(0.001 0)">
        <path id="Trazado_1034753" data-name="Trazado 1034753" d="M22.517,8.617a.815.815,0,0,0,1.051-.477l.95-2.528a.226.226,0,0,1,.256-.142,16.608,16.608,0,0,0,7.52-.239A16.594,16.594,0,0,0,38.92,1.688a.236.236,0,0,1,.155-.056h7.483a.234.234,0,0,1,.155.057,16.477,16.477,0,0,0,2.836,2,.816.816,0,1,0,.8-1.425,14.832,14.832,0,0,1-2.553-1.8A1.864,1.864,0,0,0,46.558,0H39.075a1.864,1.864,0,0,0-1.233.463A14.965,14.965,0,0,1,25.1,3.872a1.828,1.828,0,0,0-.369-.037A1.865,1.865,0,0,0,22.99,5.04l-.95,2.526a.816.816,0,0,0,.477,1.051Z" transform="translate(-19.596 0)"/>
        <path id="Trazado_1034754" data-name="Trazado 1034754" d="M104.623,384.006a16.722,16.722,0,0,1,2.209.375.816.816,0,0,0,.382-1.587,18.389,18.389,0,0,0-2.425-.412.816.816,0,0,0-.166,1.624Z" transform="translate(-92.587 -340.779)"/>
        <path id="Trazado_1034755" data-name="Trazado 1034755" d="M43.639,322.75a.816.816,0,0,0-1.148-.114,12.4,12.4,0,0,1-1,.74,1.574,1.574,0,0,0-.587,1.893l1.721,4.264a1.561,1.561,0,0,0,1.454.981h1.4a.816.816,0,1,0,0-1.632h-1.36l-1.686-4.176c.374-.25.741-.522,1.09-.808A.816.816,0,0,0,43.639,322.75Z" transform="translate(-36.352 -287.371)"/>
        <path id="Trazado_1034756" data-name="Trazado 1034756" d="M79.038,274.068a.816.816,0,0,0-1.063.45,12.445,12.445,0,0,1-1.311,2.421.816.816,0,1,0,1.34.931,14.073,14.073,0,0,0,1.483-2.738A.816.816,0,0,0,79.038,274.068Z" transform="translate(-68.195 -244.199)"/>
        <path id="Trazado_1034757" data-name="Trazado 1034757" d="M77.565,161.908a.816.816,0,0,0,1.509-.622,14.014,14.014,0,0,0-1.5-2.73.816.816,0,0,0-1.334.941A12.373,12.373,0,0,1,77.565,161.908Z" transform="translate(-67.812 -140.998)"/>
        <path id="Trazado_1034758" data-name="Trazado 1034758" d="M98.227,218.978a.828.828,0,0,0,.089,0,.816.816,0,0,0,.81-.728,14.078,14.078,0,0,0,.082-1.513,14.241,14.241,0,0,0-.091-1.6.816.816,0,0,0-1.621.184,12.586,12.586,0,0,1,.081,1.416,12.436,12.436,0,0,1-.072,1.337A.816.816,0,0,0,98.227,218.978Z" transform="translate(-86.884 -191.091)"/>
        <path id="Trazado_1034759" data-name="Trazado 1034759" d="M44.758,73.605a.816.816,0,0,0,.015-1.632c-.425,0-.856-.025-1.284-.062a1.574,1.574,0,0,0-1.6,1.01l-1.71,4.55a1.558,1.558,0,0,0,.609,1.863,12.429,12.429,0,0,1,1.007.733A.816.816,0,0,0,42.821,78.8c-.351-.284-.72-.553-1.1-.8L43.4,73.542C43.851,73.58,44.307,73.6,44.758,73.605Z" transform="translate(-35.717 -64.083)"/>
        <path id="Trazado_1034760" data-name="Trazado 1034760" d="M166.457,37.106a.816.816,0,0,0-.816-.816h-.851a1.572,1.572,0,0,0-.975.339,16.792,16.792,0,0,1-1.561,1.1.816.816,0,1,0,.862,1.386,18.435,18.435,0,0,0,1.695-1.193h.83A.816.816,0,0,0,166.457,37.106Z" transform="translate(-144.259 -32.342)"/>
        <path id="Trazado_1034761" data-name="Trazado 1034761" d="M112.182,63.142a.816.816,0,0,0-1.048-.483,16.589,16.589,0,0,1-2.585.723.816.816,0,1,0,.31,1.6,18.226,18.226,0,0,0,2.84-.794A.816.816,0,0,0,112.182,63.142Z" transform="translate(-96.151 -55.797)"/>
        <path id="Trazado_1034762" data-name="Trazado 1034762" d="M323.3,162.35a.815.815,0,0,0,1.066-.442,12.442,12.442,0,0,1,1.326-2.412.816.816,0,0,0-1.334-.94,14.071,14.071,0,0,0-1.5,2.729A.816.816,0,0,0,323.3,162.35Z" transform="translate(-287.68 -140.998)"/>
        <path id="Trazado_1034763" data-name="Trazado 1034763" d="M313.69,215.143a14.041,14.041,0,0,0-.009,3.113.816.816,0,0,0,.81.728.844.844,0,0,0,.089,0,.816.816,0,0,0,.723-.9,12.414,12.414,0,0,1,.008-2.753.816.816,0,1,0-1.621-.184Z" transform="translate(-279.482 -191.092)"/>
        <path id="Trazado_1034764" data-name="Trazado 1034764" d="M338.85,79.95a.816.816,0,0,0,1.147.121A12.4,12.4,0,0,1,341,79.338a1.559,1.559,0,0,0,.609-1.863l-1.71-4.55a1.576,1.576,0,0,0-1.6-1.01c-.425.037-.857.057-1.281.061a.816.816,0,0,0,.007,1.632h.008c.451,0,.908-.026,1.358-.063L340.067,78c-.376.248-.745.518-1.1.8A.816.816,0,0,0,338.85,79.95Z" transform="translate(-299.634 -64.086)"/>
        <path id="Trazado_1034765" data-name="Trazado 1034765" d="M227.043,37.73a16.787,16.787,0,0,1-1.561-1.1,1.573,1.573,0,0,0-.976-.339h-.851a.816.816,0,1,0,0,1.632h.83a18.435,18.435,0,0,0,1.695,1.193.816.816,0,0,0,.862-1.386Z" transform="translate(-198.597 -32.342)"/>
        <path id="Trazado_1034766" data-name="Trazado 1034766" d="M282.74,63.381a16.64,16.64,0,0,1-2.585-.723.816.816,0,1,0-.565,1.531,18.254,18.254,0,0,0,2.839.794.816.816,0,0,0,.31-1.6Z" transform="translate(-248.698 -55.796)"/>
        <path id="Trazado_1034767" data-name="Trazado 1034767" d="M186.042,78.594a3.344,3.344,0,1,0-3.344-3.344A3.348,3.348,0,0,0,186.042,78.594Zm0-5.057a1.713,1.713,0,1,1-1.713,1.713A1.715,1.715,0,0,1,186.042,73.537Z" transform="translate(-162.822 -64.082)"/>
        <path id="Trazado_1034768" data-name="Trazado 1034768" d="M40.681,140.924H21.875a1.352,1.352,0,0,1-1.35-1.35V119.408a1.352,1.352,0,0,1,1.35-1.351H26.9a.816.816,0,1,0,0-1.632H21.875a2.986,2.986,0,0,0-2.982,2.983v11.076c-.442-.234-.893-.451-1.35-.646a.816.816,0,1,0-.64,1.5,16.574,16.574,0,0,1,1.99,1.014v2.506a16.563,16.563,0,0,0-9.259-2.842H5.174a.227.227,0,0,1-.211-.141l-3.278-8.119a.226.226,0,0,1,.117-.291,12.064,12.064,0,0,0,7.117-10.99,12.055,12.055,0,0,0-7.154-11.007.225.225,0,0,1-.117-.286l.986-2.621a.816.816,0,0,0-1.527-.574l-.985,2.62a1.858,1.858,0,0,0,.981,2.353,10.422,10.422,0,0,1,6.185,9.516,10.43,10.43,0,0,1-6.154,9.5,1.854,1.854,0,0,0-.962,2.39l3.279,8.122a1.853,1.853,0,0,0,1.723,1.161h4.46a14.92,14.92,0,0,1,9.259,3.233v2.693a2.985,2.985,0,0,0,2.982,2.982H40.681a.816.816,0,1,0,0-1.632Z" transform="translate(-0.001 -86.855)"/>
        <path id="Trazado_1034769" data-name="Trazado 1034769" d="M206.657,450.515h1.456a.816.816,0,0,0,0-1.632h-1.421v-1.421a.816.816,0,0,0-1.632,0v1.456A1.6,1.6,0,0,0,206.657,450.515Z" transform="translate(-182.752 -398.055)"/>
        <path id="Trazado_1034770" data-name="Trazado 1034770" d="M205.876,353.207a.816.816,0,0,0,.816-.816v-2.355a.816.816,0,0,0-1.632,0v2.355A.816.816,0,0,0,205.876,353.207Z" transform="translate(-182.751 -311.228)"/>
        <path id="Trazado_1034771" data-name="Trazado 1034771" d="M205.06,401.1a.816.816,0,0,0,1.632,0v-2.355a.816.816,0,1,0-1.632,0Z" transform="translate(-182.751 -354.639)"/>
        <path id="Trazado_1034772" data-name="Trazado 1034772" d="M208.114,301.6h-1.456a1.6,1.6,0,0,0-1.6,1.6v1.456a.816.816,0,0,0,1.632,0v-1.421h1.421a.816.816,0,1,0,0-1.632Z" transform="translate(-182.752 -268.788)"/>
        <path id="Trazado_1034773" data-name="Trazado 1034773" d="M315.1,303.232h2.754a.816.816,0,1,0,0-1.632H315.1a.816.816,0,1,0,0,1.632Z" transform="translate(-280.089 -268.788)"/>
        <path id="Trazado_1034774" data-name="Trazado 1034774" d="M260.852,301.6H258.1a.816.816,0,0,0,0,1.632h2.756a.816.816,0,0,0,0-1.632Z" transform="translate(-229.29 -268.788)"/>
        <path id="Trazado_1034775" data-name="Trazado 1034775" d="M372.085,303.232h2.756a.816.816,0,0,0,0-1.632h-2.756a.816.816,0,1,0,0,1.632Z" transform="translate(-330.878 -268.788)"/>
        <path id="Trazado_1034776" data-name="Trazado 1034776" d="M260.852,467.2H258.1a.816.816,0,0,0,0,1.632h2.756a.816.816,0,1,0,0-1.632Z" transform="translate(-229.29 -416.373)"/>
        <path id="Trazado_1034777" data-name="Trazado 1034777" d="M315.1,468.832h2.754a.816.816,0,1,0,0-1.632H315.1a.816.816,0,1,0,0,1.632Z" transform="translate(-280.089 -416.373)"/>
        <path id="Trazado_1034778" data-name="Trazado 1034778" d="M374.841,468.832a.816.816,0,0,0,0-1.632h-2.756a.816.816,0,1,0,0,1.632Z" transform="translate(-330.878 -416.373)"/>
        <path id="Trazado_1034779" data-name="Trazado 1034779" d="M298.762,66.517v-4.4a2.986,2.986,0,0,0-2.982-2.983H284.816a10.419,10.419,0,0,1,5.41-13.466,1.86,1.86,0,0,0,.983-2.351L287.934,34.6a1.855,1.855,0,0,0-2.105-1.168,14.94,14.94,0,0,1-6.846-.234.816.816,0,0,0-.429,1.574,16.513,16.513,0,0,0,7.6.26.227.227,0,0,1,.258.143l3.275,8.712a.226.226,0,0,1-.118.286,12.054,12.054,0,0,0-6.491,14.957H275.6a.816.816,0,0,0,0,1.632H295.78a1.352,1.352,0,0,1,1.35,1.351v4.374h-1.784V63.967a1.6,1.6,0,0,0-1.6-1.6h-1.457a.816.816,0,0,0,0,1.632h1.421v2.483h-6.687a2.178,2.178,0,0,0-2.175,2.175v7.068a2.178,2.178,0,0,0,2.175,2.175h6.687v2.483h-1.406l-.044-.005A.816.816,0,0,0,292.046,82a2.034,2.034,0,0,0,.247.02h1.457a1.6,1.6,0,0,0,1.6-1.6V77.9h1.784v4.375a1.352,1.352,0,0,1-1.35,1.35h-6.406a.816.816,0,1,0,0,1.632h6.406a2.985,2.985,0,0,0,2.982-2.982V77.874a2.177,2.177,0,0,0,1.826-2.144V68.662A2.177,2.177,0,0,0,298.762,66.517Zm.194,9.212a.544.544,0,0,1-.543.543H287.027a.544.544,0,0,1-.543-.543V68.662a.544.544,0,0,1,.543-.543h11.386a.544.544,0,0,1,.543.543v7.068Z" transform="translate(-244.886 -29.56)"/>
        <path id="Trazado_1034780" data-name="Trazado 1034780" d="M406.4,369.489a2.438,2.438,0,1,0,2.438,2.438A2.441,2.441,0,0,0,406.4,369.489Zm0,3.245a.806.806,0,1,1,.806-.806A.807.807,0,0,1,406.4,372.734Z" transform="translate(-360.015 -329.292)"/>
      </g>
    </g>
  </g>
</svg>
