<svg xmlns="http://www.w3.org/2000/svg" xmlns:xlink="http://www.w3.org/1999/xlink" width="116" height="116" viewBox="0 0 116 116">
  <defs>
    <filter id="Rect치ngulo_405216" x="0" y="0" width="116" height="116" filterUnits="userSpaceOnUse">
      <feOffset dx="6" dy="7" input="SourceAlpha"/>
      <feGaussianBlur stdDeviation="4" result="blur"/>
      <feFlood flood-opacity="0.251"/>
      <feComposite operator="in" in2="blur"/>
      <feComposite in="SourceGraphic"/>
    </filter>
  </defs>
  <g id="Grupo_1178415" data-name="Grupo 1178415" transform="translate(-905.051 -3073)">
    <g transform="matrix(1, 0, 0, 1, 905.05, 3073)" filter="url(#Rect치ngulo_405216)">
      <g id="Rect치ngulo_405216-2" data-name="Rect치ngulo 405216" transform="translate(6 5)" fill="#e0ee33" stroke="#fff" stroke-width="3">
        <path d="M0,0H63A29,29,0,0,1,92,29V63A29,29,0,0,1,63,92H29A29,29,0,0,1,0,63V0A0,0,0,0,1,0,0Z" stroke="none"/>
        <path d="M1.5,1.5H63A27.5,27.5,0,0,1,90.5,29V63A27.5,27.5,0,0,1,63,90.5H29A27.5,27.5,0,0,1,1.5,63V1.5A0,0,0,0,1,1.5,1.5Z" fill="none"/>
      </g>
    </g>
    <g id="shoe_1057501" transform="translate(924.051 2975.271)">
      <path id="Trazado_1033558" data-name="Trazado 1033558" d="M70.809,146.137a3.256,3.256,0,0,0,.989-3.9,3.469,3.469,0,0,0-4.5-1.731,27.633,27.633,0,0,1-20.483.274,3.464,3.464,0,0,0-4.454,1.85h0v0a3.752,3.752,0,0,0-4.026.94,26.49,26.49,0,0,1-19.277,8.24H16.637A9,9,0,0,0,7.5,160.671v1.265a3.857,3.857,0,0,0,3.916,3.8H70.458a28.508,28.508,0,0,0,.351-19.594Z" transform="translate(-6.551 -6.557)" fill="#ce795f"/>
      <path id="Trazado_1033559" data-name="Trazado 1033559" d="M71.247,163.968a29.16,29.16,0,0,0,1.125-7.656,32.452,32.452,0,0,0-1.564-9.981,3.429,3.429,0,0,0-3.516-5.813c-.15.065-.3.127-.452.189A2.756,2.756,0,0,1,65.1,144.44a29.339,29.339,0,0,1-19.378-.909l-3.148-1.261a3.445,3.445,0,0,0-.215.442h0l-.035-.014a3.526,3.526,0,0,0-3.926.914A26.1,26.1,0,0,1,22.967,151.9v3.957a30.152,30.152,0,0,0,9.51-2.913,29.49,29.49,0,0,0,9.809-7.877,3.42,3.42,0,0,0,1.979,2.1,33.475,33.475,0,0,0,22.927.714,28.453,28.453,0,0,1,1.265,8.427v.035a3.715,3.715,0,0,1-3.724,3.688h-7.49l-22.881,2.613H7.5a3.918,3.918,0,0,0,3.915,3.92H9.458a1.959,1.959,0,0,0-1.958,1.96h0a1.959,1.959,0,0,0,1.958,1.96H34.584l22.511-2.613h0a2.612,2.612,0,0,0,2.611,2.613h9.763a2.612,2.612,0,0,0,2.611-2.613v-2.94A.979.979,0,0,0,71.247,163.968Z" transform="translate(-6.551 -6.557)" fill="#a05a4b"/>
      <path id="Trazado_1033560" data-name="Trazado 1033560" d="M66.066,156.586a33.53,33.53,0,0,0-.723-16.509,4.4,4.4,0,0,0-5.015-6.986,25.874,25.874,0,0,1-10.19,2.092,25.518,25.518,0,0,1-9.523-1.819,4.364,4.364,0,0,0-1.63-.316h-.007a4.385,4.385,0,0,0-3.669,1.979,4.6,4.6,0,0,0-4.218,1.425q-.229.252-.465.5l-.049-.053a.978.978,0,0,0-1.437,1.327l.077.083a25.072,25.072,0,0,1-3.11,2.361l-.192-.4a.978.978,0,1,0-1.764.845l.264.552a25.215,25.215,0,0,1-3.623,1.595.977.977,0,0,0-1.954.04v.555a25.042,25.042,0,0,1-6.32.813H10.107A10.118,10.118,0,0,0,0,154.773v1.3a4.865,4.865,0,0,0,.981,2.934h0A.98.98,0,0,0,0,159.99V163.9a.98.98,0,0,0,.978.978h27.06l.112-.007,21.4-2.483V163.9a.979.979,0,0,0,.978.978H65.5a.98.98,0,0,0,.978-.978v-6.348c0-.646-.111-.689-.29-.866A.982.982,0,0,0,66.066,156.586ZM32.539,137.769a2.641,2.641,0,0,1,2.074-.859,4.29,4.29,0,0,0-.034.539,4.381,4.381,0,0,0,.081.833c-.418.489-.878,1-1.387,1.533l-1.318-1.426C32.153,138.185,32.348,137.979,32.539,137.769Zm-1.994,1.975,1.325,1.434a27.617,27.617,0,0,1-4.059,3.048l-.854-1.783A27.028,27.028,0,0,0,30.545,139.744ZM26.108,145.2A28.767,28.767,0,0,1,20.8,147.37v-2.049a27.179,27.179,0,0,0,4.466-1.892Zm38.413,17.725H51.507v-1.631a.98.98,0,0,0-1.092-.972l-22.434,2.6H1.956v-1.956H28.038l.107-.007,22.81-2.5,10.025-.072a.978.978,0,0,0-.007-1.956l-10.082.072-.1.007-22.807,2.5H4.89a2.938,2.938,0,0,1-2.934-2.934v-1.3a8.16,8.16,0,0,1,8.151-8.151h2.413a27.187,27.187,0,0,0,6.32-.752v2.007q-1.124.25-2.272.414a.979.979,0,0,0-1.114.969v.036a.978.978,0,0,0,1.107.969q1.143-.151,2.278-.389v.893a.978.978,0,0,0,1.956,0V149.4a30.641,30.641,0,0,0,6.158-2.44l.589,1.23a.978.978,0,0,0,1.764-.845L28.661,146a29.149,29.149,0,0,0,4.535-3.387l1.161,1.256a.978.978,0,0,0,1.437-1.327l-1.191-1.29q.481-.5.961-1.032a3.723,3.723,0,0,0,2.146,1.386.979.979,0,0,0,.364-1.887,2.444,2.444,0,0,1-1.365-3.172l0-.006,0-.007a2.446,2.446,0,0,1,3.176-1.355,27.818,27.818,0,0,0,21.215-.292,2.445,2.445,0,1,1,1.94,4.489,32.51,32.51,0,0,1-21.372,1.547.978.978,0,0,0-.51,1.888,34.449,34.449,0,0,0,22.483-1.566,31.432,31.432,0,0,1,1.167,8.508,33.752,33.752,0,0,1-.9,7.529.979.979,0,0,0,.608,1.012v4.631Z" transform="translate(0 0)"/>
    </g>
  </g>
</svg>
