<svg xmlns="http://www.w3.org/2000/svg" xmlns:xlink="http://www.w3.org/1999/xlink" width="116" height="116" viewBox="0 0 116 116">
  <defs>
    <filter id="Rect치ngulo_401369" x="0" y="0" width="116" height="116" filterUnits="userSpaceOnUse">
      <feOffset dx="6" dy="7" input="SourceAlpha"/>
      <feGaussianBlur stdDeviation="4" result="blur"/>
      <feFlood flood-opacity="0.251"/>
      <feComposite operator="in" in2="blur"/>
      <feComposite in="SourceGraphic"/>
    </filter>
  </defs>
  <g id="Grupo_1178436" data-name="Grupo 1178436" transform="translate(-3800 8996)">
    <g transform="matrix(1, 0, 0, 1, 3800, -8996)" filter="url(#Rect치ngulo_401369)">
      <g id="Rect치ngulo_401369-2" data-name="Rect치ngulo 401369" transform="translate(6 5)" fill="#e0ee33" stroke="#fff" stroke-width="3">
        <path d="M0,0H63A29,29,0,0,1,92,29V63A29,29,0,0,1,63,92H29A29,29,0,0,1,0,63V0A0,0,0,0,1,0,0Z" stroke="none"/>
        <path d="M1.5,1.5H63A27.5,27.5,0,0,1,90.5,29V63A27.5,27.5,0,0,1,63,90.5H29A27.5,27.5,0,0,1,1.5,63V1.5A0,0,0,0,1,1.5,1.5Z" fill="none"/>
      </g>
    </g>
    <g id="Grupo_1178435" data-name="Grupo 1178435" transform="translate(3820 -8999.479)">
      <path id="Trazado_1034804" data-name="Trazado 1034804" d="M7.5,135.577,12.534,155h0a13.907,13.907,0,0,1,.542,3.837l.9,18.4a1.759,1.759,0,0,0,1.757,1.673h0a1.875,1.875,0,0,0,1.874-1.816l.679-21.51c0-1.3,1.448-3.382,4.4.1C17.151,145.111,7.5,135.577,7.5,135.577Z" transform="translate(-6.554 -96.208)" fill="#656566"/>
      <path id="Trazado_1034805" data-name="Trazado 1034805" d="M15.744,177.235c-.065-17.965.524-18.9-.433-22.237h0l-3.959-15.271c-2.262-2.577-3.854-4.15-3.854-4.15L12.534,155h0c.649,2.261.38,1.709,1.442,22.237a1.775,1.775,0,0,0,2.657,1.442A1.756,1.756,0,0,1,15.744,177.235Z" transform="translate(-6.554 -96.208)" fill="#545456"/>
      <path id="Trazado_1034806" data-name="Trazado 1034806" d="M69.775,85.289a54.454,54.454,0,0,0-13.7-11.178,4.776,4.776,0,0,0-5.01.23,12.427,12.427,0,0,1-6.853,2.01c-6.934,0-9.925-7.886-9.925-7.886L19.337,35.233c-1.616-3.593-4.67-1.877-4.673-1.875A14.1,14.1,0,0,0,7.5,45.9s13.352,14.78,17.839,25.589c1.8,4.342,3.309,8.058,4.823,10.951h0s3.446,6.791,10.184,6.791H67.67A2.532,2.532,0,0,0,69.775,85.289Z" transform="translate(-6.554 -6.526)" fill="#d06739"/>
      <path id="Trazado_1034807" data-name="Trazado 1034807" d="M33.743,82.3c-1.514-2.952-3.02-6.742-4.823-11.172-3.2-7.869-10.918-17.8-15.075-22.844a9.4,9.4,0,0,1-1.021-10.473,14.677,14.677,0,0,1,4.227-4.775,3.586,3.586,0,0,0-2.387.324A14.1,14.1,0,0,0,7.5,45.9s13.352,14.78,17.839,25.589c1.8,4.342,3.309,8.058,4.823,10.951,0,0,3.446,6.791,10.184,6.791h3.581C37.188,89.227,33.743,82.3,33.743,82.3Z" transform="translate(-6.554 -6.527)" fill="#d8553a"/>
      <path id="Trazado_1034808" data-name="Trazado 1034808" d="M157.455,139.242a5.69,5.69,0,0,0-6,.271,11.526,11.526,0,0,1-6.323,1.847,8.681,8.681,0,0,1-6.8-3.556c-1.915-2.321-1.276-1.748-13.532-28.821a.946.946,0,0,0-1.726.777l11.257,25.026a16.832,16.832,0,0,0,2.5,4.177,10.635,10.635,0,0,0,8.295,4.29,13.274,13.274,0,0,0,7.384-2.173,3.807,3.807,0,0,1,4.017-.188,54.094,54.094,0,0,1,13.4,10.917,1.585,1.585,0,0,1-1.344,2.426h-6.576a.946.946,0,0,0,0,1.893h6.576a3.48,3.48,0,0,0,2.893-5.408A54.446,54.446,0,0,0,157.455,139.242Z" transform="translate(-107.472 -72.482)"/>
      <path id="Trazado_1034809" data-name="Trazado 1034809" d="M50.124,81.754H33.792c-6.062,0-9.309-6.212-9.346-6.284-1.5-2.857-3.052-6.688-4.787-10.875C15.446,54.446,3.8,41.152,1.9,39.012A13.108,13.108,0,0,1,8.577,27.655a2.576,2.576,0,0,1,1.829-.189,2.767,2.767,0,0,1,1.514,1.629l1.865,4.145a.946.946,0,0,0,1.726-.777l-1.865-4.145a4.542,4.542,0,0,0-2.658-2.653,4.368,4.368,0,0,0-3.364.355A15.005,15.005,0,0,0,0,39.369c0,.025,0,.05,0,.075a.983.983,0,0,0,.027.162C6.02,62.724,5.444,59.939,5.576,62.674l.078,1.59a.946.946,0,1,0,1.89-.092L7.467,62.6c0-3.013-.61-3.764-4.588-19.551a148.656,148.656,0,0,1,10.231,13.56,2.6,2.6,0,0,0-2.325,2.746l-.678,21.5a.925.925,0,0,1-.928.9.812.812,0,0,1-.812-.773L7.76,68.587a.946.946,0,0,0-1.89.092l.606,12.394a2.7,2.7,0,0,0,2.7,2.573A2.809,2.809,0,0,0,12,80.914c.707-22.417.679-21.513.679-21.54a.98.98,0,0,1,.4-.848c.247-.09.975.129,2.151,1.5,3.264,5.6,4.473,10.457,7.538,16.313.151.3,3.792,7.309,11.028,7.309H50.124a.946.946,0,1,0,0-1.893Z"/>
    </g>
  </g>
</svg>
