<svg xmlns="http://www.w3.org/2000/svg" xmlns:xlink="http://www.w3.org/1999/xlink" width="116" height="116" viewBox="0 0 116 116">
  <defs>
    <filter id="Rect치ngulo_401369" x="0" y="0" width="116" height="116" filterUnits="userSpaceOnUse">
      <feOffset dx="6" dy="7" input="SourceAlpha"/>
      <feGaussianBlur stdDeviation="4" result="blur"/>
      <feFlood flood-opacity="0.251"/>
      <feComposite operator="in" in2="blur"/>
      <feComposite in="SourceGraphic"/>
    </filter>
  </defs>
  <g id="Grupo_1178411" data-name="Grupo 1178411" transform="translate(-748.051 -3721)">
    <g transform="matrix(1, 0, 0, 1, 748.05, 3721)" filter="url(#Rect치ngulo_401369)">
      <g id="Rect치ngulo_401369-2" data-name="Rect치ngulo 401369" transform="translate(6 5)" fill="#e0ee33" stroke="#fff" stroke-width="3">
        <path d="M0,0H63A29,29,0,0,1,92,29V63A29,29,0,0,1,63,92H29A29,29,0,0,1,0,63V0A0,0,0,0,1,0,0Z" stroke="none"/>
        <path d="M1.5,1.5H63A27.5,27.5,0,0,1,90.5,29V63A27.5,27.5,0,0,1,63,90.5H29A27.5,27.5,0,0,1,1.5,63V1.5A0,0,0,0,1,1.5,1.5Z" fill="none"/>
      </g>
    </g>
    <g id="_03-shoes" data-name="03-shoes" transform="translate(768.051 3748)">
      <path id="Trazado_1033519" data-name="Trazado 1033519" d="M44.61,13S35.07,12.2,33,14.16c.11.03.23.06.34.1A26.174,26.174,0,0,0,42.61,16c7,0,5-3,10-3l-4-4S44.61,9,44.61,13Z" transform="translate(-21.61 -7.997)" fill="#edd7c0"/>
      <path id="Trazado_1033520" data-name="Trazado 1033520" d="M48,28v5h7S55,28,48,28Z" transform="translate(-39 -7.998)" fill="#ded8ca"/>
      <path id="Trazado_1033521" data-name="Trazado 1033521" d="M1,23.76V26a3.655,3.655,0,0,0,.13.99A3.037,3.037,0,0,0,4,29H15c0-2-5-5-11-5a19.246,19.246,0,0,1-3-.24Z" transform="translate(48 -7.998)" fill="#c6c2b6"/>
      <path id="Trazado_1033522" data-name="Trazado 1033522" d="M17.32,17.55,14.87,20c0,4,12,7,15,7l.13-.01a3.655,3.655,0,0,1-.13-.99V23.76C24.98,23.04,19.97,20.64,17.32,17.55Z" transform="translate(19.13 -7.997)" fill="#ded8ca"/>
      <path id="Trazado_1033523" data-name="Trazado 1033523" d="M1,33v4H14a2.849,2.849,0,0,1,4,0H55V33Z" transform="translate(8 -7.998)" fill="#e3cdb6"/>
      <path id="Trazado_1033524" data-name="Trazado 1033524" d="M3.39,14.16A2,2,0,0,0,1,16.12V28c7,0,7,5,7,5H55V29H44a3.037,3.037,0,0,1-2.87-2.01L41,27c-3,0-15-3-15-7l2.45-2.45c-.16-.18-.31-.36-.45-.55-3-4-5-4-5-4-5,0-3,3-10,3a26.174,26.174,0,0,1-9.27-1.74C3.62,14.22,3.5,14.19,3.39,14.16Z" transform="translate(8 -7.997)" fill="#e2ac62"/>
      <path id="Trazado_1033525" data-name="Trazado 1033525" d="M32.355,14.16c.11.03.23.06.34.1A26.174,26.174,0,0,0,41.965,16c7,0,5-3,10-3,0,0,1.16.005,3.035,1.767A8.027,8.027,0,0,0,50.965,16c-3,2-15,4-21,1v-.88a2,2,0,0,1,2.39-1.96Z" transform="translate(-20.965 -7.997)" fill="#967d66"/>
      <path id="Trazado_1033526" data-name="Trazado 1033526" d="M55,33v4H51V33Z" transform="translate(-42 -7.998)" fill="#e3cdb6"/>
      <path id="Trazado_1033527" data-name="Trazado 1033527" d="M55,18.2V28.763A9.358,9.358,0,0,0,51,28V17a14.114,14.114,0,0,0,4,1.2Z" transform="translate(-42 -7.997)" fill="#ffc26f"/>
      <path id="Trazado_1033528" data-name="Trazado 1033528" d="M52.933,14.16c.11.03.23.06.34.1.513.2,1.093.4,1.727.592a1.959,1.959,0,0,0-.457,1.268V18.2a14.114,14.114,0,0,1-4-1.2v-.88a2,2,0,0,1,2.39-1.96Z" transform="translate(-41.543 -7.997)" fill="#ab8e74"/>
      <path id="Trazado_1033529" data-name="Trazado 1033529" d="M1,25V23.76A19.246,19.246,0,0,0,4,24c6,0,11,3,11,5H13.6A20.949,20.949,0,0,0,1,25Z" transform="translate(48 -7.998)" fill="#e3ded1"/>
      <path id="Trazado_1033530" data-name="Trazado 1033530" d="M26.561,24.76A22.589,22.589,0,0,1,15,19.56l2.011-2.01c2.65,3.09,7.66,5.49,12.55,6.21V25a19.246,19.246,0,0,1-3-.24Z" transform="translate(19.439 -7.997)" fill="#fff8e8"/>
      <path id="Trazado_1033531" data-name="Trazado 1033531" d="M33.617,18.55c-.16-.18-.31-.36-.45-.55-3-4-5-4-5-4-.224,0-.42.013-.617.024A5.417,5.417,0,0,1,31.167,13s2,0,5,4c.14.19.29.37.45.55l-2.011,2.011a12.514,12.514,0,0,1-.989-1.011Z" transform="translate(-0.167 -7.997)" fill="#968364"/>
      <path id="Trazado_1033532" data-name="Trazado 1033532" d="M1,25.833c3.546.859,7.053,2.244,10.589,3.182a70.809,70.809,0,0,0,11.826,1.873c5.468.493,10.955.741,16.44.988A105.94,105.94,0,0,0,51,31.793V33H4a4.966,4.966,0,0,0-3-4.237Z" transform="translate(12 -7.998)" fill="#d69656"/>
      <path id="Trazado_1033533" data-name="Trazado 1033533" d="M50.163,14c-.591,1.772-7.863-.112-10.246-.782A43.1,43.1,0,0,1,49.163,13l1.083.812C50.22,13.876,50.185,13.933,50.163,14Z" transform="translate(-26.163 -7.997)" fill="#c9b6a2"/>
      <path id="Trazado_1033534" data-name="Trazado 1033534" d="M40.555,13.218c2.383.67,9.655,2.554,10.246.782.022-.067.057-.124.083-.188l1.726,1.3A9.83,9.83,0,0,1,47.8,16a26.174,26.174,0,0,1-9.27-1.74c-.11-.04-.23-.07-.34-.1A4.978,4.978,0,0,1,40.555,13.218Z" transform="translate(-26.801 -7.997)" fill="#b09f8d"/>
      <path id="Trazado_1033535" data-name="Trazado 1033535" d="M37.98,11.063,39.917,13c-3.194,0-3.539,1.223-5.191,2.107L33,13.812c.828-2.023,3.53-2.592,4.98-2.749Z" transform="translate(-8.917 -7.997)" fill="#b09f8d"/>
      <path id="Trazado_1033536" data-name="Trazado 1033536" d="M52.61,31S43.07,30.2,41,32.16c.11.03.23.06.34.1A26.174,26.174,0,0,0,50.61,34c7,0,5-3,10-3l-4-4S52.61,27,52.61,31Z" transform="translate(-37.61 -7.998)" fill="#c9b6a2"/>
      <path id="Trazado_1033537" data-name="Trazado 1033537" d="M56,46v5h7S63,46,56,46Z" transform="translate(-55 -7.998)" fill="#c6c2b6"/>
      <path id="Trazado_1033538" data-name="Trazado 1033538" d="M9,41.76V44a3.655,3.655,0,0,0,.13.99A3.037,3.037,0,0,0,12,47H23c0-2-5-5-11-5a19.246,19.246,0,0,1-3-.24Z" transform="translate(32 -7.998)" fill="#a6a395"/>
      <path id="Trazado_1033539" data-name="Trazado 1033539" d="M25.32,35.55,22.87,38c0,4,12,7,15,7l.13-.01a3.655,3.655,0,0,1-.13-.99V41.76C32.98,41.04,27.97,38.64,25.32,35.55Z" transform="translate(3.13 -7.998)" fill="#c6c2b6"/>
      <path id="Trazado_1033540" data-name="Trazado 1033540" d="M9,51v4H22a2.849,2.849,0,0,1,4,0H63V51Z" transform="translate(-8 -7.998)" fill="#c9b6a2"/>
      <path id="Trazado_1033541" data-name="Trazado 1033541" d="M11.39,32.16A2,2,0,0,0,9,34.12V46c7,0,7,5,7,5H63V47H52a3.037,3.037,0,0,1-2.87-2.01L49,45c-3,0-15-3-15-7l2.45-2.45c-.16-.18-.31-.36-.45-.55-3-4-5-4-5-4-5,0-3,3-10,3a26.174,26.174,0,0,1-9.27-1.74C11.62,32.22,11.5,32.19,11.39,32.16Z" transform="translate(-8 -7.998)" fill="#cf8a46"/>
      <path id="Trazado_1033542" data-name="Trazado 1033542" d="M40.355,32.16c.11.03.23.06.34.1A26.174,26.174,0,0,0,49.965,34c7,0,5-3,10-3,0,0,1.16,0,3.035,1.767A8.027,8.027,0,0,0,58.965,34c-3,2-15,4-21,1v-.88a2,2,0,0,1,2.39-1.96Z" transform="translate(-36.965 -7.998)" fill="#605041"/>
      <path id="Trazado_1033543" data-name="Trazado 1033543" d="M63,51H59V46a9.358,9.358,0,0,1,4,.763Z" transform="translate(-58 -7.998)" fill="#ded8ca"/>
      <path id="Trazado_1033544" data-name="Trazado 1033544" d="M63,51v4H59V51Z" transform="translate(-58 -7.998)" fill="#e3cdb6"/>
      <path id="Trazado_1033545" data-name="Trazado 1033545" d="M63,36.2V46.763A9.358,9.358,0,0,0,59,46V35a14.114,14.114,0,0,0,4,1.2Z" transform="translate(-58 -7.998)" fill="#d69656"/>
      <path id="Trazado_1033546" data-name="Trazado 1033546" d="M60.933,32.16c.11.03.23.06.34.1.513.2,1.093.4,1.727.592a1.959,1.959,0,0,0-.457,1.268V36.2a14.114,14.114,0,0,1-4-1.2v-.88a2,2,0,0,1,2.39-1.96Z" transform="translate(-57.543 -7.998)" fill="#967d66"/>
      <path id="Trazado_1033547" data-name="Trazado 1033547" d="M9,43V41.76A19.246,19.246,0,0,0,12,42c6,0,11,3,11,5H21.6A20.949,20.949,0,0,0,9,43Z" transform="translate(32 -7.998)" fill="#c6c2b6"/>
      <path id="Trazado_1033548" data-name="Trazado 1033548" d="M34.561,42.76A22.589,22.589,0,0,1,23,37.56l2.011-2.01c2.65,3.09,7.66,5.49,12.55,6.21V43A19.246,19.246,0,0,1,34.561,42.76Z" transform="translate(3.439 -7.998)" fill="#ded8ca"/>
      <path id="Trazado_1033549" data-name="Trazado 1033549" d="M41.617,36.55c-.16-.18-.31-.36-.45-.55-3-4-5-4-5-4-.224,0-.42.013-.617.024A5.417,5.417,0,0,1,39.167,31s2,0,5,4c.14.19.29.37.45.55l-2.011,2.011a12.513,12.513,0,0,1-.989-1.011Z" transform="translate(-16.167 -7.998)" fill="#7b6b52"/>
      <path id="Trazado_1033550" data-name="Trazado 1033550" d="M9,43.833c3.546.859,7.053,2.244,10.589,3.182a70.808,70.808,0,0,0,11.826,1.873c5.468.493,10.955.741,16.44.988A105.942,105.942,0,0,0,59,49.793V51H12a4.966,4.966,0,0,0-3-4.237Z" transform="translate(-4 -7.998)" fill="#ac6e47"/>
      <path id="Trazado_1033551" data-name="Trazado 1033551" d="M58.163,32c-.591,1.772-7.863-.112-10.246-.782A43.1,43.1,0,0,1,57.163,31l1.083.812C58.22,31.876,58.185,31.933,58.163,32Z" transform="translate(-42.163 -7.998)" fill="#ad9d8b"/>
      <path id="Trazado_1033552" data-name="Trazado 1033552" d="M48.555,31.218c2.383.67,9.655,2.554,10.246.782.022-.067.057-.124.083-.188l1.726,1.3A9.83,9.83,0,0,1,55.8,34a26.174,26.174,0,0,1-9.27-1.74c-.11-.04-.23-.07-.34-.1A4.978,4.978,0,0,1,48.555,31.218Z" transform="translate(-42.801 -7.998)" fill="#948677"/>
      <path id="Trazado_1033553" data-name="Trazado 1033553" d="M45.98,29.063,47.917,31c-3.194,0-3.539,1.223-5.191,2.107L41,31.812c.828-2.023,3.53-2.592,4.98-2.749Z" transform="translate(-24.917 -7.998)" fill="#948677"/>
      <path id="Trazado_1033554" data-name="Trazado 1033554" d="M9.295,31.659a3,3,0,0,1,1.777-.508c2.312-1.561,8.358-1.384,11.015-1.219A4.844,4.844,0,0,1,27,26a1,1,0,0,1,.707.293l3.767,3.766c.891.192,2.821,1,5.326,4.341C39.576,38.1,46.252,41,52,41c5.944,0,12,3.028,12,6v8a1,1,0,0,1-1,1H60V54h2V52H10v2H21.621a3.834,3.834,0,0,1,4.758,0H54v2H26a1,1,0,0,1-.707-.293,1.874,1.874,0,0,0-2.586,0A1,1,0,0,1,22,56H9a1,1,0,0,1-1-1V34.125a2.992,2.992,0,0,1,1.295-2.466Zm17.318-3.632A2.768,2.768,0,0,0,24,31a1,1,0,0,1-.323.736.984.984,0,0,1-.76.261,42.012,42.012,0,0,0-8.452.1A24.789,24.789,0,0,0,21,33c3.455,0,4.438-.753,5.39-1.482a6.241,6.241,0,0,1,2.442-1.272Zm9.815,8.959-1.372,1.373c.756,2.482,9.027,5.129,12.944,5.57V42.612a23.084,23.084,0,0,1-11.572-5.626ZM50,42.893V44a1.882,1.882,0,0,0,2,2h9.322A14.572,14.572,0,0,0,52,43C51.34,43,50.671,42.958,50,42.893ZM62,48H52a4.053,4.053,0,0,1-3.531-2.027C44.953,45.684,33,42.928,33,38a1,1,0,0,1,.293-.707l1.813-1.813C32.6,32.188,30.973,32,31,32a4.5,4.5,0,0,0-3.394,1.1C26.5,33.95,25.133,35,21,35a27.267,27.267,0,0,1-9.625-1.8,1.016,1.016,0,0,0-.947.109.978.978,0,0,0-.428.818V45.048C15.056,45.4,16.467,48.4,16.852,50H62Zm-52-.959V50h4.8C14.421,48.917,13.3,47.312,10,47.041Z" transform="translate(-8 -7.998)"/>
      <path id="Trazado_1033555" data-name="Trazado 1033555" d="M16,54H14v2h2Z" transform="translate(34 -7.998)"/>
      <path id="Trazado_1033556" data-name="Trazado 1033556" d="M32,32H30v2h2Z" transform="translate(2 -7.998)"/>
      <path id="Trazado_1033557" data-name="Trazado 1033557" d="M28,36H54V34H28V32H54V30H44a4.053,4.053,0,0,1-3.531-2.027C36.953,27.684,25,24.928,25,20a1,1,0,0,1,.293-.707l1.813-1.813C24.6,14.188,22.973,14,23,14a4.5,4.5,0,0,0-3.394,1.1C18.5,15.95,17.133,17,13,17a27.267,27.267,0,0,1-9.625-1.8,1.016,1.016,0,0,0-.947.109A.978.978,0,0,0,2,16.127V28H0V16.125a2.955,2.955,0,0,1,3.073-2.974c2.312-1.56,8.357-1.383,11.014-1.219A4.844,4.844,0,0,1,19,8a1,1,0,0,1,.707.293l3.767,3.766c.891.192,2.821,1,5.326,4.341C31.576,20.1,38.252,23,44,23c5.944,0,12,3.028,12,6v8a1,1,0,0,1-1,1H28ZM18.613,10.027A2.768,2.768,0,0,0,16,13a1,1,0,0,1-1.083,1,42.013,42.013,0,0,0-8.452.1A24.782,24.782,0,0,0,13,15c3.455,0,4.438-.753,5.39-1.482a6.241,6.241,0,0,1,2.442-1.272Zm9.815,8.959-1.372,1.373c.756,2.482,9.027,5.129,12.944,5.57V24.612a23.084,23.084,0,0,1-11.572-5.626ZM42,24.893V26a1.882,1.882,0,0,0,2,2h9.322A14.572,14.572,0,0,0,44,25C43.34,25,42.671,24.958,42,24.893Z" transform="translate(8 -7.997)"/>
    </g>
  </g>
</svg>
