<svg xmlns="http://www.w3.org/2000/svg" xmlns:xlink="http://www.w3.org/1999/xlink" width="116" height="116" viewBox="0 0 116 116">
  <defs>
    <filter id="Rect치ngulo_401369" x="0" y="0" width="116" height="116" filterUnits="userSpaceOnUse">
      <feOffset dx="6" dy="7" input="SourceAlpha"/>
      <feGaussianBlur stdDeviation="4" result="blur"/>
      <feFlood flood-opacity="0.251"/>
      <feComposite operator="in" in2="blur"/>
      <feComposite in="SourceGraphic"/>
    </filter>
  </defs>
  <g id="Grupo_1178434" data-name="Grupo 1178434" transform="translate(-3471 8996)">
    <g transform="matrix(1, 0, 0, 1, 3471, -8996)" filter="url(#Rect치ngulo_401369)">
      <g id="Rect치ngulo_401369-2" data-name="Rect치ngulo 401369" transform="translate(6 5)" fill="#e0ee33" stroke="#fff" stroke-width="3">
        <path d="M0,0H63A29,29,0,0,1,92,29V63A29,29,0,0,1,63,92H29A29,29,0,0,1,0,63V0A0,0,0,0,1,0,0Z" stroke="none"/>
        <path d="M1.5,1.5H63A27.5,27.5,0,0,1,90.5,29V63A27.5,27.5,0,0,1,63,90.5H29A27.5,27.5,0,0,1,1.5,63V1.5A0,0,0,0,1,1.5,1.5Z" fill="none"/>
      </g>
    </g>
    <g id="Grupo_1178433" data-name="Grupo 1178433" transform="translate(3490.001 -9114.701)">
      <path id="Trazado_1034787" data-name="Trazado 1034787" d="M36.986,302.3v5.356a.66.66,0,0,1-.66.66H22.338a1.32,1.32,0,0,1-1.32-1.32v-4.7Z" transform="translate(-18.239 -126.349)" fill="#aa5e33"/>
      <path id="Trazado_1034788" data-name="Trazado 1034788" d="M110.459,302.3v5.356a.66.66,0,0,1-.66.66h-4.111c2.807-1.767,2.378-5.048,2.178-6.016Z" transform="translate(-91.712 -126.349)" fill="#9d552e"/>
      <path id="Trazado_1034789" data-name="Trazado 1034789" d="M71.079,188.473H49.814a35.662,35.662,0,0,1-12.474-2.253l-.155-.058a35.676,35.676,0,0,0-12.479-2.253H9.286s-4.2-8.931.271-17.549a.66.66,0,0,1,.755-.335c2.165.578,11.031,2.521,19.649-1.694a1.327,1.327,0,0,1,1.513.236L35.8,168.8A47.312,47.312,0,0,0,57.94,181l13.69,3.255a2.07,2.07,0,0,1,1.591,2.014v.057A2.143,2.143,0,0,1,71.079,188.473Z" transform="translate(-6.507 -6.502)" fill="#d67f4f"/>
      <path id="Trazado_1034790" data-name="Trazado 1034790" d="M330.636,312.924v.057a2.143,2.143,0,0,1-2.143,2.143H307.229q-1.548,0-3.088-.135c16.644-.633,20.862-3.1,21.692-4.844l3.212.764A2.071,2.071,0,0,1,330.636,312.924Z" transform="translate(-263.922 -133.153)" fill="#c76d3d"/>
      <path id="Trazado_1034791" data-name="Trazado 1034791" d="M44.352,175.429l-2.482,3.492a.658.658,0,0,1-.67.263,11.124,11.124,0,0,0-12.14,4.989,35.77,35.77,0,0,0-4.353-.267H9.286s-4.2-8.931.272-17.55a.658.658,0,0,1,.754-.334c2.164.578,11.031,2.522,19.65-1.694a1.327,1.327,0,0,1,1.514.238L35.8,168.8a47.168,47.168,0,0,0,8.55,6.63Z" transform="translate(-6.507 -6.501)" fill="#fcd79f"/>
      <path id="Trazado_1034792" data-name="Trazado 1034792" d="M173.943,238.126l-2.482,3.492a.656.656,0,0,1-.67.263,11.122,11.122,0,0,0-12.138,4.989q-.9-.111-1.814-.176c1.873-5.55,6.608-6.355,10.909-7.358a4.916,4.916,0,0,0,3.617-2.893Q172.625,237.329,173.943,238.126Z" transform="translate(-136.098 -69.198)" fill="#fbcc85"/>
      <path id="Trazado_1034793" data-name="Trazado 1034793" d="M25.253,193.458v2.333q-.273,0-.546,0H9.286s-4.2-8.931.271-17.549a.662.662,0,0,1,.759-.334,28.74,28.74,0,0,0,4.141.754l-.384,2.3a3.028,3.028,0,0,0,1.908,3.328l4,1.527A8.187,8.187,0,0,1,25.253,193.458Z" transform="translate(-6.507 -18.38)" fill="#e09977"/>
      <path id="Trazado_1034794" data-name="Trazado 1034794" d="M98.666,242.227v2.333q-.274,0-.547,0H92.5c6.18-2.834,1.32-8.671-.4-10.472l1.3.495A8.188,8.188,0,0,1,98.666,242.227Z" transform="translate(-79.919 -67.15)" fill="#d67f4f"/>
      <path id="Trazado_1034795" data-name="Trazado 1034795" d="M221.98,292.35q-.147.034-.289.072a.992.992,0,1,0,.51,1.917q.111-.029.224-.055a.992.992,0,1,0-.444-1.933Z" transform="translate(-191.735 -117.689)"/>
      <path id="Trazado_1034796" data-name="Trazado 1034796" d="M279.509,281.425l-.151.212-.019.027a.992.992,0,0,0,1.632,1.127l0,0,.152-.214a.992.992,0,1,0-1.617-1.149Z" transform="translate(-242.255 -107.868)"/>
      <path id="Trazado_1034797" data-name="Trazado 1034797" d="M252.855,292.2a.992.992,0,1,0-.365,1.95l.24.047a.992.992,0,0,0,.4-1.942l-.279-.055Z" transform="translate(-218.399 -117.566)"/>
      <path id="Trazado_1034798" data-name="Trazado 1034798" d="M28.441,202.064a.992.992,0,0,0-1.983.035q0,.156.013.311a.992.992,0,0,0,.989.928l.065,0a.992.992,0,0,0,.926-1.054C28.446,202.21,28.443,202.137,28.441,202.064Z" transform="translate(-22.96 -38.519)"/>
      <path id="Trazado_1034799" data-name="Trazado 1034799" d="M37.943,230.929q.1.115.215.225a.992.992,0,0,0,1.4-1.4q-.077-.077-.15-.157a.992.992,0,0,0-1.467,1.335Z" transform="translate(-32.702 -62.972)"/>
      <path id="Trazado_1034800" data-name="Trazado 1034800" d="M111.164,283.534a.992.992,0,0,0,.974-1.182q-.03-.153-.067-.3a.992.992,0,0,0-1.927.472q.026.105.047.212A.992.992,0,0,0,111.164,283.534Z" transform="translate(-95.555 -108.115)"/>
      <path id="Trazado_1034801" data-name="Trazado 1034801" d="M64.969,246.267l.247.094a.992.992,0,0,0,.707-1.853l-.247-.094a.992.992,0,0,0-.707,1.854Z" transform="translate(-55.824 -76.057)"/>
      <path id="Trazado_1034802" data-name="Trazado 1034802" d="M93.254,258.218q.09.061.176.126a.992.992,0,1,0,1.193-1.585q-.125-.094-.255-.182a.992.992,0,1,0-1.114,1.641Z" transform="translate(-80.545 -86.52)"/>
      <path id="Trazado_1034803" data-name="Trazado 1034803" d="M65.353,176.792l-10.219-2.429a.992.992,0,0,0-.459,1.93l10.219,2.429a1.075,1.075,0,0,1,.829,1.049v.057a1.153,1.153,0,0,1-1.151,1.151H43.307a34.554,34.554,0,0,1-12.127-2.19l-.155-.058q-1.571-.587-3.178-1.025a.991.991,0,0,0-1.63-.936q-.111.1-.217.2a.988.988,0,0,0-.189.245q-.728-.155-1.461-.279a9.967,9.967,0,0,1,10.14-3.28A1.648,1.648,0,0,0,36.172,173l1.955-2.751q.582.337,1.172.659a.991.991,0,0,0,1.637.849,48.282,48.282,0,0,0,9.354,3.486.992.992,0,0,0,.5-1.921,46.4,46.4,0,0,1-17.23-8.586.992.992,0,0,0-1.5-1.241q-.539-.467-1.065-.95a.991.991,0,0,0-1.389-1.328l-1-.973a.991.991,0,0,0-1.4-1.37l-1.547-1.513a2.324,2.324,0,0,0-2.642-.418c-8.209,4.015-16.586,2.261-18.958,1.627a1.662,1.662,0,0,0-1.892.836,19.013,19.013,0,0,0-1.134,2.672.992.992,0,1,0,1.88.634,17.071,17.071,0,0,1,.9-2.157,29.417,29.417,0,0,0,2.989.586l-.213,1.275a4.031,4.031,0,0,0,2.533,4.418l4,1.527a7.234,7.234,0,0,1,4.631,6.722v1.337H13.223a.992.992,0,0,0,0,1.984h4.531v2.581H4.1a.328.328,0,0,1-.328-.328V178.4H8.727a.992.992,0,0,0,0-1.984H3.44a22.22,22.22,0,0,1-1.385-9.537.992.992,0,0,0-1.976-.17,23.9,23.9,0,0,0,1.708,10.909v3.034A2.314,2.314,0,0,0,4.1,182.963H18.086a1.654,1.654,0,0,0,1.652-1.652v-2.879a34.552,34.552,0,0,1,10.593,2.157l.155.058a36.533,36.533,0,0,0,12.82,2.315H64.572a3.138,3.138,0,0,0,3.135-3.135v-.057A3.051,3.051,0,0,0,65.353,176.792ZM13.831,166.5l-4-1.527a2.042,2.042,0,0,1-1.283-2.238l.23-1.377a28.97,28.97,0,0,0,15.117-2.64.337.337,0,0,1,.384.055l1.38,1.35-.874.707a.992.992,0,1,0,1.248,1.542l1.053-.853.964.943-.939.76a.992.992,0,1,0,1.248,1.542l1.132-.917q.5.462,1.006.909l-.836.677a.992.992,0,1,0,1.248,1.542l1.133-.917a48.351,48.351,0,0,0,4.389,3.151l-1.747,2.458a12.1,12.1,0,0,0-8.477,1.2,13.036,13.036,0,0,0-4.129,3.754q-1.163-.123-2.336-.173v-1.371a9.228,9.228,0,0,0-5.907-8.575Z" transform="translate(0)"/>
    </g>
  </g>
</svg>
