<svg xmlns="http://www.w3.org/2000/svg" xmlns:xlink="http://www.w3.org/1999/xlink" width="100" height="100" viewBox="0 0 100 100">
  <defs>
    <filter id="Rect치ngulo_405345" x="0" y="0" width="100" height="100" filterUnits="userSpaceOnUse">
      <feOffset dx="6" dy="7" input="SourceAlpha"/>
      <feGaussianBlur stdDeviation="4" result="blur"/>
      <feFlood flood-opacity="0.251"/>
      <feComposite operator="in" in2="blur"/>
      <feComposite in="SourceGraphic"/>
    </filter>
  </defs>
  <g id="Grupo_1178366" data-name="Grupo 1178366" transform="translate(-604.051 -3836)">
    <g transform="matrix(1, 0, 0, 1, 604.05, 3836)" filter="url(#Rect치ngulo_405345)">
      <g id="Rect치ngulo_405345-2" data-name="Rect치ngulo 405345" transform="translate(6 5)" fill="#cb98f5" stroke="#fff" stroke-width="3">
        <path d="M0,0H47A29,29,0,0,1,76,29V47A29,29,0,0,1,47,76H29A29,29,0,0,1,0,47V0A0,0,0,0,1,0,0Z" stroke="none"/>
        <path d="M1.5,1.5H47A27.5,27.5,0,0,1,74.5,29V47A27.5,27.5,0,0,1,47,74.5H29A27.5,27.5,0,0,1,1.5,47V1.5A0,0,0,0,1,1.5,1.5Z" fill="none"/>
      </g>
    </g>
    <g id="Grupo_1178112" data-name="Grupo 1178112" transform="translate(619.051 3836.134)">
      <g id="Grupo_1178110" data-name="Grupo 1178110" transform="translate(0.853 16.72)">
        <path id="Trazado_1034568" data-name="Trazado 1034568" d="M424.229,28.563v10.18a2.858,2.858,0,1,1-5.716,0V29.171l-4.627,1.6.878-5.352.551-.55a5.222,5.222,0,0,1,8.915,3.693Z" transform="translate(-367.478 -23.341)" fill="#f9f6f9"/>
        <path id="Trazado_1034569" data-name="Trazado 1034569" d="M421.719,24.1c-.562.748-1.172,2.211-1.172,5.034V41.48a2.859,2.859,0,0,1-2.034-2.736V29.171l-4.627,1.6.878-5.352.551-.55a5.227,5.227,0,0,1,6.4-.771Z" transform="translate(-367.478 -23.341)" fill="#dfeaef"/>
        <path id="Trazado_1034570" data-name="Trazado 1034570" d="M331.434,45.3l-3.75-3.75-12.1,6.1,3.22,6.535,6.535,3.22Z" transform="translate(-280.398 -39.475)" fill="#f6e266"/>
        <path id="Trazado_1034571" data-name="Trazado 1034571" d="M318.8,54.188l-3.22-6.535,12.1-6.1,1.367,1.367-9.913,8.288Z" transform="translate(-280.398 -39.475)" fill="#eab14d"/>
        <path id="Trazado_1034572" data-name="Trazado 1034572" d="M249.478,93.3l-9.748-9.748a5.034,5.034,0,0,0-7.119,0l-2.663,2.663,16.867,16.867,2.663-2.663A5.034,5.034,0,0,0,249.478,93.3Z" transform="translate(-204.544 -75.37)" fill="#f9f6f9"/>
        <path id="Trazado_1034573" data-name="Trazado 1034573" d="M244.085,87.907a5.034,5.034,0,0,0-7.119,0L234.3,90.57l-4.351-4.351,2.663-2.663a5.035,5.035,0,0,1,7.119,0Z" transform="translate(-204.548 -75.375)" fill="#dfeaef"/>
        <path id="Trazado_1034574" data-name="Trazado 1034574" d="M50.283,110.19,36.756,96.663a7.427,7.427,0,0,0-10.5,0L9.642,113.274a7.427,7.427,0,0,0,0,10.5L23.169,137.3a7.427,7.427,0,0,0,10.5,0l16.611-16.611A7.427,7.427,0,0,0,50.283,110.19Z" transform="translate(-7.467 -86.364)" fill="#da4a54"/>
        <path id="Trazado_1034575" data-name="Trazado 1034575" d="M15.352,129.488l-5.71-5.71a7.427,7.427,0,0,1,0-10.5L26.253,96.664a7.427,7.427,0,0,1,10.5,0l5.71,5.71a7.427,7.427,0,0,0-10.5,0L15.352,118.984A7.427,7.427,0,0,0,15.352,129.488Z" transform="translate(-7.467 -86.365)" fill="#c32430"/>
        <path id="Trazado_1034576" data-name="Trazado 1034576" d="M114.07,201.624l-5.246,5.246a6.026,6.026,0,0,1-8.522,0l-8.081-8.081a6.024,6.024,0,0,1,0-8.522l5.246-5.246a6.024,6.024,0,0,1,8.522,0l8.081,8.081A6.025,6.025,0,0,1,114.07,201.624Z" transform="translate(-80.98 -164.996)" fill="#f9f6f9"/>
        <path id="Trazado_1034577" data-name="Trazado 1034577" d="M103.073,183.408,90.608,195.872a6.02,6.02,0,0,1,1.614-5.605l5.246-5.246A6.019,6.019,0,0,1,103.073,183.408Z" transform="translate(-80.98 -164.996)" fill="#dfeaef"/>
      </g>
      <g id="Grupo_1178111" data-name="Grupo 1178111" transform="translate(0 15.866)">
        <path id="Trazado_1034578" data-name="Trazado 1034578" d="M108.058,195.586a6.891,6.891,0,0,0,0-9.734l-8.081-8.081a6.882,6.882,0,0,0-9.734,0L85,183.017a6.891,6.891,0,0,0,0,9.734l8.081,8.081a6.89,6.89,0,0,0,9.734,0ZM94.29,199.62l-8.081-8.081a5.176,5.176,0,0,1,0-7.311l5.245-5.245a5.17,5.17,0,0,1,7.311,0l8.081,8.081a5.176,5.176,0,0,1,0,7.311L101.6,199.62A5.176,5.176,0,0,1,94.29,199.62Z" transform="translate(-73.509 -157.499)"/>
        <path id="Trazado_1034579" data-name="Trazado 1034579" d="M56.68,17.644a6.086,6.086,0,0,0-8.6,0l-.453.453L42.7,20.583a.856.856,0,1,0,.771,1.53l4.5-2.269,2.875,2.874L45.558,33.209l-8.08-8.08,3.017-1.52a.856.856,0,0,0-.771-1.53L36.17,23.871a5.9,5.9,0,0,0-7.856.425l-.3.3a8.3,8.3,0,0,0-8.982,1.818L2.422,43.025a8.293,8.293,0,0,0,0,11.714L15.949,68.266a8.247,8.247,0,0,0,10.215,1.189.856.856,0,1,0-.9-1.456,6.542,6.542,0,0,1-8.1-.944L3.633,53.528a6.578,6.578,0,0,1,0-9.292l16.61-16.61a6.569,6.569,0,0,1,9.292,0L43.063,41.151a6.579,6.579,0,0,1,0,9.292l-15.4,15.4a.856.856,0,0,0,1.211,1.211l15.4-15.4a8.3,8.3,0,0,0,1.815-8.978l.3-.3a5.889,5.889,0,0,0,.425-7.856l4.215-8.365v5.97a3.714,3.714,0,1,0,7.428,0V21.942a6.038,6.038,0,0,0-1.78-4.3ZM45.239,41.1a8.288,8.288,0,0,0-.965-1.162L30.747,26.414a8.374,8.374,0,0,0-1.16-.966,4.175,4.175,0,0,1,5.846.059l9.748,9.748a4.175,4.175,0,0,1,.057,5.847Zm11.509-8.98a2,2,0,1,1-4,0V22.549h0a.856.856,0,0,0-.251-.606L49.351,18.8a4.365,4.365,0,0,1,7.4,3.141Z" transform="translate(0 -15.866)"/>
      </g>
    </g>
  </g>
</svg>
