<svg xmlns="http://www.w3.org/2000/svg" xmlns:xlink="http://www.w3.org/1999/xlink" width="116" height="116" viewBox="0 0 116 116">
  <defs>
    <filter id="Rect치ngulo_401369" x="0" y="0" width="116" height="116" filterUnits="userSpaceOnUse">
      <feOffset dx="6" dy="7" input="SourceAlpha"/>
      <feGaussianBlur stdDeviation="4" result="blur"/>
      <feFlood flood-opacity="0.251"/>
      <feComposite operator="in" in2="blur"/>
      <feComposite in="SourceGraphic"/>
    </filter>
  </defs>
  <g id="Grupo_1178432" data-name="Grupo 1178432" transform="translate(-3148 8996.116)">
    <g transform="matrix(1, 0, 0, 1, 3148, -8996.12)" filter="url(#Rect치ngulo_401369)">
      <g id="Rect치ngulo_401369-2" data-name="Rect치ngulo 401369" transform="translate(6 5)" fill="#e0ee33" stroke="#fff" stroke-width="3">
        <path d="M0,0H63A29,29,0,0,1,92,29V63A29,29,0,0,1,63,92H29A29,29,0,0,1,0,63V0A0,0,0,0,1,0,0Z" stroke="none"/>
        <path d="M1.5,1.5H63A27.5,27.5,0,0,1,90.5,29V63A27.5,27.5,0,0,1,63,90.5H29A27.5,27.5,0,0,1,1.5,63V1.5A0,0,0,0,1,1.5,1.5Z" fill="none"/>
      </g>
    </g>
    <g id="Grupo_1178431" data-name="Grupo 1178431" transform="translate(3157.995 -8975.576)">
      <g id="Grupo_1178429" data-name="Grupo 1178429" transform="translate(13.992 0.892)">
        <path id="Trazado_1034781" data-name="Trazado 1034781" d="M65.264,21.415l3.279-3.279a11.438,11.438,0,0,0-2.8-7.251A20.732,20.732,0,0,0,55.377,7.5a1.773,1.773,0,0,0-1.784,1.752c0,14.827-11.9,17.979-11.9,17.979-1-1.35-2.634-3.05-4.521-2.95a1.769,1.769,0,0,0-1.642,1.572l-1.614,13.71a14.277,14.277,0,0,1-3.768,8.1l-9.1,9.7a1.785,1.785,0,0,0-.021,2.419l2.044,2.2c4.016,0,14.422-5.385,22.419-13.3,7.9-7.815,13.148-20.64,19.777-27.269Z" transform="translate(-20.562 -7.5)" fill="#e3a76f"/>
        <path id="Trazado_1034782" data-name="Trazado 1034782" d="M88.975,42.271A11.515,11.515,0,0,0,84.3,35.949a10.7,10.7,0,0,1,1.609,6.061l-3.279,3.279C76,51.918,70.745,64.743,62.849,72.558c-8,7.916-18.489,12.966-21.229,14.49l2.72,2.932c2.511-1.427,13.23-6.514,21.365-14.567,7.9-7.815,13.148-20.64,19.777-27.269l4.683-4.683Z" transform="translate(-39.115 -32.564)" fill="#c48958"/>
        <path id="Trazado_1034783" data-name="Trazado 1034783" d="M98.222,87.153a.892.892,0,0,0-1.262,0l-4.683,4.683C85.648,98.465,80.4,111.29,72.5,119.1c-8.136,8.053-18.854,13.14-21.365,14.567a.891.891,0,0,0-.349,1.189l.4.76c1.753.647,15.568-6.782,23.31-14.524,7.549-7.549,12.25-18.169,15.472-20.359l1.071,1.071,6.043-4.879,4.879-6.043Z" transform="translate(-47.1 -77.445)" fill="#f3d69e"/>
        <g id="Grupo_1178428" data-name="Grupo 1178428" transform="translate(4.083 13.443)">
          <path id="Trazado_1034784" data-name="Trazado 1034784" d="M77.477,215.58c-7.742,7.742-17.893,12.628-22.6,15.238a1.785,1.785,0,0,0,2.485.712c3.327-1.949,13.614-6.962,21.356-14.7,7.549-7.549,11.2-16.339,14.941-20.89l-.868-.868a.416.416,0,0,0-.622.037C88.531,199.745,84.829,208.228,77.477,215.58Z" transform="translate(-54.881 -186.085)" fill="#edc472"/>
          <path id="Trazado_1034785" data-name="Trazado 1034785" d="M401.4,121.123l-.642-.642L389.837,131.4l.642.642a1.785,1.785,0,0,0,2.524,0l8.4-8.4A1.785,1.785,0,0,0,401.4,121.123Z" transform="translate(-349.984 -120.481)" fill="#edc472"/>
        </g>
      </g>
      <g id="Grupo_1178430" data-name="Grupo 1178430" transform="translate(13.105 0)">
        <path id="Trazado_1034786" data-name="Trazado 1034786" d="M19.663,60.919a2.7,2.7,0,0,1-.745-.106,2.652,2.652,0,0,1-1.633-1.332l-.4-.76a1.779,1.779,0,0,1-.041-1.577l-3.054-3.371a2.692,2.692,0,0,1,.032-3.629l9.1-9.7a13.477,13.477,0,0,0,3.533-7.595l1.614-13.709a2.65,2.65,0,0,1,2.481-2.358c1.645-.088,3.323.876,4.886,2.8a16.329,16.329,0,0,0,8.24-6.956.892.892,0,1,1,1.542.9A17.9,17.9,0,0,1,35.94,21.3L34.762,31.3a15.272,15.272,0,0,1-4,8.607l-6.484,6.91a.892.892,0,1,1-1.3-1.221l6.484-6.91A13.477,13.477,0,0,0,32.989,31.1l1.2-10.219c-.79-1-2.14-2.387-3.545-2.313a.881.881,0,0,0-.8.785L28.23,33.059a15.272,15.272,0,0,1-4,8.607l-9.1,9.7a.9.9,0,0,0-.011,1.21l.645.712,4.876-5.2a.892.892,0,0,1,1.3,1.221l-4.975,5.3L18.216,56q.38-.2.867-.461c3.818-2.024,12.759-6.765,19.682-13.618a.892.892,0,1,1,1.255,1.268c-7.11,7.038-16.214,11.866-20.1,13.927-.624.331-1.117.592-1.45.782l.4.76a.893.893,0,0,0,1.243.356c.529-.31,1.234-.7,2.05-1.146,4.432-2.437,12.682-6.974,19.126-13.419,4.724-4.724,7.963-10.049,10.566-14.328a58.787,58.787,0,0,1,4.316-6.5.892.892,0,0,1,1.32-.064L59.2,25.267a.892.892,0,0,0,1.262,0l8.4-8.4a.893.893,0,0,0,0-1.262l-4.377-4.377L59.8,15.914c-3.084,3.084-5.88,7.567-8.84,12.313a105.573,105.573,0,0,1-8.51,12.319.892.892,0,0,1-1.362-1.153,104.243,104.243,0,0,0,8.358-12.11c3.016-4.835,5.864-9.4,9.092-12.631l4.3-4.3c-1.01-2.964-3.315-5.263-6.856-6.84a20.227,20.227,0,0,0-7.177-1.726.877.877,0,0,0-.892.86A23.161,23.161,0,0,1,46.7,10.3a.892.892,0,0,1-1.685-.59,21.387,21.387,0,0,0,1.117-7.07A2.664,2.664,0,0,1,48.807,0c2.618,0,12.68,1.627,15.605,9.447a1.782,1.782,0,0,1,1.334.521l4.377,4.377a2.68,2.68,0,0,1,0,3.786l-8.4,8.4a2.677,2.677,0,0,1-3.786,0l-1-1c-1.123,1.5-2.268,3.387-3.563,5.515-2.652,4.36-5.953,9.787-10.829,14.663C35.924,52.33,27.529,56.947,23.02,59.427c-.8.442-1.5.825-2.008,1.123a2.662,2.662,0,0,1-1.349.37Z" transform="translate(-13.105 0)"/>
      </g>
    </g>
  </g>
</svg>
