<svg xmlns="http://www.w3.org/2000/svg" xmlns:xlink="http://www.w3.org/1999/xlink" width="100" height="100" viewBox="0 0 100 100">
  <defs>
    <filter id="Rectángulo_405344" x="0" y="0" width="100" height="100" filterUnits="userSpaceOnUse">
      <feOffset dx="6" dy="7" input="SourceAlpha"/>
      <feGaussianBlur stdDeviation="4" result="blur"/>
      <feFlood flood-opacity="0.251"/>
      <feComposite operator="in" in2="blur"/>
      <feComposite in="SourceGraphic"/>
    </filter>
  </defs>
  <g id="Grupo_1178365" data-name="Grupo 1178365" transform="translate(-604.051 -3966)">
    <g transform="matrix(1, 0, 0, 1, 604.05, 3966)" filter="url(#Rectángulo_405344)">
      <g id="Rectángulo_405344-2" data-name="Rectángulo 405344" transform="translate(6 5)" fill="#cb98f5" stroke="#fff" stroke-width="3">
        <path d="M0,0H47A29,29,0,0,1,76,29V47A29,29,0,0,1,47,76H29A29,29,0,0,1,0,47V0A0,0,0,0,1,0,0Z" stroke="none"/>
        <path d="M1.5,1.5H47A27.5,27.5,0,0,1,74.5,29V47A27.5,27.5,0,0,1,47,74.5H29A27.5,27.5,0,0,1,1.5,47V1.5A0,0,0,0,1,1.5,1.5Z" fill="none"/>
      </g>
    </g>
    <g id="Grupo_1178117" data-name="Grupo 1178117" transform="translate(621.051 3929.52)">
      <path id="Trazado_1034580" data-name="Trazado 1034580" d="M54.339,138.542h0a1.091,1.091,0,0,0-1.091,1.091v2.716H55.43v-2.716A1.091,1.091,0,0,0,54.339,138.542Z" transform="translate(-47.594 -72.455)" fill="#234c60"/>
      <path id="Trazado_1034581" data-name="Trazado 1034581" d="M350.586,71.7h-1.6a.788.788,0,0,1-.788-.788v-5.36a.788.788,0,0,1,.788-.788h1.6a.788.788,0,0,1,.788.788v5.36A.788.788,0,0,1,350.586,71.7Z" transform="translate(-311.232 -6.513)" fill="#ff6d3a"/>
      <rect id="Rectángulo_405219" data-name="Rectángulo 405219" width="7.452" height="2.898" transform="translate(43.464 74.233)" fill="#234c60"/>
      <g id="Grupo_1178114" data-name="Grupo 1178114" transform="translate(7.836 67.626)">
        <path id="Trazado_1034582" data-name="Trazado 1034582" d="M466.588,169.152h0a2.138,2.138,0,0,1-2.138-2.138V155.177a2.138,2.138,0,0,1,2.138-2.138h0a2.138,2.138,0,0,1,2.137,2.138v11.838A2.138,2.138,0,0,1,466.588,169.152Z" transform="translate(-422.973 -153.039)" fill="#2d5872"/>
        <path id="Trazado_1034583" data-name="Trazado 1034583" d="M73.8,155.943v7.733L96,165.56a5.192,5.192,0,0,1,4.563,6.089L98.9,181h13.29V159.265a6.225,6.225,0,0,0-6.881-6.191Z" transform="translate(-73.802 -153.039)" fill="#2d5872"/>
      </g>
      <path id="Trazado_1034584" data-name="Trazado 1034584" d="M316.889,153.056a6.193,6.193,0,0,1,1.75,4.325V175a2.771,2.771,0,0,1-2.771,2.771h-5.13l-.575,3.233h13.29V159.271A6.225,6.225,0,0,0,316.889,153.056Z" transform="translate(-277.232 -85.419)" fill="#234c60"/>
      <path id="Trazado_1034585" data-name="Trazado 1034585" d="M55.562,413.887H8.919a1.632,1.632,0,0,1-1.632-1.632v-.7a1.632,1.632,0,0,1,1.632-1.632H55.562a1.632,1.632,0,0,1,1.632,1.632v.7A1.632,1.632,0,0,1,55.562,413.887Z" transform="translate(-6.513 -315.025)" fill="#ff6d3a"/>
      <path id="Trazado_1034586" data-name="Trazado 1034586" d="M55.562,409.924H52.415v1.049a1.107,1.107,0,0,1-1.107,1.107H7.287v.173a1.632,1.632,0,0,0,1.632,1.632H55.562a1.632,1.632,0,0,0,1.632-1.632v-.7A1.632,1.632,0,0,0,55.562,409.924Z" transform="translate(-6.513 -315.023)" fill="#ed5729"/>
      <path id="Trazado_1034587" data-name="Trazado 1034587" d="M49.886,281.759h0a1.509,1.509,0,0,1-1.509-1.509V276.4h3.017v3.848A1.509,1.509,0,0,1,49.886,281.759Z" transform="translate(-43.241 -195.678)" fill="#234c60"/>
      <path id="Trazado_1034588" data-name="Trazado 1034588" d="M37.64,174.783h2.687a.832.832,0,0,0,.83-.788l.629-12.092a.832.832,0,0,0-.83-.875H37.011a.832.832,0,0,0-.831.875l.629,12.092A.832.832,0,0,0,37.64,174.783Z" transform="translate(-32.338 -92.553)" fill="#2d5872"/>
      <g id="Grupo_1178115" data-name="Grupo 1178115" transform="translate(37.781 79.475)">
        <circle id="Elipse_11676" data-name="Elipse 11676" cx="2.132" cy="2.132" r="2.132" fill="#61aff7"/>
        <circle id="Elipse_11677" data-name="Elipse 11677" cx="2.132" cy="2.132" r="2.132" transform="translate(0 7.636)" fill="#61aff7"/>
      </g>
      <path id="Trazado_1034589" data-name="Trazado 1034589" d="M64.559,161.027H62.587v13.756H63.93a.832.832,0,0,0,.83-.788L65.39,161.9A.832.832,0,0,0,64.559,161.027Z" transform="translate(-55.942 -92.553)" fill="#234c60"/>
      <g id="Grupo_1178116" data-name="Grupo 1178116" transform="translate(38.406 80.099)">
        <path id="Trazado_1034590" data-name="Trazado 1034590" d="M364.735,273.534a2.132,2.132,0,0,0,0-3.016l-3.015,3.016A2.132,2.132,0,0,0,364.735,273.534Z" transform="translate(-361.72 -270.518)" fill="#55a2f0"/>
        <path id="Trazado_1034591" data-name="Trazado 1034591" d="M364.735,345.46a2.132,2.132,0,0,0,0-3.015l-3.015,3.015A2.132,2.132,0,0,0,364.735,345.46Z" transform="translate(-361.72 -334.807)" fill="#55a2f0"/>
      </g>
      <path id="Trazado_1034592" data-name="Trazado 1034592" d="M484.582,169.152a2.138,2.138,0,0,0,2.138-2.138V155.177a2.138,2.138,0,0,0-2.138-2.138h0v16.113Z" transform="translate(-433.132 -85.413)" fill="#234c60"/>
      <path id="Trazado_1034593" data-name="Trazado 1034593" d="M351.457,263.16a2.9,2.9,0,1,0-2.055-.85A2.9,2.9,0,0,0,351.457,263.16ZM350.5,259.3a1.358,1.358,0,1,1-.4.961A1.35,1.35,0,0,1,350.5,259.3Z" transform="translate(-311.544 -178.649)"/>
      <path id="Trazado_1034594" data-name="Trazado 1034594" d="M349.4,334.246a2.909,2.909,0,0,0,4.109,0h0a2.906,2.906,0,1,0-4.109,0Zm1.094-3.015a1.358,1.358,0,1,1-.4.961A1.354,1.354,0,0,1,350.5,331.23Z" transform="translate(-311.543 -242.947)"/>
      <path id="Trazado_1034595" data-name="Trazado 1034595" d="M51.45,66.852a2.914,2.914,0,0,0-2.911,2.911v3.7H46.983a7,7,0,0,0-7.653-6.574v-.924h.025A1.563,1.563,0,0,0,40.916,64.4v-5.36a1.563,1.563,0,0,0-1.561-1.561h-1.6A1.563,1.563,0,0,0,36.2,59.041V64.4a1.563,1.563,0,0,0,1.561,1.561h.025v1.064l-2.506.228a.774.774,0,1,0,.14,1.541l3.217-.293h0l.774-.07h.011a5.452,5.452,0,0,1,6.026,5.421V94.127H33.977l1.38-7.753a5.966,5.966,0,0,0-5.242-7H30.1L9.791,77.652l.341-6.554,20.5-1.867a.774.774,0,0,0-.14-1.541L10.213,69.537l.008-.148a1.605,1.605,0,0,0-1.6-1.689H8.61v-.522a1.865,1.865,0,0,0-3.73,0V67.7H4.673a1.605,1.605,0,0,0-1.6,1.689l.312,6a.774.774,0,1,0,1.545-.08l-.312-6a.058.058,0,0,1,.058-.061H8.617a.058.058,0,0,1,.058.061L8.046,81.4a.058.058,0,0,1-.058.055H5.3a.058.058,0,0,1-.058-.055l-.065-1.253a.774.774,0,1,0-1.545.08L3.7,81.481A1.6,1.6,0,0,0,4.363,82.7v1.874a2.286,2.286,0,0,0,1.509,2.147v4.04a.774.774,0,0,0,1.547,0v-4.04a2.286,2.286,0,0,0,1.509-2.147V82.7a1.6,1.6,0,0,0,.664-1.217L9.71,79.2,29.96,80.917A4.419,4.419,0,0,1,33.834,86.1l-1.429,8.027h-30A2.409,2.409,0,0,0,0,96.533v.7a2.409,2.409,0,0,0,2.406,2.406H49.049a2.409,2.409,0,0,0,2.406-2.406v-.7a2.409,2.409,0,0,0-2.406-2.406H46.995V77.905h1.544v3.7a2.911,2.911,0,0,0,5.822,0V69.763A2.914,2.914,0,0,0,51.45,66.852ZM37.758,64.415a.014.014,0,0,1-.014-.014v-5.36a.014.014,0,0,1,.014-.014h1.6a.014.014,0,0,1,.014.014V64.4a.014.014,0,0,1-.014.014ZM7.062,67.7H6.427v-.522a.318.318,0,0,1,.635,0V67.7ZM7.38,84.572a.735.735,0,0,1-1.47,0V83H7.38Zm41.668,11.1a.86.86,0,0,1,.859.859v.7a.86.86,0,0,1-.859.859H2.406a.86.86,0,0,1-.859-.859v-.7a.86.86,0,0,1,.859-.859H49.049Zm-.51-19.316H46.995V75.007h1.544ZM52.814,81.6a1.364,1.364,0,1,1-2.728,0V69.764a1.364,1.364,0,0,1,2.728,0Z" transform="translate(0 0)"/>
    </g>
  </g>
</svg>
