<svg xmlns="http://www.w3.org/2000/svg" width="74" height="74" viewBox="0 0 74 74">
  <g id="Grupo_1178188" data-name="Grupo 1178188" transform="translate(-237.444 -5772.663)">
    <g id="Rectángulo_401369" data-name="Rectángulo 401369" transform="translate(237.444 5772.663)" fill="#e0ee33" stroke="#32d5d3" stroke-width="3">
      <path d="M0,0H45A29,29,0,0,1,74,29V45A29,29,0,0,1,45,74H29A29,29,0,0,1,0,45V0A0,0,0,0,1,0,0Z" stroke="none"/>
      <path d="M1.5,1.5H45A27.5,27.5,0,0,1,72.5,29V45A27.5,27.5,0,0,1,45,72.5H29A27.5,27.5,0,0,1,1.5,45V1.5A0,0,0,0,1,1.5,1.5Z" fill="none"/>
    </g>
    <g id="Grupo_1178437" data-name="Grupo 1178437" transform="translate(250.667 5786.836)">
      <path id="Trazado_1034810" data-name="Trazado 1034810" d="M29.949,1.863c.894,1.834,3.667,5.909,10.5,5.377a1.529,1.529,0,0,1,1.619,1.182l.943,4.243a1.514,1.514,0,0,1-.82,1.7c-1.755.849-4.985,3.162-4.985,8.7s3.23,7.856,4.985,8.7a1.514,1.514,0,0,1,.82,1.7l-.943,4.243a1.529,1.529,0,0,1-1.619,1.184c-6.829-.533-9.6,3.544-10.5,5.378a1.522,1.522,0,0,1-1.37.861H19.455a1.526,1.526,0,0,1-1.37-.863c-.9-1.834-3.668-5.909-10.5-5.377a1.528,1.528,0,0,1-1.618-1.182l-.94-4.244a1.513,1.513,0,0,1,.82-1.7c1.75-.848,4.985-3.16,4.985-8.7s-3.231-7.856-4.985-8.7a1.513,1.513,0,0,1-.82-1.7l.943-4.243A1.528,1.528,0,0,1,7.584,7.239c6.833.533,9.605-3.543,10.5-5.377A1.526,1.526,0,0,1,19.455,1h9.123a1.522,1.522,0,0,1,1.37.863Z" transform="translate(-0.239 -0.239)" fill="sienna"/>
      <g id="Grupo_1178437-2" data-name="Grupo 1178437" transform="translate(26.056 0.761)">
        <path id="Trazado_1034811" data-name="Trazado 1034811" d="M34.361,1.863c.893,1.833,3.665,5.909,10.49,5.377a9.63,9.63,0,0,1-8.207-5.377A1.526,1.526,0,0,0,35.273,1H32.99a1.526,1.526,0,0,1,1.371.863Z" transform="translate(-32.99 -1)" fill="#783e22"/>
        <path id="Trazado_1034812" data-name="Trazado 1034812" d="M51.59,33.729c-1.755-.848-4.985-3.16-4.985-8.7s3.23-7.856,4.985-8.7a1.514,1.514,0,0,0,.82-1.7l-.943-4.243A1.529,1.529,0,0,0,49.849,9.2a14.4,14.4,0,0,1-1.937.016,1.522,1.522,0,0,1,1.273,1.166l.943,4.243a1.514,1.514,0,0,1-.82,1.7c-1.755.849-4.985,3.162-4.985,8.7s3.23,7.856,4.985,8.7a1.514,1.514,0,0,1,.82,1.7l-.943,4.243a1.522,1.522,0,0,1-1.273,1.166,14.4,14.4,0,0,1,1.937.016,1.529,1.529,0,0,0,1.619-1.182l.943-4.243A1.514,1.514,0,0,0,51.59,33.729Z" transform="translate(-35.7 -2.959)" fill="#783e22"/>
        <path id="Trazado_1034813" data-name="Trazado 1034813" d="M34.361,56.162a1.526,1.526,0,0,1-1.371.863h2.283a1.526,1.526,0,0,0,1.37-.863,9.63,9.63,0,0,1,8.209-5.377c-6.825-.533-9.6,3.544-10.49,5.377Z" transform="translate(-32.99 -12.892)" fill="#783e22"/>
      </g>
      <path id="Trazado_1034814" data-name="Trazado 1034814" d="M42.278,14.81a2.271,2.271,0,0,0,1.232-2.548l-.943-4.244a2.3,2.3,0,0,0-2.421-1.774c-6.376.5-8.946-3.3-9.753-4.951A2.272,2.272,0,0,0,28.339,0H19.215a2.274,2.274,0,0,0-2.054,1.294c-.807,1.654-3.369,5.447-9.753,4.954A2.306,2.306,0,0,0,4.986,8.019l-.942,4.243A2.271,2.271,0,0,0,5.276,14.81c1.7.821,4.555,2.955,4.555,8.018s-2.853,7.2-4.555,8.018a2.271,2.271,0,0,0-1.232,2.548l.942,4.243a2.3,2.3,0,0,0,2.42,1.775c6.376-.5,8.946,3.3,9.753,4.954a2.274,2.274,0,0,0,2.056,1.291h9.123a2.272,2.272,0,0,0,2.054-1.294c.807-1.654,3.379-5.45,9.753-4.954a2.3,2.3,0,0,0,2.421-1.775l.943-4.243a2.271,2.271,0,0,0-1.232-2.548c-1.7-.818-4.555-2.952-4.555-8.015s2.853-7.2,4.555-8.018ZM36.2,22.827c0,5.893,3.392,8.412,5.414,9.388a.755.755,0,0,1,.409.847l-.943,4.243a.761.761,0,0,1-.817.588c-7.313-.569-10.3,3.869-11.239,5.8a.761.761,0,0,1-.685.435H19.215a.761.761,0,0,1-.685-.436c-.887-1.819-3.576-5.853-9.982-5.853q-.609,0-1.257.049a.761.761,0,0,1-.817-.587L5.53,33.062a.755.755,0,0,1,.409-.847c2.022-.976,5.415-3.494,5.415-9.388S7.96,14.416,5.938,13.439a.755.755,0,0,1-.409-.847l.943-4.244a.761.761,0,0,1,.817-.587c7.312.568,10.3-3.869,11.239-5.8a.761.761,0,0,1,.687-.435h9.123a.761.761,0,0,1,.685.435c.943,1.933,3.924,6.37,11.239,5.8a.761.761,0,0,1,.817.587l.943,4.244a.755.755,0,0,1-.409.847c-2.019.977-5.412,3.5-5.412,9.389Z" transform="translate(0 0)"/>
      <path id="Trazado_1034815" data-name="Trazado 1034815" d="M25.054,4.106a.761.761,0,0,0-1.042.269,12.175,12.175,0,0,1-.856,1.265.761.761,0,1,0,1.205.93,13.948,13.948,0,0,0,.962-1.421.761.761,0,0,0-.269-1.042Z" transform="translate(-4.545 -0.956)"/>
      <path id="Trazado_1034816" data-name="Trazado 1034816" d="M19.854,8.927a11.433,11.433,0,0,1-1.321.878.761.761,0,0,0,.753,1.322,13.017,13.017,0,0,0,1.5-.995.761.761,0,1,0-.928-1.206Z" transform="translate(-3.386 -2.097)"/>
      <path id="Trazado_1034817" data-name="Trazado 1034817" d="M12.9,13.473a15.08,15.08,0,0,0,1.58-.313.761.761,0,1,0-.38-1.475,13.608,13.608,0,0,1-1.419.282.761.761,0,0,0,.216,1.506Z" transform="translate(-1.928 -2.788)"/>
      <path id="Trazado_1034818" data-name="Trazado 1034818" d="M9.434,14.857a.762.762,0,0,0-.806,1.294,11.126,11.126,0,0,1,1.24.9.761.761,0,1,0,.974-1.17,12.733,12.733,0,0,0-1.408-1.021Z" transform="translate(-1.023 -3.524)"/>
      <path id="Trazado_1034819" data-name="Trazado 1034819" d="M14.422,22.044a.75.75,0,0,0,.334-.076.761.761,0,0,0,.348-1.017,12.251,12.251,0,0,0-.954-1.622.761.761,0,1,0-1.249.87,10.729,10.729,0,0,1,.837,1.421.761.761,0,0,0,.683.425Z" transform="translate(-2.098 -4.543)"/>
      <path id="Trazado_1034820" data-name="Trazado 1034820" d="M15.894,25.016a.761.761,0,0,0-.6.9,13.849,13.849,0,0,1,.211,1.442.761.761,0,0,0,.756.691h.071a.761.761,0,0,0,.685-.828,15.428,15.428,0,0,0-.234-1.6.761.761,0,0,0-.89-.6Z" transform="translate(-2.7 -5.978)"/>
      <path id="Trazado_1034821" data-name="Trazado 1034821" d="M16.336,31a.761.761,0,0,0-.827.685A13.849,13.849,0,0,1,15.3,33.13a.761.761,0,0,0,.6.9.736.736,0,0,0,.152.015.761.761,0,0,0,.745-.609,15.428,15.428,0,0,0,.234-1.6A.761.761,0,0,0,16.336,31Z" transform="translate(-2.7 -7.411)"/>
      <path id="Trazado_1034822" data-name="Trazado 1034822" d="M14.851,36.955a.761.761,0,0,0-1.015.358,10.826,10.826,0,0,1-.711,1.26.761.761,0,0,0,1.272.837,12.455,12.455,0,0,0,.811-1.438.761.761,0,0,0-.357-1.017Z" transform="translate(-2.154 -8.818)"/>
      <path id="Trazado_1034823" data-name="Trazado 1034823" d="M9.864,42.177a11.125,11.125,0,0,1-1.24.9.762.762,0,1,0,.806,1.294,12.731,12.731,0,0,0,1.408-1.018.761.761,0,0,0-.974-1.17Z" transform="translate(-1.022 -10.042)"/>
      <path id="Trazado_1034824" data-name="Trazado 1034824" d="M14.479,46.268a15.036,15.036,0,0,0-1.578-.313.761.761,0,0,0-.217,1.507,13.233,13.233,0,0,1,1.418.281.761.761,0,0,0,.38-1.475Z" transform="translate(-1.923 -10.985)"/>
      <path id="Trazado_1034825" data-name="Trazado 1034825" d="M19.124,48.008a.761.761,0,1,0-.738,1.33,11.5,11.5,0,0,1,1.206.774.761.761,0,0,0,.9-1.228,12.9,12.9,0,0,0-1.367-.876Z" transform="translate(-3.344 -11.453)"/>
      <path id="Trazado_1034826" data-name="Trazado 1034826" d="M24.174,52.285a.761.761,0,1,0-1.188.951,12.317,12.317,0,0,1,.989,1.433.761.761,0,0,0,.655.374.753.753,0,0,0,.386-.106.761.761,0,0,0,.269-1.042,13.8,13.8,0,0,0-1.111-1.611Z" transform="translate(-4.502 -12.432)"/>
      <path id="Trazado_1034827" data-name="Trazado 1034827" d="M30.283,54H28.761a.761.761,0,1,0,0,1.522h1.522a.761.761,0,0,0,0-1.522Z" transform="translate(-5.741 -12.911)"/>
      <path id="Trazado_1034828" data-name="Trazado 1034828" d="M30.283,4H28.761a.761.761,0,1,0,0,1.522h1.522a.761.761,0,1,0,0-1.522Z" transform="translate(-5.741 -0.956)"/>
      <path id="Trazado_1034829" data-name="Trazado 1034829" d="M34.873,6.569a.761.761,0,0,0,1.205-.93,12.174,12.174,0,0,1-.856-1.265.761.761,0,0,0-1.311.773,13.948,13.948,0,0,0,.962,1.421Z" transform="translate(-7.129 -0.956)"/>
      <path id="Trazado_1034830" data-name="Trazado 1034830" d="M39.793,11.128a.761.761,0,1,0,.753-1.322,11.434,11.434,0,0,1-1.321-.878.761.761,0,0,0-.928,1.206A13.018,13.018,0,0,0,39.793,11.128Z" transform="translate(-8.132 -2.097)"/>
      <path id="Trazado_1034831" data-name="Trazado 1034831" d="M46.368,11.967a13.608,13.608,0,0,1-1.419-.282.761.761,0,0,0-.38,1.475,15.079,15.079,0,0,0,1.58.313.761.761,0,1,0,.216-1.506Z" transform="translate(-9.566 -2.788)"/>
      <path id="Trazado_1034832" data-name="Trazado 1034832" d="M49.671,14.856a12.732,12.732,0,0,0-1.408,1.018.761.761,0,1,0,.974,1.17,11.127,11.127,0,0,1,1.24-.9.762.762,0,0,0-.806-1.294Z" transform="translate(-10.52 -3.524)"/>
      <path id="Trazado_1034833" data-name="Trazado 1034833" d="M45.09,19.325a12.25,12.25,0,0,0-.954,1.622.761.761,0,0,0,.348,1.017.749.749,0,0,0,.334.076.761.761,0,0,0,.685-.427,10.729,10.729,0,0,1,.837-1.421.761.761,0,0,0-1.249-.87Z" transform="translate(-9.58 -4.542)"/>
      <path id="Trazado_1034834" data-name="Trazado 1034834" d="M43.116,28.044h.071a.761.761,0,0,0,.756-.691,13.847,13.847,0,0,1,.214-1.44.761.761,0,0,0-1.492-.3,15.427,15.427,0,0,0-.234,1.6A.761.761,0,0,0,43.116,28.044Z" transform="translate(-9.19 -5.978)"/>
      <path id="Trazado_1034835" data-name="Trazado 1034835" d="M44.156,33.124a13.847,13.847,0,0,1-.211-1.442.761.761,0,1,0-1.515.14,15.426,15.426,0,0,0,.234,1.6.761.761,0,0,0,.745.609.736.736,0,0,0,.152-.015.761.761,0,0,0,.6-.893Z" transform="translate(-9.19 -7.406)"/>
      <path id="Trazado_1034836" data-name="Trazado 1034836" d="M44.431,36.955a.761.761,0,0,0-.357,1.015,12.454,12.454,0,0,0,.811,1.438.761.761,0,1,0,1.272-.837,10.827,10.827,0,0,1-.711-1.26.761.761,0,0,0-1.015-.356Z" transform="translate(-9.566 -8.818)"/>
      <path id="Trazado_1034837" data-name="Trazado 1034837" d="M49.671,44.363a.762.762,0,1,0,.806-1.294,11.127,11.127,0,0,1-1.24-.9.761.761,0,0,0-.974,1.17,12.733,12.733,0,0,0,1.408,1.021Z" transform="translate(-10.52 -10.041)"/>
      <path id="Trazado_1034838" data-name="Trazado 1034838" d="M44.572,46.268a.761.761,0,0,0,.38,1.475,13.233,13.233,0,0,1,1.418-.281.761.761,0,1,0-.217-1.507,15.035,15.035,0,0,0-1.581.313Z" transform="translate(-9.567 -10.985)"/>
      <path id="Trazado_1034839" data-name="Trazado 1034839" d="M39.987,48.008a12.9,12.9,0,0,0-1.37.876.762.762,0,0,0,.9,1.228,11.5,11.5,0,0,1,1.208-.774.761.761,0,1,0-.738-1.33Z" transform="translate(-8.205 -11.453)"/>
      <path id="Trazado_1034840" data-name="Trazado 1034840" d="M35.018,52.285A13.8,13.8,0,0,0,33.907,53.9a.761.761,0,0,0,.269,1.042.753.753,0,0,0,.386.106.761.761,0,0,0,.657-.374,12.316,12.316,0,0,1,.989-1.433.761.761,0,1,0-1.188-.951Z" transform="translate(-7.128 -12.432)"/>
    </g>
  </g>
</svg>
