<svg xmlns="http://www.w3.org/2000/svg" xmlns:xlink="http://www.w3.org/1999/xlink" width="101" height="101" viewBox="0 0 101 101">
  <defs>
    <filter id="Rectángulo_401369" x="0" y="0" width="101" height="101" filterUnits="userSpaceOnUse">
      <feOffset dx="6" dy="7" input="SourceAlpha"/>
      <feGaussianBlur stdDeviation="4" result="blur"/>
      <feFlood flood-opacity="0.251"/>
      <feComposite operator="in" in2="blur"/>
      <feComposite in="SourceGraphic"/>
    </filter>
  </defs>
  <g id="Grupo_1178442" data-name="Grupo 1178442" transform="translate(-173.051 -5306)">
    <g transform="matrix(1, 0, 0, 1, 173.05, 5306)" filter="url(#Rectángulo_401369)">
      <g id="Rectángulo_401369-2" data-name="Rectángulo 401369" transform="translate(6 5)" fill="#cb98f5" stroke="#fff" stroke-width="3">
        <path d="M0,0H48A29,29,0,0,1,77,29V48A29,29,0,0,1,48,77H29A29,29,0,0,1,0,48V0A0,0,0,0,1,0,0Z" stroke="none"/>
        <path d="M1.5,1.5H48A27.5,27.5,0,0,1,75.5,29V48A27.5,27.5,0,0,1,48,75.5H29A27.5,27.5,0,0,1,1.5,48V1.5A0,0,0,0,1,1.5,1.5Z" fill="none"/>
      </g>
    </g>
    <g id="Filled_outline" data-name="Filled outline" transform="translate(204.583 5323.87)">
      <rect id="Rectángulo_405378" data-name="Rectángulo 405378" width="12" height="3" rx="1.5" transform="translate(1 47)" fill="#d3843d"/>
      <path id="Trazado_1034841" data-name="Trazado 1034841" d="M26.662,27H19.851S19,34.662,19,37.216V52.54h8.513V37.216C27.513,34.662,26.662,27,26.662,27Z" transform="translate(-16.447 -5.717)" fill="#ad6327"/>
      <rect id="Rectángulo_405379" data-name="Rectángulo 405379" width="10" height="3" rx="1.5" transform="translate(2 18)" fill="#195c85"/>
      <path id="Trazado_1034842" data-name="Trazado 1034842" d="M26.811,22.405H20L20.851,19h5.108Z" transform="translate(-16.596 -4.527)" fill="#92cdde"/>
      <path id="Trazado_1034843" data-name="Trazado 1034843" d="M25.405,6.405H22L22.851,3h1.7Z" transform="translate(-16.893 -2.149)" fill="#50b3c9"/>
      <path id="Trazado_1034844" data-name="Trazado 1034844" d="M25.959,12.959H20.851L20,11.257V8.7L21.7,7h3.405l1.7,1.7v2.554Z" transform="translate(-16.596 -2.743)" fill="#92cdde"/>
      <path id="Trazado_1034845" data-name="Trazado 1034845" d="M21,14h5.108v4.257H21Z" transform="translate(-16.744 -3.784)" fill="#50b3c9"/>
      <path id="Trazado_1034846" data-name="Trazado 1034846" d="M41.405,20.027H38V3l3.405.851Z" transform="translate(-19.271 -2.149)" fill="#92cdde"/>
      <path id="Trazado_1034847" data-name="Trazado 1034847" d="M42.513,27H35.7L34,30.405l1.7,5.108h6.811l1.7-5.108Z" transform="translate(-18.677 -5.717)" fill="#d3843d"/>
      <path id="Trazado_1034848" data-name="Trazado 1034848" d="M42.513,44.279V37H35.7v7.28c0,2.3-1.7,4.8-1.7,7.193,0,4.467,2.287,5.959,5.108,5.959s5.108-1.492,5.108-5.959C44.216,49.08,42.513,46.578,42.513,44.279Z" transform="translate(-18.677 -7.203)" fill="#ad6327"/>
      <path id="Trazado_1034849" data-name="Trazado 1034849" d="M36,23h6.811v3.405H36Z" transform="translate(-18.974 -5.122)" fill="#195c85"/>
      <path id="Trazado_1034850" data-name="Trazado 1034850" d="M27.919,48.129V33.5c0-2.122-.558-7.535-.773-9.546a2.541,2.541,0,0,0-.238-4.819l-.692-2.768V12.417l.851-1.7V7.607L25.28,5.819,24.327,2H21.295l-.953,3.823L18.554,7.607v3.107l.851,1.7v3.949l-.692,2.768a2.541,2.541,0,0,0-.238,4.819c-.215,2.011-.773,7.425-.773,9.546V48.129a2.548,2.548,0,0,0,.851,4.951h8.513a2.548,2.548,0,0,0,.851-4.951ZM22.624,3.7H23l.426,1.7H22.2ZM20.257,8.312l1.2-1.2h2.7l1.2,1.2v2l-.526,1.052H20.783l-.526-1.052ZM24.7,17.324l.426,1.7H20.5l.426-1.7Zm-3.592-1.7V13.067h3.405v2.554Zm-1.7,5.108h6.811a.851.851,0,0,1,0,1.7H19.406a.851.851,0,0,1,0-1.7ZM26.216,33.5V47.972H19.406V33.5c0-2.011.552-7.373.766-9.365H25.45C25.665,26.126,26.216,31.489,26.216,33.5Zm.851,17.878H18.554a.851.851,0,0,1,0-1.7h8.513a.851.851,0,0,1,0,1.7Z" transform="translate(-16.001 -2)"/>
      <path id="Trazado_1034851" data-name="Trazado 1034851" d="M23,30h1.7v1.7H23Z" transform="translate(-17.042 -6.163)"/>
      <path id="Trazado_1034852" data-name="Trazado 1034852" d="M23,34h1.7v1.7H23Z" transform="translate(-17.042 -6.757)"/>
      <path id="Trazado_1034853" data-name="Trazado 1034853" d="M43.215,39.077V31.934l1.658-4.976a.851.851,0,0,0-.045-.65l-1.613-3.226V19.027h-1.7V3.7a.851.851,0,0,0-.645-.826l-3.405-.851a.851.851,0,0,0-1.057.826V19.027H34.7v4.056l-1.618,3.226a.851.851,0,0,0-.045.65L34.7,31.934v7.143a10.453,10.453,0,0,1-.791,3.242A12.168,12.168,0,0,0,33,46.27c0,5.926,3.734,6.811,5.959,6.811s5.959-.885,5.959-6.811a12.168,12.168,0,0,0-.912-3.951,10.453,10.453,0,0,1-.791-3.242ZM38.107,3.942l1.7.426V19.027h-1.7ZM36.4,20.729h5.108v1.7H36.4Zm-.325,3.405h5.758l1.309,2.62-1.4,4.191H36.167l-1.4-4.191Zm2.879,27.243c-2.864,0-4.257-1.671-4.257-5.108a10.783,10.783,0,0,1,.816-3.387,11.8,11.8,0,0,0,.886-3.805V32.648h5.108v6.428a11.8,11.8,0,0,0,.886,3.805,10.783,10.783,0,0,1,.816,3.387C43.215,49.706,41.823,51.378,38.959,51.378Z" transform="translate(-18.527 -2)"/>
      <path id="Trazado_1034854" data-name="Trazado 1034854" d="M39,40h1.7v1.7H39Z" transform="translate(-19.42 -7.649)"/>
      <path id="Trazado_1034855" data-name="Trazado 1034855" d="M39,44h1.7v1.7H39Z" transform="translate(-19.42 -8.244)"/>
    </g>
  </g>
</svg>
