<svg xmlns="http://www.w3.org/2000/svg" xmlns:xlink="http://www.w3.org/1999/xlink" width="120" height="120" viewBox="0 0 120 120">
  <defs>
    <filter id="Rect치ngulo_405345" x="0" y="0" width="120" height="120" filterUnits="userSpaceOnUse">
      <feOffset dx="6" dy="7" input="SourceAlpha"/>
      <feGaussianBlur stdDeviation="4" result="blur"/>
      <feFlood flood-opacity="0.251"/>
      <feComposite operator="in" in2="blur"/>
      <feComposite in="SourceGraphic"/>
    </filter>
  </defs>
  <g id="Grupo_1179079" data-name="Grupo 1179079" transform="translate(-904.051 -6490)">
    <g id="Grupo_1179062" data-name="Grupo 1179062" transform="translate(300 2654)">
      <g transform="matrix(1, 0, 0, 1, 604.05, 3836)" filter="url(#Rect치ngulo_405345)">
        <g id="Rect치ngulo_405345-2" data-name="Rect치ngulo 405345" transform="translate(6 5)" fill="#cb98f5" stroke="#fff" stroke-width="3">
          <path d="M0,0H67A29,29,0,0,1,96,29V67A29,29,0,0,1,67,96H29A29,29,0,0,1,0,67V0A0,0,0,0,1,0,0Z" stroke="none"/>
          <path d="M1.5,1.5H67A27.5,27.5,0,0,1,94.5,29V67A27.5,27.5,0,0,1,67,94.5H29A27.5,27.5,0,0,1,1.5,67V1.5A0,0,0,0,1,1.5,1.5Z" fill="none"/>
        </g>
      </g>
    </g>
    <g id="Grupo_1179078" data-name="Grupo 1179078" transform="translate(917.246 6398.128)">
      <g id="Grupo_1179076" data-name="Grupo 1179076" transform="translate(1.17 125.296)">
        <g id="Grupo_1179071" data-name="Grupo 1179071" transform="translate(0 17.329)">
          <path id="Trazado_1034954" data-name="Trazado 1034954" d="M11.921,248.078a17.625,17.625,0,0,1-3,5.182c-1.9,2.086-2.945,10.269,3,10.269H46.88a1.826,1.826,0,0,0,1.62-.984l.473-.91a1.826,1.826,0,0,1,1.62-.984h1.551a1.826,1.826,0,0,1,1.477.752l.992,1.364a1.824,1.824,0,0,0,1.506.752c5.958-.1,37.565-1.142,27.663-11.909L17.631,241.7Z" transform="translate(-7.431 -241.701)" fill="#678d98"/>
        </g>
        <g id="Grupo_1179072" data-name="Grupo 1179072" transform="translate(0 27.238)">
          <path id="Trazado_1034955" data-name="Trazado 1034955" d="M56.12,311.814a1.825,1.825,0,0,1-1.506-.752l-.992-1.364a1.826,1.826,0,0,0-1.477-.752H50.595a1.826,1.826,0,0,0-1.62.984l-.473.91a1.826,1.826,0,0,1-1.62.984H11.922a4.036,4.036,0,0,1-4.177-3.032c-.807,3.181-.268,7.756,4.177,7.756H46.881a1.826,1.826,0,0,0,1.62-.984l.473-.91a1.826,1.826,0,0,1,1.62-.984h1.551a1.826,1.826,0,0,1,1.477.752l.992,1.364a1.824,1.824,0,0,0,1.506.752c5.708-.1,34.956-1.056,28.694-10.6l-1.031-1.3-4.617,1.807s.86,2.6.108,2.931c-7.594,3.3-19.712,2.389-23.154,2.447Z" transform="translate(-7.432 -304.629)" fill="#537983"/>
        </g>
        <g id="Grupo_1179073" data-name="Grupo 1179073" transform="translate(4.491 0)">
          <path id="Trazado_1034956" data-name="Trazado 1034956" d="M103.251,150.632c-5.915-.364-27.763-9.89-34.655-17.652a2.743,2.743,0,0,0-3.624-.43,16.131,16.131,0,0,1-9.484,2.7,17.12,17.12,0,0,1-10.278-3.074,2.76,2.76,0,0,0-3.567.265c-.364.36-.76.765-1.166,1.206l-3.354,4.486a8.262,8.262,0,0,0-1.175,3.848v13.371s20.239-2.273,32.152,2.619a47.811,47.811,0,0,0,15.242,3.581c8.477.516,19.655.48,24.468-2.669C107.81,158.883,109.764,151.033,103.251,150.632Z" transform="translate(-35.949 -131.645)" fill="#2abcc8"/>
        </g>
        <g id="Grupo_1179074" data-name="Grupo 1179074" transform="translate(30.288 0.41)">
          <path id="Trazado_1034957" data-name="Trazado 1034957" d="M241.289,152.823c-5.915-.364-27.763-9.89-34.655-17.652a2.743,2.743,0,0,0-3.624-.43,13.794,13.794,0,0,1-3.225,1.666v.185a2.751,2.751,0,0,1,2.125.922c6.892,7.762,28.741,17.288,34.655,17.652,5.476.337,4.967,5.939,4.666,7.715a14.79,14.79,0,0,0,4.617-1.807S247.8,153.224,241.289,152.823Z" transform="translate(-199.784 -134.246)" fill="#0cacba"/>
        </g>
        <g id="Grupo_1179075" data-name="Grupo 1179075" transform="translate(4.49 14.142)">
          <path id="Trazado_1034958" data-name="Trazado 1034958" d="M93.368,237.346a10.512,10.512,0,0,0-8.847-6.4c-9.383-.781-10.239-4.773-20.119-7.691-8.815-2.6-22.315-1.776-28.453-1.208v8.975s20.239-2.273,32.152,2.619a47.812,47.812,0,0,0,15.242,3.581c3.138.191,6.646.306,10.064.216Z" transform="translate(-35.949 -221.458)" fill="#f3e8e5"/>
        </g>
      </g>
      <g id="Grupo_1179077" data-name="Grupo 1179077" transform="translate(0 124.109)">
        <path id="Trazado_1034959" data-name="Trazado 1034959" d="M78.793,152.194c.227-1.34.535-4.533-1.113-6.782a5.893,5.893,0,0,0-4.645-2.309c-5.685-.35-27.2-9.775-33.845-17.258A3.917,3.917,0,0,0,34,125.234a14.984,14.984,0,0,1-8.8,2.485,15.908,15.908,0,0,1-9.581-2.846,3.924,3.924,0,0,0-5.094.378c-.414.41-.819.828-1.2,1.244a1.181,1.181,0,1,0,1.735,1.6c.36-.39.74-.783,1.129-1.167a1.571,1.571,0,0,1,2.039-.151,18.246,18.246,0,0,0,10.975,3.3,17.319,17.319,0,0,0,10.164-2.916,1.557,1.557,0,0,1,2.061.249,23.139,23.139,0,0,0,2.137,2.082l-2.577,2.28a1.181,1.181,0,0,0,1.565,1.769L41.423,131c.865.657,1.8,1.314,2.779,1.967l-2.112,2.343a1.181,1.181,0,1,0,1.754,1.582l2.376-2.635c.9.554,1.828,1.1,2.777,1.638l-1.366,1.742a1.181,1.181,0,1,0,1.858,1.458l1.6-2.046c8.556,4.579,18.1,8.182,21.8,8.41a3.606,3.606,0,0,1,2.881,1.343c1.04,1.413.9,3.771.7,4.989-2.435,1.382-6.763,2.2-12.6,2.415a11.666,11.666,0,0,0-9.536-6.46,21.661,21.661,0,0,1-10.417-3.476,40.614,40.614,0,0,0-9.465-4.171c-8.294-2.449-20.371-1.97-27.607-1.364v-3.107a7.079,7.079,0,0,1,1.029-3.28A1.181,1.181,0,0,0,5.8,131.215a9.353,9.353,0,0,0-1.32,4.416v13.156a16.174,16.174,0,0,1-2.691,4.6c-1.582,1.734-2.455,6.18-1.166,9.1a5.183,5.183,0,0,0,5.038,3.146H40.62a3,3,0,0,0,2.668-1.62l.473-.91a.643.643,0,0,1,.573-.348h1.551a.647.647,0,0,1,.522.266l.992,1.363a3,3,0,0,0,2.481,1.238A131.078,131.078,0,0,0,65.24,164.47a1.181,1.181,0,1,0-.337-2.338,128.591,128.591,0,0,1-15.064,1.13.646.646,0,0,1-.531-.266l-.992-1.363a3.015,3.015,0,0,0-2.432-1.238H44.334a3,3,0,0,0-2.668,1.62l-.473.91a.644.644,0,0,1-.573.348H5.66a2.837,2.837,0,0,1-2.878-1.738c-.925-2.1-.2-5.517.75-6.555a17.834,17.834,0,0,0,2.961-4.873c3.641-.336,20.6-1.609,30.869,2.607a48.95,48.95,0,0,0,15.619,3.668q4.218.257,7.814.257c7.629,0,13.143-.866,16.461-2.587a3.3,3.3,0,0,1,.911,2.846c-.625,2.1-4.868,3.469-7.341,4.1a1.181,1.181,0,1,0,.582,2.289c5.331-1.355,8.283-3.224,9.023-5.713.5-1.678-.054-3.484-1.639-5.376Zm-25.667,1.83a46.592,46.592,0,0,1-14.865-3.495c-10.427-4.282-26.679-3.247-31.419-2.828v-6.592c15.835-1.355,24.089.418,26.938,1.259a38.568,38.568,0,0,1,8.967,3.959A23.883,23.883,0,0,0,54.135,150.1a9.327,9.327,0,0,1,7.048,4.162C58.714,154.279,56.022,154.2,53.126,154.024Z" transform="translate(0 -124.109)"/>
        <path id="Trazado_1034960" data-name="Trazado 1034960" d="M55.872,323.765a1.181,1.181,0,1,0,0,2.362H67.39a1.181,1.181,0,1,0,0-2.362Z" transform="translate(-46.079 -292.327)"/>
      </g>
    </g>
  </g>
</svg>
