<svg xmlns="http://www.w3.org/2000/svg" xmlns:xlink="http://www.w3.org/1999/xlink" width="120" height="120" viewBox="0 0 120 120">
  <defs>
    <filter id="Rect치ngulo_405345" x="0" y="0" width="120" height="120" filterUnits="userSpaceOnUse">
      <feOffset dx="6" dy="7" input="SourceAlpha"/>
      <feGaussianBlur stdDeviation="4" result="blur"/>
      <feFlood flood-opacity="0.251"/>
      <feComposite operator="in" in2="blur"/>
      <feComposite in="SourceGraphic"/>
    </filter>
  </defs>
  <g id="Grupo_1179060" data-name="Grupo 1179060" transform="translate(-603.969 -3835.918)">
    <g transform="matrix(1, 0, 0, 1, 603.97, 3835.92)" filter="url(#Rect치ngulo_405345)">
      <g id="Rect치ngulo_405345-2" data-name="Rect치ngulo 405345" transform="translate(6 5)" fill="#cb98f5" stroke="#fff" stroke-width="3">
        <path d="M0,0H67A29,29,0,0,1,96,29V67A29,29,0,0,1,67,96H29A29,29,0,0,1,0,67V0A0,0,0,0,1,0,0Z" stroke="none"/>
        <path d="M1.5,1.5H67A27.5,27.5,0,0,1,94.5,29V67A27.5,27.5,0,0,1,67,94.5H29A27.5,27.5,0,0,1,1.5,67V1.5A0,0,0,0,1,1.5,1.5Z" fill="none"/>
      </g>
    </g>
    <g id="Grupo_1179065" data-name="Grupo 1179065" transform="translate(619.13 3867.951)">
      <g id="Grupo_1179068" data-name="Grupo 1179068" transform="translate(0.963 0.963)">
        <path id="Trazado_1034931" data-name="Trazado 1034931" d="M160.552,106.275v-.625a6.156,6.156,0,0,0-3.035-5.306l-.281-.165a.986.986,0,0,0-1.247.208l-12.726,14.845-17.839,8.941,1.648,4.322,35.376-10.275Z" transform="translate(-103.505 -100.044)" fill="#98bce5"/>
        <path id="Trazado_1034932" data-name="Trazado 1034932" d="M22.657,288.141H12.019a4.487,4.487,0,0,0-4.485,4.323l4.189,3.742,9.133.615,3.449-7.475Z" transform="translate(-7.53 -264.011)" fill="#efe2dd"/>
        <g id="Grupo_1179065-2" data-name="Grupo 1179065" transform="translate(7.388 6.232)">
          <path id="Trazado_1034933" data-name="Trazado 1034933" d="M132.3,165.568V176.62H65.094l3.311-3.578,6.111-6.523,24.858-5.542a4.318,4.318,0,0,0,1.983-1.006l11.609-10.644a2.865,2.865,0,0,1,1.926-.707h13.223a1.9,1.9,0,0,1,2.05,1.684v10.2a1.437,1.437,0,0,0,.359.935l.358.421A5.706,5.706,0,0,1,132.3,165.568Z" transform="translate(-65.094 -148.621)" fill="#7bacdf"/>
        </g>
        <g id="Grupo_1179067" data-name="Grupo 1179067" transform="translate(0 6.232)">
          <g id="XMLID_192_">
            <path id="Trazado_1034934" data-name="Trazado 1034934" d="M131.393,171.126H90.923c-1.516,0-1.8-1.77-.34-2.1l11.613-2.589a4.318,4.318,0,0,0,1.983-1.006l11.609-10.644a2.865,2.865,0,0,1,1.926-.707h12.451v-3.779a1.9,1.9,0,0,0-2.05-1.684H114.892a2.865,2.865,0,0,0-1.926.707l-11.609,10.644a4.318,4.318,0,0,1-1.983,1.006l-24.858,5.542L68.4,173.042l-3.311,3.578H132.3v-5.439A7.584,7.584,0,0,0,131.393,171.126Z" transform="translate(-57.706 -148.621)" fill="#5f99d7"/>
            <path id="Trazado_1034935" data-name="Trazado 1034935" d="M23.539,325.323,7.5,321.831v5.353a2.458,2.458,0,0,0,1.816,2.373l13.915,3.75a2.058,2.058,0,0,0,.25.053l3.43-.879v-5.15Z" transform="translate(-7.504 -299.611)" fill="#f3eae6"/>
            <g id="Grupo_1179066" data-name="Grupo 1179066" transform="translate(27.982 25.712)">
              <path id="Trazado_1034936" data-name="Trazado 1034936" d="M179.855,350.955v4.259a1.9,1.9,0,0,1-1.9,1.9h-45.5a2.21,2.21,0,0,1-.368-.029l.054-8.037h45.814A1.9,1.9,0,0,1,179.855,350.955Z" transform="translate(-132.084 -349.051)" fill="#faf7f7"/>
            </g>
          </g>
          <circle id="Elipse_11707" data-name="Elipse 11707" cx="6.486" cy="6.486" r="6.486" transform="translate(56.36 8.808)" fill="#f3eae6"/>
          <path id="Trazado_1034937" data-name="Trazado 1034937" d="M383.648,245.209l.182.561a.8.8,0,0,0,.758.551h.59a.8.8,0,0,1,.468,1.441l-.477.347a.8.8,0,0,0-.289.891l.182.561a.8.8,0,0,1-1.226.891l-.477-.347a.8.8,0,0,0-.937,0l-.477.347a.8.8,0,0,1-1.226-.891L380.9,249a.8.8,0,0,0-.289-.891l-.477-.347a.8.8,0,0,1,.468-1.441h.59a.8.8,0,0,0,.758-.551l.182-.561A.8.8,0,0,1,383.648,245.209Z" transform="translate(-322.09 -232.339)" fill="#5f99d7"/>
        </g>
      </g>
      <g id="Grupo_1179069" data-name="Grupo 1179069" transform="translate(0 0)">
        <path id="Trazado_1034938" data-name="Trazado 1034938" d="M76.312,125.052v-8.371a6.637,6.637,0,0,0-1.587-4.259L74.377,112a.6.6,0,0,1-.143-.384v-10.2A2.921,2.921,0,0,0,71.1,98.772H68.947a.976.976,0,1,0,0,1.924H71.1a.8.8,0,0,1,.853.722v10.2a2.317,2.317,0,0,0,.554,1.487l.348.421a4.918,4.918,0,0,1,1.176,3.156v7.8H20.226l-5.135-.945,4.606-5.062,1.5-.343.742,1.438a1.163,1.163,0,0,0,1.044.578,1.316,1.316,0,0,0,.454-.08.912.912,0,0,0,.588-1.267l-.608-1.179,3.233-.742.933,1.535a1.179,1.179,0,0,0,1.013.523,1.3,1.3,0,0,0,.519-.107.9.9,0,0,0,.492-1.3l-.712-1.171,3.6-.825.983,1.227a1.207,1.207,0,0,0,.943.423,1.283,1.283,0,0,0,.637-.166.874.874,0,0,0,.3-1.336l-.546-.681,3.253-.746.783,1.089a1.2,1.2,0,0,0,.973.462,1.293,1.293,0,0,0,.59-.14.882.882,0,0,0,.381-1.322l-.441-.614,3.13-.718c.092-.021.183-.046.273-.072l.658.849a1.2,1.2,0,0,0,.953.435,1.286,1.286,0,0,0,.623-.158.877.877,0,0,0,.328-1.332l-.612-.79q.132-.108.255-.224l2.245-2.118,1.066,1.417a1.2,1.2,0,0,0,.961.446,1.289,1.289,0,0,0,.61-.15.879.879,0,0,0,.349-1.328l-1.409-1.873,2.2-2.076.767.96a1.207,1.207,0,0,0,.944.424,1.284,1.284,0,0,0,.636-.165.874.874,0,0,0,.306-1.336l-1.087-1.36,2.074-1.957.291.362a1.207,1.207,0,0,0,.942.421,1.284,1.284,0,0,0,.639-.167.874.874,0,0,0,.3-1.337l-.608-.756.052-.05a1.5,1.5,0,0,1,1.023-.387H64.1a.976.976,0,1,0,0-1.924H61.7a7.084,7.084,0,0,0-4.139-5.8l-.332-.165a2.6,2.6,0,0,0-2.915.411l-14.9,14.7L18.76,116.669H13.093a.976.976,0,1,0,0,1.924h3.624l-4.087,4.491L2.419,121.2a4.123,4.123,0,0,1,4.028-2.611h1.8a.976.976,0,1,0,0-1.924h-1.8C2.892,116.67,0,119.115,0,122.121v5.187a3.574,3.574,0,0,0,2.991,3.3l16.457,3.751a4.626,4.626,0,0,0,1.027.115H74.288a3.165,3.165,0,0,0,3.39-2.866V127.35A2.748,2.748,0,0,0,76.312,125.052ZM29.7,114.186l1.271-.539.167.209Zm3.76-.863-.437-.545,3.044-1.29.764,1.062Zm10.957-3.029L42.5,107.826l2.5-2.467,1.927,2.562Zm4.092-3.862-1.956-2.6,2.045-2.018,2.065,2.585Zm3.72-3.511-2.1-2.622,2.022-1.994,2.142,2.664Zm3.813-8.45a.03.03,0,0,1,.034,0l.332.165a5.188,5.188,0,0,1,3.015,4.14H58.257a4.07,4.07,0,0,0-2.376.745L53.69,96.792Zm-15.4,15.079a1.141,1.141,0,0,0,.322-.205l1.485,1.916-3.328.764-1.008-1.4ZM2.276,127.307v-4.159l16.69,3.073v6.036L3.583,128.75a1.562,1.562,0,0,1-1.308-1.443Zm72.012,5.243H21.241v-2.109H64.925a.976.976,0,1,0,0-1.924H21.241v-2.109H74.288a1.04,1.04,0,0,1,1.114.942v1.167H69.774a.976.976,0,1,0,0,1.924H75.4v1.167A1.04,1.04,0,0,1,74.288,132.55Z" transform="translate(0 -92.539)"/>
        <path id="Trazado_1034939" data-name="Trazado 1034939" d="M374.685,238.373l-.145.447h-.47A1.759,1.759,0,0,0,373.036,242l.38.276-.145.447a1.758,1.758,0,0,0,2.707,1.967l.38-.276.38.276a1.759,1.759,0,0,0,2.707-1.967l-.145-.447.38-.276a1.759,1.759,0,0,0-1.034-3.182h-.47l-.145-.447a1.759,1.759,0,0,0-3.346,0Zm3.371,2.371h.081l-.066.048a1.754,1.754,0,0,0-.639,1.967l.025.077-.066-.048a1.754,1.754,0,0,0-2.068,0l-.066.048.025-.077a1.755,1.755,0,0,0-.639-1.967l-.066-.048h.081a1.754,1.754,0,0,0,1.673-1.215l.025-.077.025.077a1.755,1.755,0,0,0,1.673,1.216Z" transform="translate(-312.549 -218.605)"/>
        <path id="Trazado_1034940" data-name="Trazado 1034940" d="M345.8,217.232a7.449,7.449,0,1,0,7.449-7.449A7.457,7.457,0,0,0,345.8,217.232Zm12.973,0a5.524,5.524,0,1,1-5.524-5.524A5.531,5.531,0,0,1,358.772,217.232Z" transform="translate(-289.439 -194.743)"/>
        <path id="Trazado_1034941" data-name="Trazado 1034941" d="M306.214,306.982h-.829a.962.962,0,1,0,0,1.924h.829a.962.962,0,1,0,0-1.924Z" transform="translate(-257.922 -279.473)"/>
        <path id="Trazado_1034942" data-name="Trazado 1034942" d="M264.243,306.982a.962.962,0,0,0,0,1.924h.829a.962.962,0,1,0,0-1.924Z" transform="translate(-223.065 -279.473)"/>
      </g>
    </g>
  </g>
</svg>
