<svg xmlns="http://www.w3.org/2000/svg" xmlns:xlink="http://www.w3.org/1999/xlink" width="865" height="460" viewBox="0 0 865 460">
  <defs>
    <filter id="Rectángulo_405156" x="0" y="0" width="865" height="460" filterUnits="userSpaceOnUse">
      <feOffset dy="6" input="SourceAlpha"/>
      <feGaussianBlur stdDeviation="7.5" result="blur"/>
      <feFlood flood-opacity="0.078"/>
      <feComposite operator="in" in2="blur"/>
      <feComposite in="SourceGraphic"/>
    </filter>
    <clipPath id="clip-path">
      <rect id="Rectángulo_405160" data-name="Rectángulo 405160" width="820" height="415" rx="8" transform="translate(390.051 2631)" fill="#f9f4fd" stroke="#cb98f5" stroke-width="3" stroke-dasharray="4"/>
    </clipPath>
    <linearGradient id="linear-gradient" x1="0.564" y1="0.948" x2="0.531" y2="0.062" gradientUnits="objectBoundingBox">
      <stop offset="0" stop-color="#fff"/>
      <stop offset="1" stop-color="#fff" stop-opacity="0"/>
    </linearGradient>
    <filter id="Elipse_11530" x="494.245" y="-160.75" width="633.265" height="633.265" filterUnits="userSpaceOnUse">
      <feOffset dy="19" input="SourceAlpha"/>
      <feGaussianBlur stdDeviation="23.5" result="blur-2"/>
      <feFlood flood-opacity="0.161"/>
      <feComposite operator="in" in2="blur-2"/>
      <feComposite in="SourceGraphic"/>
    </filter>
    <radialGradient id="radial-gradient" cx="0.5" cy="0.5" r="0.5" gradientUnits="objectBoundingBox">
      <stop offset="0" stop-color="#eafbfb"/>
      <stop offset="0.644" stop-color="#eafbfb"/>
      <stop offset="1" stop-color="#eafbfb" stop-opacity="0"/>
    </radialGradient>
    <filter id="Elipse_11530-2" x="-262.755" y="142.559" width="633.265" height="633.265" filterUnits="userSpaceOnUse">
      <feOffset dy="19" input="SourceAlpha"/>
      <feGaussianBlur stdDeviation="23.5" result="blur-3"/>
      <feFlood flood-opacity="0.161"/>
      <feComposite operator="in" in2="blur-3"/>
      <feComposite in="SourceGraphic"/>
    </filter>
  </defs>
  <g id="Grupo_1179086" data-name="Grupo 1179086" transform="translate(-367.551 -2326.758)">
    <g transform="matrix(1, 0, 0, 1, 367.55, 2326.76)" filter="url(#Rectángulo_405156)">
      <g id="Rectángulo_405156-2" data-name="Rectángulo 405156" transform="translate(22.5 16.5)" fill="#ead5fa" stroke="#cb98f5" stroke-width="3" stroke-dasharray="4">
        <rect width="820" height="415" rx="8" stroke="none"/>
        <rect x="1.5" y="1.5" width="817" height="412" rx="6.5" fill="none"/>
      </g>
    </g>
    <g id="Enmascarar_grupo_1098738" data-name="Enmascarar grupo 1098738" transform="translate(0 -287.742)" clip-path="url(#clip-path)">
      <g id="Grupo_1178054" data-name="Grupo 1178054" transform="translate(8788.002 22388.25)">
        <g transform="matrix(1, 0, 0, 1, -8420.45, -19773.75)" filter="url(#Elipse_11530)">
          <path id="Elipse_11530-3" data-name="Elipse 11530" d="M246.133,100.668c-80.21,0-145.465,65.255-145.465,145.465S165.923,391.6,246.133,391.6,391.6,326.342,391.6,246.133,326.342,100.668,246.133,100.668M246.133,0C382.068,0,492.265,110.2,492.265,246.133s-110.2,246.133-246.133,246.133S0,382.068,0,246.133,110.2,0,246.133,0Z" transform="translate(564.75 -109.25)" fill="url(#linear-gradient)"/>
        </g>
        <circle id="Elipse_11673" data-name="Elipse 11673" cx="262.901" cy="262.901" r="262.901" transform="translate(-7865.61 -19636.867)" fill="url(#radial-gradient)"/>
        <circle id="Elipse_11676" data-name="Elipse 11676" cx="262.901" cy="262.901" r="262.901" transform="translate(-8410.609 -20010.867)" fill="url(#radial-gradient)"/>
        <circle id="Elipse_11677" data-name="Elipse 11677" cx="262.901" cy="262.901" r="262.901" transform="translate(-8640.609 -19786.539)" fill="#f9f4fd"/>
        <circle id="Elipse_11674" data-name="Elipse 11674" cx="236.901" cy="236.901" r="236.901" transform="translate(-8169.002 -19497.637)" fill="#ead5fa"/>
        <circle id="Elipse_11675" data-name="Elipse 11675" cx="236.901" cy="236.901" r="236.901" transform="translate(-8690.002 -20032.67)" fill="#ead5fa"/>
        <g transform="matrix(1, 0, 0, 1, -8420.45, -19773.75)" filter="url(#Elipse_11530-2)">
          <path id="Elipse_11530-4" data-name="Elipse 11530" d="M246.133,100.668c-80.21,0-145.465,65.255-145.465,145.465S165.923,391.6,246.133,391.6,391.6,326.342,391.6,246.133,326.342,100.668,246.133,100.668M246.133,0C382.068,0,492.265,110.2,492.265,246.133s-110.2,246.133-246.133,246.133S0,382.068,0,246.133,110.2,0,246.133,0Z" transform="translate(-192.25 194.06)" fill="url(#linear-gradient)"/>
        </g>
      </g>
    </g>
    <g id="Grupo_1178048" data-name="Grupo 1178048" transform="translate(332.051 -289.093)">
      <g id="Grupo_1179046" data-name="Grupo 1179046" transform="translate(77.576 2311.921)">
        <path id="Trazado_1034893" data-name="Trazado 1034893" d="M636.781,966.782l-.149-.244c-1.941.688-3.881,1.327-5.8,1.905C632.846,967.981,634.829,967.42,636.781,966.782Z" transform="translate(-388.732 -409.688)" fill="#e3454d"/>
        <path id="Trazado_1034894" data-name="Trazado 1034894" d="M509.82,925.374a5.392,5.392,0,0,0,2.979,3.605,9.444,9.444,0,0,0,1.884.663c.368.081.735.175,1.105.243a19.466,19.466,0,0,0,3.226.253c5.765.007,13.535-1.949,21.273-4.668-.771-1.272-1.513-2.511-2.2-3.661-1.358-2.274-2.514-4.218-3.277-5.411a187.914,187.914,0,0,1-25,8.958C509.812,925.361,509.818,925.366,509.82,925.374Z" transform="translate(-293.327 -370.158)" fill="#e3454d"/>
        <path id="Trazado_1034895" data-name="Trazado 1034895" d="M1270.977,455.2s-7.154,5.458-17.427,13.241a4.111,4.111,0,0,1,.834.893h0s2.275,3.491,4.892,7.7c.964,1.552,1.972,3.2,2.933,4.805,7.34-4.339,12.622-7.408,14.576-8.45a18.239,18.239,0,0,1,8.692-2.193,25.355,25.355,0,0,1,12.6,3.806c.141.039.282.08.423.119.027.059.054.125.082.185.7.422,1.368.857,2,1.3C1293.325,466.991,1286.848,457.212,1270.977,455.2Z" transform="translate(-879.665 -6.57)" fill="#e3454d"/>
        <path id="Trazado_1034896" data-name="Trazado 1034896" d="M1115.941,585.4h0s2.275,3.491,4.892,7.7c.384.618.775,1.252,1.167,1.891,4.765-2.873,9.412-5.667,13.807-8.3-1.546-2.458-3.06-4.992-4.379-7.208-1.071-1.8-2.017-3.394-2.734-4.55-4.308,3.245-8.767,6.595-13.207,9.918A3.79,3.79,0,0,1,1115.941,585.4Z" transform="translate(-770.82 -100.956)" fill="#e3454d"/>
        <path id="Trazado_1034897" data-name="Trazado 1034897" d="M577.9,740.707c-8.645-5.687-51.871-10.56-59.825-7.778a62.179,62.179,0,0,0-11.806,5.72c-3.633,8.308-9.728,17.593-17.062,26.866a255.153,255.153,0,0,1-34.723,35.7c-7.829,6.549-15.219,11.73-21.233,14.668-3.443,1.674-6.428,2.636-8.9,2.643l-.245,0q-.415-.011-.892-.011c-3.648,0-9.979.5-17.927,1.322s-17.535,1.961-27.759,3.232c-20.448,2.544-43.45,5.616-61.1,7.729-11.773,1.409-21.142,2.392-25.871,2.509q-.258.006-.512.006a19.653,19.653,0,0,1-9.762-2.577,29.43,29.43,0,0,1-7.7-6.507c-4.553-5.244-8.117-11.918-11.412-17.871a78.677,78.677,0,0,0-6.374-10.271,29.2,29.2,0,0,0-12.244-9.316,20.425,20.425,0,0,0-6.422-1.5h-.015a.859.859,0,0,1-.505-.184c-22.886,6.33-37.184,10.954-45.914,15.522-2.444,3.2-4.43,6.928-4.293,10.493.346,8.991-2.767,16.726,12.8,21.331s24.553,8.336,45.3,8.373,84.378-3.295,102.706-8.373,69.854-9.573,89.565-7.5c14.073,1.481,35.016,4.9,50.252,7.24a34.1,34.1,0,0,1,5.4-10.463,54.251,54.251,0,0,1,15.7-13.436c12.4-7.43,27.746-12.224,40.432-16.444,8.451-2.805,15.736-5.376,20.069-8.183,4.031-2.6,7.232-6.786,9.737-11.715a72.788,72.788,0,0,0,5.6-16.048c.394-1.672.736-3.32,1.039-4.931A14.088,14.088,0,0,0,577.9,740.707Z" transform="translate(-37.539 -224.883)" fill="#e3454d"/>
        <path id="Trazado_1034898" data-name="Trazado 1034898" d="M988.715,686.619a4.164,4.164,0,0,1,1.17,1.159h0s1.748,2.684,3.943,6.181c3.5-2.145,7.074-4.323,10.661-6.505-.939-1.54-1.841-3.052-2.667-4.44-.982-1.651-1.854-3.12-2.546-4.245-3.793,2.8-7.383,5.436-10.642,7.8C988.659,686.589,988.691,686.6,988.715,686.619Z" transform="translate(-670.815 -182.82)" fill="#e3454d"/>
        <path id="Trazado_1034899" data-name="Trazado 1034899" d="M849.718,775.934h0s2.18,3.346,4.725,7.434c3.723-2.361,7.918-4.99,12.443-7.8-.563-.935-1.11-1.848-1.624-2.708-.961-1.609-1.82-3.052-2.511-4.182Q856.172,772.3,849.7,775.9Z" transform="translate(-561.282 -253.7)" fill="#e3454d"/>
        <path id="Trazado_1034900" data-name="Trazado 1034900" d="M747.713,570.059l-.105-.118c-.073-.082-.183-.2-.329-.358-.291-.31-.722-.756-1.277-1.293a44.58,44.58,0,0,0-4.68-3.938c-.2-.142-.41-.283-.612-.425a61.945,61.945,0,0,1,2.783,9.626c-.05-.247.242,1.622.394,2.466.053.861.206,2.706.194,2.455q.1,2.147.019,4.3c-.008.208-.26,3.006-.177,2.732-1.558,10.1-6.535,17.1-13.555,24.015q-1.472,1.449-3.028,2.809c-.031.027-1.822,1.48-2.05,1.7-1.576,1.169-3.211,2.266-4.874,3.3a110.783,110.783,0,0,1-13.1,6.871c-2.965,1.338-7.681,3.2-12.535,5.071a138.946,138.946,0,0,0-18.46,8.594c-10.852,6.136-20.792,13.7-31.105,20.669-9.945,6.719-20.521,12.562-31.458,16.389a132.205,132.205,0,0,1-17.9,4.872,46.5,46.5,0,0,1-14.026.12c-6.981-1.379-13.43-3.907-20.094-6.318-5.646-2.042-5.806-2.534-14.192-3.733.513.23-1.818.418-3.165.587,1.539,2.723,3.1,5.639,4.768,8.54,3.516,6.135,7.489,12.151,12.461,15.913a18.539,18.539,0,0,0,11.467,4.042q.231,0,.469-.006c3.424-.083,9.57-.654,17.375-1.528s17.293-2.051,27.459-3.344c20.334-2.587,43.4-5.638,61.283-7.666,11.931-1.352,21.534-2.251,26.584-2.253q.5,0,.941.012l.2,0a16.09,16.09,0,0,0,5.746-1.4,52.948,52.948,0,0,0,7.7-4.032A149.31,149.31,0,0,0,739.742,664.4c13.484-11.77,27.845-27.207,37.943-41.742a111.5,111.5,0,0,0,9.057-15.228,30.017,30.017,0,0,0-18.29-7.1c-7.171-.21-9.747-7.137-10.675-12.14a41.82,41.82,0,0,1-4.451-11.662,1.754,1.754,0,0,1,.3-1.35,42.879,42.879,0,0,1-5.5-4.867A.86.86,0,0,1,747.713,570.059Z" transform="translate(-320.585 -92.283)" fill="#e3454d"/>
        <path id="Trazado_1034901" data-name="Trazado 1034901" d="M888.938,808.361l-1.984,1.233c-3.768,2.347-7.276,4.549-10.445,6.558l.352.572q6.246-3.844,12.477-7.708C889.2,808.8,889.07,808.58,888.938,808.361Z" transform="translate(-582.418 -284.986)" fill="#e3454d"/>
        <path id="Trazado_1034902" data-name="Trazado 1034902" d="M493.529,960.939l-2.221.594c1,.5,2.028.963,3.069,1.4A7.185,7.185,0,0,1,493.529,960.939Z" transform="translate(-278.741 -405.273)" fill="#e3454d"/>
        <path id="Trazado_1034903" data-name="Trazado 1034903" d="M719.795,861.987c.413.665.835,1.35,1.257,2.039,3.118-1.576,5.8-3.075,7.787-4.338a28.75,28.75,0,0,0,2.415-1.683c-1.007-1.649-1.973-3.261-2.852-4.733-1.059-1.773-1.99-3.336-2.713-4.509q-5.393,2.883-10.735,5.6C715.282,854.868,717.391,858.119,719.795,861.987Z" transform="translate(-455.054 -316.837)" fill="#e3454d"/>
        <path id="Trazado_1034904" data-name="Trazado 1034904" d="M1164.442,637.523c-1.589.952-3.2,1.916-4.846,2.906-2.922,1.755-5.934,3.568-8.99,5.411q.5.823.985,1.639c4.7-2.679,9.352-5.433,13.913-8.331C1165.152,638.618,1164.8,638.074,1164.442,637.523Z" transform="translate(-798.508 -150.303)" fill="#e3454d"/>
        <path id="Trazado_1034905" data-name="Trazado 1034905" d="M1028.241,726.907c-3.585,2.18-7.149,4.355-10.65,6.5l.014.023c.15.241.3.491.456.737q5.371-3.182,10.815-6.241C1028.664,727.585,1028.451,727.247,1028.241,726.907Z" transform="translate(-693.643 -220.77)" fill="#e3454d"/>
        <path id="Trazado_1034906" data-name="Trazado 1034906" d="M1695.08,817.1c-3.5,2.253-8.491,4.244-14.351,6.3s-12.574,4.152-19.458,6.557c-13.767,4.8-28.191,10.846-37.645,19.969a34.841,34.841,0,0,0-9.356,14.489c5.346.814,9.887,1.473,13.014,1.83,12.1,1.383,56.021-10.756,70.545-17.827s22.478-8.107,27.319-20.9,10.72-41.844,6.224-46.339-11.066-11.958-13.486-6.671c-1.823,3.98-5.211,10.84-6.776,13.989a76.161,76.161,0,0,1-5.169,15.181C1703.279,809.205,1699.771,814.065,1695.08,817.1Z" transform="translate(-1164.044 -256.856)" fill="#e3454d"/>
        <path id="Trazado_1034907" data-name="Trazado 1034907" d="M610.675,636.4c-.963.269-1.913.512-2.854.742.1.181.209.376.336.6.568.991,1.4,2.37,2.467,3.9a37.152,37.152,0,0,0,8.729,9.233,14.577,14.577,0,0,0,7.671,2.861c.176.007.361.01.552.01a46.6,46.6,0,0,0,12.237-2.355,152.946,152.946,0,0,0,17.153-6.468,198.49,198.49,0,0,0,37.095-21.218c8.563-6.377,19.923-12.278,31.352-17.873s22.922-10.874,31.695-15.943c5.847-3.373,10.481-6.672,13.035-9.791,3.409-4.145,4.583-9.512,4.583-14.9.008-9.058-3.332-18.013-4.385-20.6a17.434,17.434,0,0,0-1.795.826c-1.734.924-6.362,3.6-12.807,7.407-.507.431-1.026.852-1.542,1.275,1.222,2.093,2.295,4.029,2.988,5.484a10.311,10.311,0,0,1,.806,2.1v.006a3.671,3.671,0,0,1,.067.7,7.509,7.509,0,0,1-1.162,3.577,17.184,17.184,0,0,1-2.871,3.623c-2.349,2.275-5.43,4.164-8.624,4.3h-.071a2.986,2.986,0,0,1-1.665-.63,10.455,10.455,0,0,1-1.582-1.425,41.482,41.482,0,0,1-3.541-4.553c-.315-.455-.633-.924-.952-1.4-4.562,2.9-9.213,5.652-13.913,8.331,1.6,2.677,3.045,5.231,3.908,7.043a10.329,10.329,0,0,1,.806,2.1v.009a3.664,3.664,0,0,1,.066.7,7.505,7.505,0,0,1-1.162,3.577,17.187,17.187,0,0,1-2.871,3.623c-2.349,2.276-5.43,4.165-8.624,4.3h-.072a2.989,2.989,0,0,1-1.665-.63,10.464,10.464,0,0,1-1.581-1.425,41.425,41.425,0,0,1-3.541-4.553c-1.024-1.479-2.079-3.109-3.117-4.765q-5.447,3.056-10.815,6.241c2.5,4.042,5.2,8.561,6.523,11.341a10.323,10.323,0,0,1,.806,2.1v.009a3.652,3.652,0,0,1,.066.7,7.507,7.507,0,0,1-1.161,3.577,17.188,17.188,0,0,1-2.871,3.623c-2.349,2.276-5.429,4.165-8.624,4.3h-.068a3,3,0,0,1-1.712-.688,11.687,11.687,0,0,1-1.652-1.547,48.461,48.461,0,0,1-3.794-4.959c-1.649-2.4-3.382-5.153-5.013-7.82q-6.237,3.854-12.477,7.708c2.3,3.749,4.655,7.737,5.864,10.274a10.321,10.321,0,0,1,.806,2.1v.006a3.618,3.618,0,0,1,.067.7,7.509,7.509,0,0,1-1.162,3.577,17.193,17.193,0,0,1-2.871,3.623c-2.349,2.275-5.43,4.165-8.624,4.3h-.068a3,3,0,0,1-1.712-.688,11.688,11.688,0,0,1-1.652-1.547,48.435,48.435,0,0,1-3.794-4.959c-1.367-1.99-2.793-4.223-4.171-6.449a43.691,43.691,0,0,1-4.7,3.054c-1.6.929-3.475,1.932-5.51,2.963,1.936,3.2,3.78,6.386,4.8,8.532a10.309,10.309,0,0,1,.806,2.1v.006a3.619,3.619,0,0,1,.067.7,7.51,7.51,0,0,1-1.162,3.577,17.2,17.2,0,0,1-2.871,3.623c-2.349,2.275-5.43,4.165-8.624,4.3h-.068a2.99,2.99,0,0,1-1.711-.687,11.68,11.68,0,0,1-1.652-1.547,48.475,48.475,0,0,1-3.795-4.959c-1.531-2.229-3.134-4.761-4.662-7.248-1.952.638-3.934,1.2-5.954,1.662C612.016,636.008,611.342,636.213,610.675,636.4Z" transform="translate(-370.595 -77.048)" fill="#c42f3b"/>
        <path id="Trazado_1034908" data-name="Trazado 1034908" d="M466.358,650.311c8.386,1.2,8.546,1.691,14.192,3.733,6.664,2.411,13.113,4.939,20.094,6.318a46.494,46.494,0,0,0,14.026-.12,132.215,132.215,0,0,0,17.9-4.872c10.938-3.827,21.513-9.669,31.458-16.389,10.313-6.968,20.253-14.532,31.105-20.669a138.946,138.946,0,0,1,18.46-8.594c4.855-1.873,9.571-3.733,12.535-5.071a110.783,110.783,0,0,0,13.1-6.871c1.663-1.037,3.3-2.135,4.874-3.3.228-.22,2.019-1.673,2.05-1.7q1.555-1.359,3.028-2.809c7.02-6.915,12-13.915,13.555-24.014-.084.274.169-2.524.177-2.732q.082-2.148-.019-4.3c.012.251-.141-1.594-.194-2.455-.152-.844-.444-2.713-.394-2.466a61.94,61.94,0,0,0-2.783-9.626c-3.866-2.713-8.953-5.257-14.312-5.249a16.414,16.414,0,0,0-4.394.6c1.139,2.814,4.467,11.8,4.476,21.157,0,5.628-1.22,11.433-4.983,16.019-2.827,3.429-7.59,6.769-13.516,10.2s-13.015,6.911-20.464,10.512c-14.893,7.2-31.233,14.858-42.411,23.192-16.782,12.5-39.315,23.3-54.794,27.961a48.094,48.094,0,0,1-12.745,2.43q-.32,0-.621-.012a16.318,16.318,0,0,1-8.608-3.175,33.974,33.974,0,0,1-6.672-6.355,54.86,54.86,0,0,1-5.638-8.416,46.715,46.715,0,0,1-9.755,1.237,15.726,15.726,0,0,1-7.007-1.346,7.352,7.352,0,0,1-3.044-2.736c-1.041-.438-2.067-.9-3.069-1.4h0l-.45.121-2.676.719-.781.21-2.388.645-.758.206-2.475.674-.526.143-.509.14a25.585,25.585,0,0,1,3.282.986,30.862,30.862,0,0,1,13.35,10,64.318,64.318,0,0,1,5.165,8.061C464.54,650.729,466.871,650.54,466.358,650.311Z" transform="translate(-239.392 -72.729)" fill="#c42f3b"/>
        <path id="Trazado_1034909" data-name="Trazado 1034909" d="M1563.358,690.708a30.017,30.017,0,0,1,18.29,7.1,50.357,50.357,0,0,0,3.694-10.025c-5.815.4-10.885.694-14.843.694a31.339,31.339,0,0,1-6.449-.486c-5.256-1.183-8.907-5.2-11.367-9.425C1553.611,683.571,1556.188,690.5,1563.358,690.708Z" transform="translate(-1115.491 -182.662)" fill="#c42f3b"/>
        <path id="Trazado_1034910" data-name="Trazado 1034910" d="M1726.3,734.971c4.5,4.5-1.383,33.544-6.224,46.339s-12.8,13.832-27.319,20.9-58.442,19.211-70.545,17.827c-3.126-.357-7.668-1.016-13.014-1.83a31.742,31.742,0,0,0-1.362,6.736c10.345,1.622,20.452,3.092,32.451,3.842.917.057,1.88.086,2.863.086,16.694,0,40.1-8.247,60.752-15.523,17.816-6.277,33.2-11.7,42.875-11.7a16.614,16.614,0,0,1,4.87.64c-.007-.334-.013-.664-.013-.973h0c0-.17,0-.356-.007-.554,0-.068,0-.143-.006-.215,0-.139-.008-.28-.014-.431,0-.086-.006-.176-.011-.266-.006-.147-.012-.3-.02-.455,0-.1-.01-.2-.015-.309-.009-.167-.019-.34-.029-.517-.006-.1-.011-.2-.018-.309-.013-.222-.029-.453-.045-.689,0-.069-.008-.134-.013-.2q-.032-.466-.069-.967c-.007-.094-.015-.194-.023-.29-.019-.25-.039-.5-.06-.767-.01-.131-.021-.267-.032-.4-.018-.229-.038-.461-.058-.7q-.021-.239-.042-.483c-.02-.23-.04-.464-.062-.7-.015-.17-.03-.34-.046-.514-.024-.258-.048-.523-.073-.79-.014-.155-.028-.307-.043-.464-.04-.424-.081-.856-.124-1.3-.006-.06-.012-.122-.018-.183q-.057-.582-.117-1.183c-.018-.182-.037-.369-.056-.554-.03-.3-.061-.6-.091-.9-.02-.2-.041-.4-.062-.594q-.046-.448-.094-.9l-.063-.607-.106-1c-.021-.2-.042-.392-.063-.591-.039-.357-.079-.72-.119-1.084-.019-.174-.037-.345-.057-.52q-.087-.792-.179-1.6c-.02-.178-.04-.361-.061-.54-.043-.384-.087-.769-.132-1.159-.026-.231-.053-.464-.08-.7-.039-.34-.079-.681-.118-1.025-.029-.249-.058-.5-.087-.751q-.062-.525-.124-1.057c-.029-.243-.057-.485-.086-.729-.045-.378-.09-.76-.136-1.142-.027-.232-.055-.463-.083-.7q-.107-.9-.218-1.805c-.012-.1-.025-.2-.036-.3q-.1-.775-.191-1.56c-.031-.249-.062-.5-.093-.753-.047-.38-.094-.759-.142-1.142-.036-.289-.072-.58-.109-.87q-.068-.542-.136-1.087-.052-.411-.1-.824-.077-.607-.155-1.218l-.1-.752q-.081-.632-.164-1.27c-.035-.271-.07-.541-.1-.813q-.121-.926-.243-1.859c-.03-.225-.06-.452-.089-.678q-.088-.665-.177-1.333-.057-.43-.115-.862-.076-.566-.152-1.133c-.042-.312-.083-.625-.126-.937q-.074-.551-.149-1.1-.065-.479-.131-.959-.078-.574-.157-1.149-.062-.442-.122-.885-.078-.564-.156-1.128-.126-.9-.253-1.81-.074-.527-.148-1.055-.063-.45-.127-.9-.082-.579-.165-1.158-.068-.48-.137-.959-.077-.535-.154-1.07-.072-.5-.144-1-.077-.526-.153-1.051c-.049-.335-.1-.671-.148-1.006q-.085-.583-.172-1.164-.062-.417-.123-.833-.144-.966-.289-1.927c-.043-.289-.087-.575-.13-.863q-.086-.568-.172-1.134-.074-.486-.148-.97l-.153-1q-.078-.5-.155-1l-.155-.989q-.077-.5-.155-.99c-.053-.341-.107-.68-.161-1.019-.047-.3-.095-.6-.143-.9q-.12-.751-.24-1.493-.091-.563-.182-1.121c-.061-.371-.121-.742-.181-1.11-.048-.289-.095-.575-.143-.862q-.083-.5-.167-1-.075-.448-.15-.892-.081-.48-.162-.956-.074-.437-.148-.871-.085-.494-.169-.982c-.047-.274-.095-.55-.143-.821-.063-.363-.127-.722-.189-1.081-4.441,4.184-11.786,6.389-21.368,6.389a74.145,74.145,0,0,1-9.829-.7c-.126,2.3-.436,6.553-1.178,11.716-.479,3.322-1.15,7.021-2.052,10.808,1.565-3.15,4.953-10.009,6.776-13.989C1715.234,723.013,1721.8,730.475,1726.3,734.971Z" transform="translate(-1158.971 -210.655)" fill="#c42f3b"/>
        <path id="Trazado_1034911" data-name="Trazado 1034911" d="M147.24,1085.32a46.629,46.629,0,0,0,2.034,6.722,1.757,1.757,0,0,1,1.346,0c.329.136,33.213,13.631,58.387,13.631,1.171,0,2.323-.029,3.424-.087,9.678-.51,31.448-3.035,56.655-5.958,43.537-5.05,97.72-11.334,123.951-11.334,24.61,0,41.789,2.719,58.4,5.348l2.266.357a33.417,33.417,0,0,1,1.341-6.731c-15.237-2.339-36.18-5.758-50.252-7.24-19.711-2.075-71.237,2.421-89.565,7.5s-81.957,8.409-102.706,8.373-29.739-3.768-45.3-8.373-12.449-12.34-12.8-21.331c-.137-3.566,1.849-7.293,4.293-10.494a35.323,35.323,0,0,0-6.955,4.585l-.023.02q-.519.456-.981.92l-.038.038q-.457.461-.863.929l-.03.035q-.408.475-.765.959l0,.006a14.362,14.362,0,0,0-1.72,3.042l-.029.069c-.134.328-.254.661-.364,1-.012.038-.025.077-.037.115q-.157.5-.28,1c-.011.045-.022.091-.033.136q-.118.508-.208,1.032c-.007.045-.014.09-.021.134-.058.356-.107.716-.145,1.083,0,.032-.006.064-.009.1-.039.383-.068.772-.087,1.168h0q-.065,1.362-.058,2.714a50.461,50.461,0,0,0,.673,7.963Q146.958,1084.049,147.24,1085.32Z" transform="translate(-6.567 -479.981)" fill="#c42f3b"/>
        <path id="Trazado_1034912" data-name="Trazado 1034912" d="M1773.31,724.553a14.088,14.088,0,0,1,6.1,10.243,135.336,135.336,0,0,0,2.088-17.221,94.884,94.884,0,0,1-14.849-3.559c-4.9-1.6-12.244-2.383-22.459-2.383-10.962,0-23.34.907-34.261,1.707-1.826.134-3.585.262-5.3.384a47.5,47.5,0,0,1-2.952,8.771,62.169,62.169,0,0,1,11.806-5.719C1721.438,713.992,1764.665,718.866,1773.31,724.553Z" transform="translate(-1232.954 -208.729)" fill="#c42f3b"/>
        <path id="Trazado_1034913" data-name="Trazado 1034913" d="M630.878,880.488h0c1.29,1.943,3.924,6.526,6.851,11.3s6.141,9.7,8.434,12.156a7.318,7.318,0,0,0,1.6,1.39.851.851,0,0,0,.328.125h0a10.745,10.745,0,0,0,5.747-2.339,16.408,16.408,0,0,0,4.286-4.7,5.873,5.873,0,0,0,.925-2.7,1.842,1.842,0,0,0-.034-.359,6.518,6.518,0,0,0-.412-1.13c-.23-.522-.544-1.16-.919-1.877-.752-1.435-1.75-3.186-2.838-5.024-2.177-3.678-4.715-7.709-6.4-10.343-1.121-1.756-1.858-2.886-1.859-2.89l-.012-.02h0l-.018-.026-.112-.139a3.059,3.059,0,0,0-.554-.485,4.739,4.739,0,0,0-2.767-.757,10.756,10.756,0,0,0-3.693.754c-1.907.7-3.758,1.323-5.3,1.962a10.153,10.153,0,0,0-3.376,1.98,1.839,1.839,0,0,0-.587,1.3A3.4,3.4,0,0,0,630.878,880.488Z" transform="translate(-388.224 -335.682)" fill="#f4d7d8"/>
        <path id="Trazado_1034914" data-name="Trazado 1034914" d="M772.807,819.888c2.917,4.757,6.141,9.7,8.433,12.156a7.332,7.332,0,0,0,1.6,1.39.854.854,0,0,0,.328.125h0a10.747,10.747,0,0,0,5.746-2.339,16.407,16.407,0,0,0,4.286-4.7,5.879,5.879,0,0,0,.925-2.7,1.844,1.844,0,0,0-.034-.36,6.487,6.487,0,0,0-.412-1.13c-.23-.522-.543-1.16-.919-1.877-.751-1.435-1.75-3.186-2.838-5.024-2.177-3.678-4.715-7.709-6.4-10.343-1.121-1.756-1.858-2.886-1.859-2.889l-.012-.02h0l-.018-.026-.112-.139a3.055,3.055,0,0,0-.554-.485,4.74,4.74,0,0,0-2.766-.757,10.756,10.756,0,0,0-3.692.754c-1.907.7-3.758,1.323-5.3,1.962a10.162,10.162,0,0,0-3.376,1.98,1.837,1.837,0,0,0-.587,1.3,3.391,3.391,0,0,0,.7,1.823h0C767.245,810.536,769.879,815.119,772.807,819.888Z" transform="translate(-494.713 -279.002)" fill="#f4d7d8"/>
        <path id="Trazado_1034915" data-name="Trazado 1034915" d="M913.972,721.856a10.166,10.166,0,0,0-3.376,1.98,1.837,1.837,0,0,0-.587,1.3,3.4,3.4,0,0,0,.7,1.823h0c1.29,1.943,3.924,6.526,6.852,11.3s6.141,9.7,8.433,12.156a7.338,7.338,0,0,0,1.6,1.39.85.85,0,0,0,.328.125h0a10.744,10.744,0,0,0,5.748-2.339,16.415,16.415,0,0,0,4.287-4.7,5.876,5.876,0,0,0,.925-2.7,1.893,1.893,0,0,0-.032-.357,6.541,6.541,0,0,0-.412-1.131c-.23-.522-.544-1.161-.919-1.877-.751-1.435-1.749-3.186-2.838-5.025-2.177-3.678-4.715-7.709-6.4-10.343-1.121-1.756-1.858-2.886-1.859-2.89l-.013-.02h0l-.018-.026-.112-.139a3.059,3.059,0,0,0-.554-.485,4.737,4.737,0,0,0-2.766-.757,10.758,10.758,0,0,0-3.692.754C917.36,720.6,915.511,721.217,913.972,721.856Z" transform="translate(-608.83 -214.647)" fill="#f4d7d8"/>
        <path id="Trazado_1034916" data-name="Trazado 1034916" d="M1038.816,631.855c1.035,1.557,2.8,4.6,4.847,8.012s4.372,7.184,6.472,10.124a25.808,25.808,0,0,0,3.687,4.373,2.264,2.264,0,0,0,1.045.614h.005a10.745,10.745,0,0,0,5.748-2.339,16.407,16.407,0,0,0,4.286-4.7,5.879,5.879,0,0,0,.925-2.7,1.893,1.893,0,0,0-.032-.357,6.557,6.557,0,0,0-.412-1.131c-.23-.522-.544-1.161-.919-1.877-.751-1.435-1.749-3.186-2.838-5.024-2.177-3.678-4.716-7.709-6.4-10.343-1.12-1.756-1.857-2.886-1.859-2.889l-.012-.02h0l-.018-.026-.112-.139a3.059,3.059,0,0,0-.554-.485,4.737,4.737,0,0,0-2.766-.757,10.755,10.755,0,0,0-3.693.754,27.653,27.653,0,0,0-4.772,2.217,8.783,8.783,0,0,0-2.9,2.583,3.274,3.274,0,0,0-.553,1.776,4.215,4.215,0,0,0,.819,2.334Z" transform="translate(-709.73 -138.215)" fill="#f4d7d8"/>
        <path id="Trazado_1034917" data-name="Trazado 1034917" d="M1178.676,529.458c1.035,1.557,2.8,4.6,4.847,8.012s4.372,7.184,6.472,10.125a25.809,25.809,0,0,0,3.687,4.373,2.254,2.254,0,0,0,1.045.614h.006a10.748,10.748,0,0,0,5.746-2.339,16.417,16.417,0,0,0,4.287-4.7,5.874,5.874,0,0,0,.925-2.695,1.85,1.85,0,0,0-.034-.36,6.545,6.545,0,0,0-.412-1.13c-.23-.522-.544-1.161-.919-1.877-.752-1.435-1.75-3.186-2.838-5.024-2.177-3.678-4.715-7.709-6.4-10.343-1.12-1.756-1.857-2.886-1.859-2.89l-.012-.02h0l-.018-.026-.112-.139a3.065,3.065,0,0,0-.554-.485,4.737,4.737,0,0,0-2.766-.757,10.756,10.756,0,0,0-3.693.754,27.672,27.672,0,0,0-4.771,2.217,8.783,8.783,0,0,0-2.9,2.582,3.273,3.273,0,0,0-.553,1.776,4.216,4.216,0,0,0,.819,2.334Z" transform="translate(-819.99 -57.489)" fill="#f4d7d8"/>
        <path id="Trazado_1034918" data-name="Trazado 1034918" d="M242.619,1177.269c33.954,3.942,67.961-1.5,101.918-2.412,35.985-.967,72.009-4.68,108.026-3.148,17.664.751,34.925,3.959,52.488,5.647a271.655,271.655,0,0,0,53.1.207c18.535-1.864,39.473-5.684,57.15-14.481-.012-9.169-1.227-19.388-1.551-26.123a14.138,14.138,0,0,0-4.938-.743c-20.8,0-72.693,27.221-103.626,27.221-1.015,0-2-.029-2.973-.09-12.338-.771-22.858-2.325-33.338-3.973l-.881-.038c0-.034.007-.065.008-.1-17.427-2.749-34.878-5.705-60.525-5.705-41.5,0-154.231,15.907-180.513,17.29-1.153.061-2.329.09-3.516.09-25.715,0-58.633-13.588-59.062-13.765a38.539,38.539,0,0,0,7.322,11.271,35.27,35.27,0,0,1-2.882-3.462C192.609,1172.4,217.9,1174.4,242.619,1177.269Z" transform="translate(-21.005 -543.455)" fill="#f4d7d8"/>
        <path id="Trazado_1034919" data-name="Trazado 1034919" d="M595.087,601.627c-.241-3.009-.47-5.851-.583-8.207v0c-.047-1-.078-1.929-.078-2.753,0-9.746-6.049-59.07-11.573-89.638,0-.015,0-.031,0-.046-.965-5.346-1.866-9.83-2.7-13.48-.007-.034-.015-.067-.023-.1q-.229-1-.453-1.914c-.068-.28-.136-.558-.2-.827s-.134-.532-.2-.787q-.195-.752-.385-1.437c-.036-.131-.072-.256-.109-.383-.144-.507-.286-.993-.427-1.437a.01.01,0,0,1,0,0c-3.806-12.083-9.131-24.436-19.765-24.436a19.76,19.76,0,0,0-8.213,2.039c-5.27,2.407-10.582,7.491-16.2,12.874-1.523,1.458-3.057,2.926-4.6,4.353-2.059,1.9-4.139,3.735-6.241,5.377q-.789.616-1.582,1.194c-4.229,3.08-8.555,5.284-13.006,5.671l-1.773.156-2.135.187c-1.519.132-3.187.273-4.981.416l-1.59.125c-.856.065-1.739.13-2.64.194-6.337.448-13.712.831-21.129.831-14.084,0-24.993-1.354-32.572-4.035a29.173,29.173,0,0,1-6.464-3.122c-6.073-4.049-10.273-9.652-14.335-15.071-6.813-9.09-13.858-18.49-29.582-20.478l-.221-.014a1.764,1.764,0,0,0-1.07.362c-.24.183-7.617,5.81-18.045,13.708a7.118,7.118,0,0,0-2.417-.4,12.492,12.492,0,0,0-4.3.863,24.829,24.829,0,0,0-6.461,3.311,8.771,8.771,0,0,0-2.089,2.2,5.049,5.049,0,0,0-.826,2.718,5.709,5.709,0,0,0,.835,2.833c-4.5,3.388-9.162,6.893-13.8,10.361a6.883,6.883,0,0,0-2.958-.617,12.494,12.494,0,0,0-4.3.863,24.833,24.833,0,0,0-6.462,3.311,8.772,8.772,0,0,0-2.089,2.2,5.044,5.044,0,0,0-.826,2.718,5.879,5.879,0,0,0,1.019,3.146c-4.168,3.081-8.1,5.962-11.6,8.5a7.314,7.314,0,0,0-1.792-.224,12.492,12.492,0,0,0-4.3.863,72.072,72.072,0,0,0-6.9,2.689,8.789,8.789,0,0,0-2.442,1.7,3.613,3.613,0,0,0-1.068,2.512,5.1,5.1,0,0,0,.993,2.8h0c.038.056.083.128.123.19q-4.9,2.7-9.743,5.391l-3.741,2.075a6.549,6.549,0,0,0-3.551-.942,12.491,12.491,0,0,0-4.3.863,72.063,72.063,0,0,0-6.9,2.689,8.785,8.785,0,0,0-2.442,1.7,3.613,3.613,0,0,0-1.068,2.512,5,5,0,0,0,.911,2.664q-5.6,2.99-11.124,5.8a6.518,6.518,0,0,0-3.659-1.005,12.489,12.489,0,0,0-4.3.863,71.933,71.933,0,0,0-6.9,2.689,8.778,8.778,0,0,0-2.442,1.7,3.613,3.613,0,0,0-1.068,2.512,4.308,4.308,0,0,0,.4,1.715,184.152,184.152,0,0,1-25.412,9.037c-30.188,8.05-49.916,13.775-61.422,19.216-11.084,5.242-15.56,10.586-15.964,19.06a50.562,50.562,0,0,0,3.96,22.379v0a.1.1,0,0,0,.007.014q.5,1.144,1.047,2.246l.011.021q.55,1.1,1.154,2.148l.017.029q.6,1.037,1.246,2.027c.016.025.034.049.05.074q.631.956,1.307,1.867c.043.057.087.111.131.168.426.565.863,1.12,1.317,1.656.1.117.2.226.3.341.406.466.815.93,1.241,1.371.211.219.432.422.647.634.331.325.656.657,1,.966q.86.781,1.761,1.492.183.144.4.291a20,20,0,0,0,3.813,1.81l.383.143a98.476,98.476,0,0,0,10.565,3.059l.091.022c2.968.713,6.311,1.435,10,2.153q1.968.383,4.068.764,1.747.317,3.582.632l.566.1q1.783.3,3.643.6,1.533.246,3.119.489,1.693.259,3.442.515l1.3.188q5.044.723,10.535,1.4,5.181.639,10.732,1.227,1.093.116,2.2.229,1.867.191,3.771.375,4.9.472,10.029.895,4.136.339,8.415.641,3.206.225,6.486.428c14.74.907,30.6,1.446,47.176,1.446h0A715.957,715.957,0,0,0,381.66,642a240.139,240.139,0,0,1,28.676-1.632q3.7,0,7.525.1c2.125.053,4.285.128,6.493.227,2.59.116,5.239.263,7.972.446,13.114.874,28.066,2.521,46.578,5.088,7.587,1.052,19.842,1.631,34.505,1.631h0c27.481,0,69.448-2.26,76.707-7.285a8.545,8.545,0,0,0,1.333-1.148C597.6,632.948,596.216,615.677,595.087,601.627Zm-455.526-9.532h0c.019-.4.049-.785.087-1.168,0-.032.005-.065.009-.1.038-.367.087-.727.145-1.083.008-.045.014-.09.021-.134q.089-.524.208-1.032c.011-.046.021-.091.033-.137q.124-.509.28-1c.012-.039.025-.077.037-.115.109-.337.23-.67.364-1l.029-.069a14.394,14.394,0,0,1,1.72-3.042l0-.006c.237-.323.494-.642.765-.959l.03-.035q.405-.469.863-.929l.038-.038q.463-.463.981-.92l.023-.02c7.148-6.275,22.4-11.679,52.869-20.106a.859.859,0,0,0,.505.184h.015a20.423,20.423,0,0,1,6.422,1.5,29.2,29.2,0,0,1,12.244,9.316,78.692,78.692,0,0,1,6.374,10.271c3.3,5.953,6.859,12.627,11.412,17.871a29.431,29.431,0,0,0,7.7,6.507,19.655,19.655,0,0,0,9.762,2.577q.254,0,.512-.006c4.729-.117,14.1-1.1,25.871-2.509,17.651-2.113,40.654-5.185,61.1-7.729,10.223-1.272,19.807-2.411,27.759-3.232s14.279-1.323,17.927-1.322q.478,0,.892.011l.245,0c2.475-.007,5.46-.969,8.9-2.644,6.015-2.938,13.4-8.119,21.233-14.668a255.151,255.151,0,0,0,34.723-35.7c7.334-9.273,13.429-18.558,17.062-26.866A47.511,47.511,0,0,0,471.677,505c1.715-.122,3.474-.25,5.3-.384,10.921-.8,23.3-1.707,34.261-1.707,10.215,0,17.561.779,22.459,2.383a94.889,94.889,0,0,0,14.849,3.559,135.377,135.377,0,0,1-2.088,17.221c-.3,1.611-.645,3.259-1.039,4.931a72.8,72.8,0,0,1-5.6,16.048c-2.505,4.93-5.706,9.115-9.737,11.715-4.333,2.807-11.618,5.378-20.069,8.183-12.686,4.221-28.028,9.014-40.432,16.445a54.254,54.254,0,0,0-15.7,13.436,34.1,34.1,0,0,0-5.4,10.463,33.414,33.414,0,0,0-1.341,6.731l-2.266-.357c-16.614-2.629-33.793-5.348-58.4-5.348-26.23,0-80.413,6.285-123.951,11.335-25.207,2.924-46.977,5.449-56.655,5.958-1.1.058-2.253.088-3.424.088-25.175,0-58.058-13.495-58.387-13.631a1.759,1.759,0,0,0-1.346,0,46.62,46.62,0,0,1-2.034-6.722q-.28-1.27-.5-2.568a50.455,50.455,0,0,1-.673-7.963Q139.5,593.457,139.561,592.094Zm102.4-49.112a1.839,1.839,0,0,1,.587-1.3,10.155,10.155,0,0,1,3.376-1.98c1.538-.64,3.388-1.26,5.3-1.962a10.753,10.753,0,0,1,3.693-.754,4.74,4.74,0,0,1,2.767.757,3.058,3.058,0,0,1,.554.485l.112.139.018.026h0l.012.02s.739,1.134,1.859,2.889c1.681,2.634,4.219,6.665,6.4,10.343,1.088,1.838,2.086,3.59,2.838,5.024.375.717.689,1.355.919,1.877a6.515,6.515,0,0,1,.412,1.13,1.841,1.841,0,0,1,.034.359,5.873,5.873,0,0,1-.925,2.7,16.408,16.408,0,0,1-4.286,4.7,10.746,10.746,0,0,1-5.747,2.339h0a.85.85,0,0,1-.328-.125,7.315,7.315,0,0,1-1.6-1.39c-2.292-2.458-5.517-7.4-8.433-12.156s-5.561-9.353-6.852-11.3h0A3.4,3.4,0,0,1,241.958,542.983Zm29.284-13.392h0a3.392,3.392,0,0,1-.7-1.823,1.837,1.837,0,0,1,.587-1.3,10.165,10.165,0,0,1,3.376-1.98c1.538-.64,3.388-1.26,5.3-1.962a10.754,10.754,0,0,1,3.692-.754,4.741,4.741,0,0,1,2.767.757,3.058,3.058,0,0,1,.554.485l.112.139.018.026h0l.012.02s.739,1.133,1.859,2.889c1.681,2.634,4.219,6.665,6.4,10.343,1.088,1.838,2.087,3.589,2.838,5.024.376.717.69,1.355.919,1.877a6.491,6.491,0,0,1,.412,1.13,1.842,1.842,0,0,1,.034.36,5.878,5.878,0,0,1-.925,2.7,16.407,16.407,0,0,1-4.286,4.7,10.746,10.746,0,0,1-5.747,2.339h0a.853.853,0,0,1-.328-.125,7.334,7.334,0,0,1-1.6-1.39c-2.292-2.458-5.517-7.4-8.433-12.156S272.533,531.534,271.242,529.591Zm42.888-25.1a4.738,4.738,0,0,1,2.766.757,3.054,3.054,0,0,1,.554.485l.112.139.018.026h0l.013.02s.739,1.134,1.859,2.889c1.681,2.634,4.219,6.665,6.4,10.343,1.089,1.838,2.087,3.59,2.838,5.024.375.717.689,1.355.919,1.877a6.536,6.536,0,0,1,.412,1.131,1.894,1.894,0,0,1,.033.357,5.876,5.876,0,0,1-.925,2.7,16.411,16.411,0,0,1-4.286,4.7,10.745,10.745,0,0,1-5.748,2.339h0a.852.852,0,0,1-.328-.125,7.335,7.335,0,0,1-1.6-1.39c-2.292-2.458-5.517-7.4-8.433-12.156s-5.561-9.353-6.851-11.3h0a3.4,3.4,0,0,1-.7-1.823,1.837,1.837,0,0,1,.587-1.3,10.161,10.161,0,0,1,3.376-1.98c1.538-.64,3.388-1.26,5.3-1.962A10.759,10.759,0,0,1,314.13,504.493ZM328.266,491.3a3.273,3.273,0,0,1,.553-1.776,8.787,8.787,0,0,1,2.9-2.583,27.654,27.654,0,0,1,4.772-2.217,10.754,10.754,0,0,1,3.692-.754,4.739,4.739,0,0,1,2.767.757,3.053,3.053,0,0,1,.554.485l.112.139.018.026h0l.012.02s.739,1.134,1.859,2.889c1.681,2.634,4.219,6.665,6.4,10.343,1.089,1.838,2.087,3.59,2.838,5.024.375.717.689,1.355.919,1.877a6.529,6.529,0,0,1,.412,1.131,1.9,1.9,0,0,1,.033.357,5.876,5.876,0,0,1-.925,2.7,16.4,16.4,0,0,1-4.286,4.7,10.743,10.743,0,0,1-5.747,2.339h-.006a2.264,2.264,0,0,1-1.045-.614,25.8,25.8,0,0,1-3.686-4.373c-2.1-2.941-4.426-6.714-6.472-10.124s-3.812-6.455-4.847-8.012h0A4.215,4.215,0,0,1,328.266,491.3Zm29.6-21.671a3.273,3.273,0,0,1,.553-1.776,8.786,8.786,0,0,1,2.9-2.582,27.668,27.668,0,0,1,4.772-2.217,10.754,10.754,0,0,1,3.693-.754,4.737,4.737,0,0,1,2.766.757,3.055,3.055,0,0,1,.554.485l.111.139.018.026h0l.012.02s.739,1.134,1.859,2.889c1.681,2.634,4.219,6.665,6.4,10.343,1.089,1.839,2.087,3.59,2.838,5.024.375.717.689,1.355.919,1.877a6.527,6.527,0,0,1,.412,1.13,1.839,1.839,0,0,1,.034.36,5.874,5.874,0,0,1-.925,2.7,16.421,16.421,0,0,1-4.287,4.7,10.749,10.749,0,0,1-5.746,2.339h-.006a2.256,2.256,0,0,1-1.045-.614A25.79,25.79,0,0,1,370,490.106c-2.1-2.941-4.426-6.714-6.472-10.124s-3.812-6.455-4.847-8.012h0A4.217,4.217,0,0,1,357.866,469.634ZM590.524,637.82c-.136.163-.284.307-.429.455-.082.083-.157.176-.242.254a6.7,6.7,0,0,1-.739.6,6.062,6.062,0,0,1-.606.358c-.063.033-.131.067-.2.1q-.28.139-.6.275c-.065.027-.126.055-.193.082q-.424.171-.914.338c-.069.023-.144.046-.215.069q-.411.135-.864.268l-.326.094c-.347.1-.707.194-1.087.289l-.13.034c-.425.1-.874.208-1.337.31-.129.029-.262.056-.395.085q-.554.118-1.143.234l-.393.077c-.509.1-1.033.194-1.577.289l-.323.054q-.679.116-1.393.229l-.55.086q-.729.113-1.489.222l-.343.05c-.615.087-1.248.173-1.892.257l-.553.071q-.754.1-1.532.19l-.594.071c-.682.08-1.374.159-2.082.236l-.289.031q-.942.1-1.913.2l-.684.068q-.879.087-1.778.171l-.535.05q-1.129.1-2.288.2l-.669.055q-.89.074-1.8.146l-.756.059q-1.187.091-2.4.179l-.231.016q-1.143.081-2.308.158l-.8.052q-.973.063-1.958.122l-.659.04q-1.274.075-2.563.146l-.634.034q-1.023.055-2.055.106l-.81.04q-1.172.057-2.352.109l-.336.015q-1.327.059-2.662.111l-.77.03q-1.044.04-2.09.076l-.712.025q-1.349.046-2.7.086l-.494.014q-1.128.032-2.256.061l-.807.02q-1.176.028-2.349.053l-.384.008q-1.351.027-2.7.047l-.747.011q-1.033.015-2.061.026l-.737.008q-1.334.013-2.659.02h-.365q-1.153.005-2.294.006h-.843l-1.55,0-.834,0q-.918,0-1.826-.013l-.509,0q-1.158-.011-2.3-.028l-.57-.009-1.7-.03-.77-.016-1.5-.034-.756-.019c-.517-.014-1.028-.029-1.536-.044l-.652-.02c-.714-.023-1.421-.048-2.117-.074l-.041,0q-1.021-.039-2.014-.084l-.607-.029q-.706-.033-1.4-.069l-.693-.037c-.441-.024-.875-.049-1.306-.075l-.628-.038c-.5-.031-.988-.063-1.471-.1l-.386-.026q-.91-.065-1.782-.135l-.39-.033c-.444-.037-.882-.074-1.311-.114l-.557-.053c-.367-.035-.729-.07-1.084-.107l-.56-.059c-.357-.039-.705-.078-1.049-.119l-.475-.056c-.488-.06-.965-.121-1.424-.184-2.1-.291-4.167-.57-6.219-.844l-1.612-.214q-2.842-.374-5.629-.726l-.528-.067c-1.992-.249-3.956-.486-5.907-.714l-1.5-.174q-2.586-.3-5.129-.573l-.782-.085q-2.855-.3-5.654-.571c-.456-.044-.909-.086-1.363-.128q-2.4-.224-4.756-.423c-.328-.027-.66-.058-.987-.084q-2.728-.223-5.408-.408c-.423-.029-.844-.056-1.267-.084q-2.259-.15-4.489-.272c-.366-.02-.733-.042-1.1-.061q-2.631-.136-5.225-.231c-.382-.014-.761-.024-1.142-.037q-2.169-.072-4.314-.114c-.4-.008-.8-.018-1.193-.024q-2.479-.039-4.931-.036-3.339,0-6.635.088c-.533.014-1.062.039-1.594.055q-2.526.08-5.034.208c-.724.038-1.446.081-2.169.125q-2.33.142-4.647.332c-.666.054-1.334.1-2,.163-2.165.195-4.327.41-6.485.668q-5.4.643-10.77,1.191l-.363.036q-5.187.528-10.341.971l-.657.055q-5,.426-9.971.777l-.872.059q-4.859.337-9.674.606l-1,.053q-4.739.257-9.428.451l-1.1.043q-4.628.184-9.2.309l-1.164.03q-4.533.117-9,.179l-1.18.015q-4.449.055-8.83.058c-.191,0-.387,0-.577,0-.543,0-1.083,0-1.625,0l-1.255,0q-2.148-.008-4.277-.027l-.226,0q-2.027-.019-4.036-.05l-1.246-.02q-1.6-.026-3.179-.059l-1.148-.023q-2.079-.046-4.139-.1l-.559-.016q-1.8-.05-3.585-.109l-1.225-.042q-1.561-.054-3.108-.113l-1.042-.04q-2-.08-3.983-.168l-.762-.036q-1.618-.074-3.22-.155l-1.249-.064q-1.49-.077-2.964-.159l-.979-.054q-1.921-.11-3.815-.227l-.831-.053q-1.5-.095-2.987-.195l-1.182-.08q-1.461-.1-2.906-.206l-.864-.062q-1.815-.134-3.6-.276l-.964-.078q-1.35-.108-2.685-.221l-1.163-.1q-1.4-.121-2.785-.245l-.764-.069q-1.717-.156-3.4-.319l-.959-.094q-1.256-.123-2.5-.248l-1.092-.111q-1.383-.143-2.744-.289l-.582-.062q-1.605-.174-3.176-.353l-1-.115q-1.143-.131-2.269-.265l-1.023-.122q-1.349-.163-2.674-.329l-.421-.052c-.994-.125-1.974-.253-2.946-.38l-.952-.127q-1.059-.141-2.1-.284l-.92-.127c-.937-.131-1.866-.262-2.781-.394l-.24-.035c-.7-.1-1.4-.2-2.087-.307l-.47-.072-.859-.131q-.983-.15-1.944-.3l-.81-.127-.36-.057q-1.108-.177-2.187-.355l-.4-.066c-.552-.092-1.1-.184-1.644-.276l-.475-.082-.8-.139-.753-.13-.988-.176-.719-.128c-.771-.14-1.531-.279-2.275-.419l-.45-.086q-.907-.172-1.786-.343l-.723-.143q-.8-.159-1.58-.318l-.568-.116q-1.023-.211-2-.422l-.44-.1q-.775-.168-1.523-.336l-.6-.136q-.712-.162-1.4-.323l-.454-.106q-.874-.208-1.7-.414l-.41-.1q-.635-.16-1.243-.319l-.5-.132q-.623-.166-1.214-.329l-.307-.084q-.722-.2-1.394-.4l-.354-.107q-.5-.152-.98-.3l-.379-.12q-.526-.169-1.014-.335l-.175-.059c-.374-.128-.727-.255-1.066-.381l-.269-.1q-.372-.141-.716-.28l-.277-.113c-.266-.111-.518-.22-.755-.328l-.079-.035c-.258-.119-.492-.235-.714-.351l-.18-.1c-.083-.045-.173-.09-.25-.135s-.13-.08-.2-.121-.109-.065-.159-.1c-.173-.111-.335-.221-.47-.327q-.875-.687-1.7-1.442c-.068-.061-.13-.129-.2-.191-.486-.45-.963-.913-1.425-1.4-.021-.022-.04-.046-.061-.068a38.537,38.537,0,0,1-7.322-11.271c.429.177,33.347,13.765,59.062,13.765,1.187,0,2.364-.029,3.516-.09,26.282-1.383,139.016-17.29,180.513-17.29,25.647,0,43.1,2.957,60.525,5.705,0,.034-.007.065-.008.1l.881.039c10.48,1.648,21,3.2,33.338,3.973.969.06,1.958.09,2.973.09,30.933,0,82.828-27.221,103.626-27.221a14.137,14.137,0,0,1,4.938.743c.323,6.734,1.538,16.953,1.551,26.122h0v.011q0,.81-.011,1.607c0,.026,0,.052,0,.079q-.013.766-.038,1.518c0,.047,0,.094-.005.141-.018.48-.039.956-.065,1.425,0,.068-.008.134-.012.2-.026.447-.056.889-.091,1.325-.007.091-.016.18-.025.27-.035.41-.072.816-.116,1.215-.012.108-.026.214-.039.321-.044.377-.089.75-.142,1.116-.018.124-.039.243-.058.365-.052.343-.105.684-.165,1.015-.025.137-.054.268-.08.4-.06.309-.121.618-.188.917-.033.146-.071.284-.106.426-.068.279-.136.558-.211.826-.043.153-.092.3-.138.447-.075.246-.148.494-.23.729-.056.161-.119.311-.178.467-.08.212-.158.427-.244.629-.07.163-.148.313-.222.47-.085.181-.167.368-.259.54s-.181.309-.271.462-.175.31-.269.454c-.107.161-.223.305-.337.456C590.7,637.58,590.618,637.708,590.524,637.82ZM547.067,531.635c.9-3.787,1.573-7.486,2.052-10.808.743-5.163,1.052-9.412,1.178-11.716a74.136,74.136,0,0,0,9.829.7c9.582,0,16.927-2.205,21.368-6.389.063.359.126.718.19,1.081.048.272.095.547.142.821.057.326.113.652.169.982.049.289.1.58.148.871q.081.476.162.956.075.445.15.892c.056.333.112.668.167,1,.047.287.1.573.142.862.061.368.121.739.182,1.11s.122.745.182,1.121q.12.743.24,1.493c.048.3.1.6.143.9.054.339.108.678.162,1.019s.1.66.155.99.1.659.155.989.1.665.155,1,.1.664.153,1,.1.645.148.97q.086.565.172,1.133c.044.288.087.574.13.863q.145.961.289,1.928c.041.277.082.555.123.833q.086.582.172,1.164.075.5.147,1.006.077.525.153,1.051l.144,1q.077.535.154,1.07.07.48.138.96.083.579.164,1.158.064.45.127.9.075.527.148,1.055.127.905.253,1.81.078.564.156,1.128.061.443.122.885.079.575.157,1.149.066.48.131.959.075.552.149,1.1c.043.313.084.625.126.938q.077.568.152,1.133.057.431.115.862.089.668.177,1.333l.089.678q.123.933.243,1.859c.035.272.07.542.1.814q.082.636.164,1.27l.1.752q.078.611.155,1.218c.035.275.07.549.1.824q.069.545.136,1.087.055.436.109.87c.047.382.095.762.142,1.142.031.251.062.5.093.753q.1.785.191,1.56c.012.1.024.2.036.3q.11.91.218,1.805c.028.234.056.464.083.7.046.382.091.764.136,1.142.028.244.057.487.086.729q.062.531.124,1.057.044.377.087.751.06.516.118,1.025c.026.233.054.467.08.7.044.39.088.775.132,1.159.02.18.041.362.061.54q.092.812.179,1.6c.02.175.038.346.057.52.04.364.08.727.119,1.084.021.2.042.394.063.591l.106,1c.021.2.043.406.064.607q.048.457.094.9c.021.2.042.4.062.594l.091.9c.018.185.037.372.056.554q.06.6.117,1.183l.018.183c.043.443.084.875.124,1.3.015.158.028.309.043.464.025.267.049.531.073.79.015.174.031.344.045.514.022.237.042.472.062.7.014.163.028.324.041.483.02.238.04.469.058.7.011.134.023.27.033.4.021.263.041.517.06.767.008.1.015.2.023.29q.037.5.069.967c.005.07.009.135.014.2.016.236.031.468.044.69.007.106.013.206.018.309.01.177.02.35.029.517.005.105.011.208.015.309.008.157.014.308.02.455,0,.09.007.181.011.266.006.151.01.293.014.431,0,.071,0,.146.006.215,0,.2.007.384.007.554h0c0,.309.006.639.013.973h0a16.612,16.612,0,0,0-4.87-.64c-9.673,0-25.058,5.421-42.874,11.7-20.651,7.276-44.057,15.523-60.752,15.523-.983,0-1.947-.029-2.863-.086-12-.75-22.106-2.219-32.451-3.842a31.728,31.728,0,0,1,1.362-6.736,34.84,34.84,0,0,1,9.357-14.489c9.454-9.123,23.878-15.166,37.645-19.969,6.883-2.4,13.6-4.505,19.457-6.556s10.856-4.045,14.351-6.3c4.691-3.034,8.2-7.893,10.861-13.427A76.151,76.151,0,0,0,547.067,531.635Zm-108.12-45.364.358.152c.518.215,1.044.423,1.586.621a65.816,65.816,0,0,0,13.779,3.171,153.147,153.147,0,0,0,19.815,1.14c13.66,0,26.913-1.263,34.4-1.914,5.468-.476,10.694-3.453,15.7-7.386.911-.715,1.815-1.462,2.712-2.231s1.786-1.561,2.669-2.365c3.532-3.218,6.955-6.645,10.277-9.686,3.739-3.422,7.351-6.355,10.853-7.954a18.164,18.164,0,0,1,7.48-1.88,11.268,11.268,0,0,1,2.05.206l-.009-.018c.107.02.209.055.315.077.267.057.533.118.793.2.168.05.333.111.5.169.26.091.52.183.774.294.155.068.305.151.459.226.257.128.515.252.766.4.129.076.253.169.381.251a14.509,14.509,0,0,1,2.563,2.137c.135.141.273.27.408.418.2.223.4.47.6.711.159.192.319.379.475.582.186.241.367.5.55.758.164.23.328.459.49.7.173.261.344.537.515.812s.332.538.5.819.325.571.486.865.334.618.5.938q.231.448.46.914c.169.346.336.7.5,1.064.145.314.29.629.432.954.173.392.344.8.515,1.208.134.322.269.641.4.974.181.451.359.922.539,1.393.12.318.242.629.362.956.2.544.4,1.112.6,1.681.1.28.2.548.292.834.294.867.586,1.759.876,2.681a188.382,188.382,0,0,1,4.448,20.152q-.394.439-.828.847c-.095.09-.2.173-.3.261-.2.177-.4.356-.6.524-.126.1-.261.2-.391.293-.193.145-.383.292-.584.43-.146.1-.3.193-.45.29-.2.126-.391.254-.594.374-.16.095-.329.182-.493.273-.2.113-.407.227-.618.333-.173.087-.353.169-.53.252-.213.1-.424.2-.642.3-.185.08-.376.154-.566.23-.221.089-.441.178-.667.262-.2.072-.4.14-.6.208-.228.078-.457.156-.691.229-.205.064-.415.124-.625.184-.238.068-.476.136-.719.2-.215.056-.432.108-.651.16-.245.058-.491.116-.74.169-.224.048-.449.093-.677.137-.252.049-.5.1-.761.141-.231.04-.465.077-.7.114-.259.04-.519.078-.781.114q-.358.048-.72.091-.4.047-.8.088-.366.037-.735.068-.411.034-.825.062c-.249.017-.5.032-.751.046q-.42.022-.844.037c-.252.009-.5.018-.76.024-.287.007-.575.01-.865.012-.16,0-.317.007-.477.007-.059,0-.12,0-.178,0q-1.354,0-2.741-.068l-.427-.02q-1.386-.072-2.794-.2l-.438-.041q-1.412-.136-2.839-.325l-.334-.044v0c0-.059,0-.1,0-.1l-.88-.021c-.7-.1-1.4-.219-2.1-.34l-.4-.072q-1.461-.259-2.921-.565l-.353-.077q-1.486-.32-2.963-.686l-.272-.07q-1.513-.382-3.008-.81l-.165-.049q-1.542-.447-3.053-.939l-.008,0c-.672-.22-1.385-.42-2.127-.606-.245-.062-.51-.113-.762-.171-.513-.118-1.028-.234-1.57-.338-.318-.061-.654-.114-.982-.17-.505-.087-1.012-.172-1.538-.248-.364-.052-.738-.1-1.111-.146-.521-.066-1.047-.13-1.585-.187-.394-.042-.794-.08-1.2-.116q-.82-.075-1.663-.138c-.414-.031-.83-.059-1.251-.086-.58-.036-1.169-.066-1.763-.095-.422-.02-.844-.04-1.274-.056-.623-.023-1.258-.04-1.9-.056-.416-.01-.828-.022-1.249-.03-.7-.011-1.408-.016-2.12-.019-.4,0-.788-.008-1.189-.007l-.411,0q-1.327,0-2.676.025l-.254,0c-.943.016-1.894.037-2.85.063l-.538.015q-1.411.041-2.837.095l-.453.018q-1.4.055-2.813.121l-.207.009q-1.471.07-2.946.15l-.54.029q-1.447.08-2.892.167l-.428.026q-1.452.089-2.9.183l-.125.008q-1.5.1-2.978.2l-.459.031q-1.455.1-2.892.2l-.32.023-2.905.211-.031,0-3.4.249-2.371.172-.571.041-1.033.074h0a.862.862,0,0,0-.414.029h0l-1.136.08-.049,0c-.843.058-1.666.113-2.479.166l-.468.03q-1.18.076-2.311.142l-.428.025c-.778.044-1.542.087-2.279.123l-.044,0c-.725.035-1.424.065-2.108.091l-.357.014q-.994.036-1.922.057l-.35.007c-.616.012-1.217.02-1.784.02h-.026c-.33,0-.627-.008-.94-.013s-.616,0-.9-.013c-.319-.009-.6-.028-.9-.043-.243-.012-.5-.02-.731-.036-.3-.021-.562-.053-.837-.082-.186-.019-.394-.033-.568-.056-.337-.044-.628-.1-.915-.158-.078-.016-.175-.026-.25-.043a12.691,12.691,0,0,1-4.643-2.125,15.9,15.9,0,0,1-1.565-1.29,19.6,19.6,0,0,1-2.053-2.261c-.419-.536-.812-1.09-1.182-1.656q-.278-.424-.538-.855c-.346-.574-.67-1.155-.971-1.735a41.238,41.238,0,0,1-3.523-9.788c.5.333,1.026.647,1.569.952.288.161.591.313.891.467.241.124.48.249.728.368Q438.289,485.99,438.947,486.271Zm-5.906-3.376a1.754,1.754,0,0,0-.3,1.35,41.82,41.82,0,0,0,4.451,11.661c2.46,4.22,6.111,8.242,11.367,9.425a31.334,31.334,0,0,0,6.449.486c3.958,0,9.028-.291,14.842-.694a50.349,50.349,0,0,1-3.694,10.025,111.507,111.507,0,0,1-9.057,15.228c-10.1,14.535-24.459,29.972-37.943,41.742a149.321,149.321,0,0,1-18.907,14.336,52.957,52.957,0,0,1-7.7,4.032,16.092,16.092,0,0,1-5.746,1.4l-.2,0q-.443-.012-.941-.012c-5.05,0-14.653.9-26.584,2.253-17.887,2.029-40.949,5.08-61.283,7.666-10.166,1.293-19.65,2.47-27.459,3.344s-13.95,1.445-17.375,1.528q-.237.006-.469.006a18.541,18.541,0,0,1-11.467-4.042c-4.971-3.763-8.945-9.779-12.46-15.913-1.667-2.9-3.229-5.818-4.768-8.54a64.31,64.31,0,0,0-5.165-8.061,30.865,30.865,0,0,0-13.35-10,25.606,25.606,0,0,0-3.282-.986h0l.51-.139.526-.143,2.475-.674.758-.206,2.388-.645.781-.21,2.676-.719.45-.121h0l2.22-.594a7.19,7.19,0,0,0,.848,2,7.351,7.351,0,0,0,3.044,2.736,15.725,15.725,0,0,0,7.007,1.346,46.723,46.723,0,0,0,9.755-1.237,54.865,54.865,0,0,0,5.638,8.416,33.97,33.97,0,0,0,6.672,6.355,16.318,16.318,0,0,0,8.608,3.175q.3.012.621.012a48.093,48.093,0,0,0,12.745-2.43c15.48-4.66,38.013-15.464,54.795-27.961,11.178-8.334,27.517-16,42.411-23.192,7.449-3.6,14.539-7.089,20.464-10.512s10.689-6.769,13.516-10.2c3.763-4.586,4.983-10.392,4.983-16.019-.008-9.356-3.337-18.343-4.476-21.157a16.416,16.416,0,0,1,4.394-.6c5.359-.008,10.445,2.536,14.312,5.249.2.142.417.282.612.424a44.586,44.586,0,0,1,4.68,3.938c.555.536.987.983,1.277,1.293.145.155.255.276.328.357l.105.118a.859.859,0,0,0,.417.252A42.883,42.883,0,0,0,433.041,482.9ZM273.347,536.434c.879,1.472,1.845,3.085,2.852,4.733a28.714,28.714,0,0,1-2.415,1.683c-1.986,1.263-4.669,2.762-7.787,4.338-.422-.69-.844-1.374-1.257-2.039-2.4-3.868-4.513-7.119-4.842-7.625q5.343-2.711,10.735-5.6C271.357,533.1,272.288,534.661,273.347,536.434Zm-25.3,20.66c1.528,2.487,3.131,5.02,4.662,7.248A48.451,48.451,0,0,0,256.5,569.3a11.685,11.685,0,0,0,1.652,1.547,2.992,2.992,0,0,0,1.711.687h.068c3.194-.136,6.275-2.025,8.624-4.3a17.2,17.2,0,0,0,2.871-3.623,7.509,7.509,0,0,0,1.162-3.577,3.618,3.618,0,0,0-.067-.7v-.006a10.311,10.311,0,0,0-.806-2.1c-1.023-2.146-2.867-5.332-4.8-8.532,2.034-1.031,3.906-2.034,5.51-2.963a43.7,43.7,0,0,0,4.7-3.054c1.378,2.226,2.8,4.459,4.171,6.449a48.46,48.46,0,0,0,3.794,4.959,11.687,11.687,0,0,0,1.652,1.547,3,3,0,0,0,1.712.688h.068c3.194-.136,6.275-2.025,8.624-4.3a17.19,17.19,0,0,0,2.871-3.623,7.508,7.508,0,0,0,1.162-3.577,3.619,3.619,0,0,0-.067-.7v-.006a10.324,10.324,0,0,0-.806-2.1c-1.209-2.536-3.563-6.525-5.864-10.274-.118-.192-.234-.381-.352-.572,3.169-2.01,6.677-4.212,10.445-6.558l1.985-1.233c.133.219.265.436.4.656,1.631,2.667,3.364,5.421,5.013,7.82a48.473,48.473,0,0,0,3.794,4.959,11.687,11.687,0,0,0,1.652,1.547,3,3,0,0,0,1.712.688h.068c3.194-.136,6.275-2.026,8.624-4.3a17.2,17.2,0,0,0,2.871-3.623,7.509,7.509,0,0,0,1.161-3.577,3.653,3.653,0,0,0-.066-.7v-.009a10.326,10.326,0,0,0-.806-2.1c-1.325-2.78-4.024-7.3-6.523-11.341-.152-.246-.306-.5-.456-.737l-.014-.023c3.5-2.143,7.066-4.318,10.65-6.5.21.34.422.678.635,1.017,1.038,1.656,2.093,3.286,3.117,4.765a41.418,41.418,0,0,0,3.541,4.553,10.464,10.464,0,0,0,1.581,1.425,2.989,2.989,0,0,0,1.665.63h.072c3.194-.136,6.275-2.026,8.624-4.3A17.187,17.187,0,0,0,356.7,510.6a7.5,7.5,0,0,0,1.162-3.577,3.659,3.659,0,0,0-.066-.7v-.009a10.331,10.331,0,0,0-.806-2.1c-.863-1.811-2.313-4.366-3.908-7.043q-.486-.815-.985-1.639c3.056-1.843,6.068-3.656,8.99-5.411,1.648-.99,3.257-1.954,4.846-2.906.355.551.71,1.095,1.063,1.624.319.479.637.949.952,1.4a41.47,41.47,0,0,0,3.541,4.553,10.45,10.45,0,0,0,1.582,1.425,2.986,2.986,0,0,0,1.665.63h.071c3.194-.136,6.275-2.025,8.624-4.3a17.181,17.181,0,0,0,2.871-3.623,7.509,7.509,0,0,0,1.162-3.577,3.67,3.67,0,0,0-.067-.7v-.006a10.3,10.3,0,0,0-.806-2.1c-.694-1.456-1.766-3.392-2.988-5.485l-.159-.27,1.626-.961.075-.044c6.445-3.8,11.073-6.483,12.807-7.407a17.441,17.441,0,0,1,1.795-.826c1.054,2.584,4.393,11.539,4.386,20.6,0,5.388-1.174,10.754-4.583,14.9-2.555,3.119-7.188,6.418-13.035,9.791-8.773,5.069-20.269,10.352-31.695,15.943s-22.789,11.5-31.352,17.873a198.492,198.492,0,0,1-37.095,21.218,152.938,152.938,0,0,1-17.153,6.468,46.61,46.61,0,0,1-12.237,2.355c-.191,0-.376,0-.552-.01a14.577,14.577,0,0,1-7.671-2.861,37.152,37.152,0,0,1-8.729-9.233c-1.063-1.535-1.9-2.913-2.467-3.9-.128-.222-.237-.417-.336-.6.942-.23,1.891-.473,2.854-.742.666-.186,1.341-.392,2.015-.594,1.923-.578,3.863-1.218,5.8-1.905Zm112.559-78.572c1.319,2.217,2.833,4.75,4.379,7.208-4.395,2.633-9.043,5.427-13.807,8.3-.392-.639-.783-1.273-1.167-1.891-2.617-4.21-4.89-7.7-4.892-7.7h0a3.757,3.757,0,0,0-.455-.549c4.44-3.323,8.9-6.673,13.207-9.918C358.591,475.128,359.537,476.722,360.608,478.523Zm58.306-9.781c-.167-.1-.334-.2-.5-.3a25.355,25.355,0,0,0-12.6-3.806,18.24,18.24,0,0,0-8.692,2.193c-1.954,1.042-7.236,4.111-14.576,8.45-.961-1.608-1.969-3.253-2.933-4.805-2.617-4.21-4.89-7.7-4.892-7.7h0a4.106,4.106,0,0,0-.834-.893c10.273-7.783,17.427-13.241,17.427-13.241,15.872,2.007,22.348,11.786,29.606,21.4C420.282,469.6,419.611,469.164,418.914,468.741Zm-87.906,31.452c.826,1.388,1.728,2.9,2.667,4.44-3.587,2.182-7.158,4.36-10.662,6.505-2.195-3.5-3.941-6.179-3.943-6.181h0a4.166,4.166,0,0,0-1.17-1.159c-.023-.016-.056-.03-.08-.047,3.26-2.367,6.85-5,10.642-7.8C329.154,497.074,330.026,498.543,331.008,500.194Zm-27.027,18.965c.514.86,1.061,1.773,1.624,2.708-4.525,2.811-8.72,5.439-12.443,7.8-2.546-4.089-4.724-7.431-4.725-7.434h0l-.019-.03q6.478-3.592,13.054-7.228C302.161,516.106,303.02,517.55,303.981,519.158Zm-62.5,27.081c.763,1.193,1.919,3.137,3.277,5.411.687,1.15,1.43,2.39,2.2,3.661-7.738,2.719-15.508,4.676-21.273,4.668a19.473,19.473,0,0,1-3.226-.253c-.389-.065-.75-.152-1.105-.243a9.448,9.448,0,0,1-1.884-.663,5.391,5.391,0,0,1-2.979-3.605c0-.007-.008-.012-.01-.019A187.95,187.95,0,0,0,241.483,546.239Z" transform="translate(0 0)" fill="#1c1927"/>
        <path id="Trazado_1034920" data-name="Trazado 1034920" d="M628.674,1280.538c.094-.144.18-.3.269-.454s.186-.3.271-.462.173-.359.259-.54c.074-.156.152-.307.222-.469.086-.2.164-.418.244-.629.059-.156.122-.306.178-.467.082-.236.156-.483.23-.729.046-.149.095-.293.138-.447.075-.268.143-.547.211-.826.035-.142.073-.281.106-.426.068-.3.129-.607.189-.917.026-.135.055-.266.08-.4.06-.332.113-.673.166-1.016.019-.122.04-.241.058-.365.052-.365.1-.739.142-1.116.012-.107.027-.213.039-.321.043-.4.081-.805.116-1.215.008-.09.017-.179.024-.27.035-.435.065-.878.091-1.324,0-.067.009-.134.012-.2.027-.469.047-.945.065-1.425,0-.047,0-.094.005-.141q.026-.751.038-1.518c0-.026,0-.052,0-.079q.013-.8.011-1.607v-.011h0c-17.677,8.8-38.615,12.618-57.15,14.482a271.675,271.675,0,0,1-53.1-.207c-17.563-1.688-34.825-4.9-52.488-5.647-36.017-1.532-72.041,2.181-108.026,3.148-33.957.912-67.965,6.354-101.918,2.412-24.723-2.871-50.01-4.867-73.795-12.313a35.237,35.237,0,0,0,2.882,3.462c.021.022.04.046.061.068.461.483.939.945,1.425,1.4.067.062.129.13.2.191q.828.754,1.7,1.442c.136.107.3.217.47.327.05.032.106.065.159.1q.207.126.447.256c.06.033.117.065.18.1.222.115.456.232.714.351l.079.035c.236.108.49.218.755.328l.277.113q.344.138.716.28l.269.1c.339.126.692.253,1.066.382l.175.059q.488.166,1.014.334l.379.12q.476.15.98.3l.354.107c.449.133.912.267,1.394.4l.307.084q.591.164,1.214.329l.5.132c.4.106.82.212,1.243.319l.41.1q.829.206,1.7.414l.454.106q.685.161,1.4.323l.6.136q.747.168,1.523.336l.44.1q.98.211,2,.422l.568.116q.779.159,1.581.318l.723.143q.879.171,1.786.343l.45.086c.744.14,1.5.28,2.275.419l.719.128q.86.154,1.741.307l.8.139q1.045.179,2.119.358l.4.066c.835.138,1.687.275,2.547.412l.81.127q.962.151,1.944.3l.859.131q1.263.19,2.557.379l.24.035c.914.132,1.843.263,2.781.394l.92.127q1.039.142,2.1.284l.952.127c.972.128,1.951.255,2.946.38l.421.052q1.323.166,2.674.329l1.023.122q1.125.134,2.269.265l1,.115q1.573.179,3.176.353l.582.062q1.362.146,2.744.289l1.092.111q1.239.126,2.5.249l.959.094q1.687.162,3.4.319l.764.069q1.383.124,2.785.245l1.163.1q1.334.112,2.685.221l.964.078q1.787.142,3.6.276l.864.063q1.445.105,2.906.206l1.182.08q1.485.1,2.987.2l.831.053q1.895.118,3.815.227l.979.054q1.475.082,2.964.159l1.249.064q1.6.08,3.22.155l.762.036q1.979.089,3.983.168l1.042.04q1.548.059,3.108.113l1.225.042q1.784.058,3.585.109l.559.016q2.058.056,4.139.1l1.148.023q1.584.033,3.179.059l1.246.02q2.01.03,4.036.05l.226,0q2.128.02,4.277.027l1.255,0c.731,0,1.467,0,2.2,0q4.38,0,8.83-.058l1.18-.015q4.47-.062,9-.179l1.164-.03q4.572-.125,9.2-.31l1.1-.043q4.688-.193,9.428-.451l1-.053q4.813-.268,9.674-.605l.872-.059q4.964-.35,9.971-.777l.657-.054q5.153-.444,10.341-.971l.363-.036q5.37-.55,10.769-1.191c2.158-.257,4.32-.473,6.485-.667.666-.06,1.334-.109,2-.163q2.318-.187,4.647-.332,1.084-.067,2.169-.125,2.508-.13,5.034-.208c.532-.017,1.06-.042,1.594-.055q3.3-.085,6.635-.089,2.453,0,4.931.036c.4.007.8.016,1.193.024q2.147.042,4.314.114c.381.013.76.023,1.142.037q2.595.1,5.226.231c.364.019.732.041,1.1.061q2.23.122,4.489.272c.422.028.843.054,1.267.084q2.683.186,5.408.408c.327.027.659.057.987.084q2.36.2,4.756.423c.454.042.907.084,1.363.128q2.8.27,5.654.571c.259.027.522.057.782.085q2.542.273,5.129.573l1.5.174c1.951.229,3.915.466,5.906.715l.528.067q2.785.35,5.63.726l1.612.213c2.053.274,4.12.553,6.219.844.459.063.936.125,1.424.184l.475.056c.344.04.692.08,1.049.119l.56.059c.355.037.717.073,1.084.107l.557.052c.429.039.867.077,1.311.114l.39.033q.873.07,1.782.135l.386.026c.483.034.973.066,1.471.1l.628.038c.431.026.865.051,1.306.075l.693.037q.691.036,1.4.069l.607.029q.995.045,2.014.084h.041c.7.027,1.4.051,2.117.074l.652.02c.508.016,1.019.031,1.536.044l.756.02,1.5.034.77.016q.845.016,1.7.03l.57.009q1.14.017,2.3.028l.509,0q.909.008,1.826.013l.834,0,1.55,0h.843q1.142,0,2.294-.006h.365q1.323-.007,2.659-.021l.737-.008q1.028-.011,2.061-.026l.747-.011q1.345-.021,2.7-.047l.384-.008q1.174-.024,2.349-.052l.807-.02q1.128-.029,2.256-.061l.493-.014q1.352-.04,2.7-.086l.712-.025q1.046-.037,2.091-.076l.77-.03q1.335-.053,2.662-.111l.336-.015q1.18-.052,2.352-.109l.81-.04q1.031-.051,2.055-.106l.634-.034q1.289-.07,2.563-.146l.659-.04q.985-.06,1.958-.122l.8-.052q1.163-.077,2.308-.158l.231-.016q1.212-.087,2.4-.178l.756-.059q.905-.071,1.8-.146l.669-.056q1.159-.1,2.288-.2l.535-.05q.9-.084,1.778-.171l.684-.068q.97-.1,1.913-.2l.289-.031c.708-.077,1.4-.156,2.082-.237l.594-.071q.779-.093,1.532-.19l.553-.071c.644-.084,1.277-.17,1.892-.257l.343-.051q.761-.109,1.489-.222l.55-.086q.713-.113,1.393-.229l.323-.054c.544-.095,1.068-.191,1.577-.289l.393-.077q.589-.116,1.143-.234l.395-.084c.463-.1.913-.205,1.337-.31l.13-.034c.38-.095.74-.192,1.087-.289l.326-.094q.453-.133.864-.268c.071-.023.146-.046.215-.069q.49-.167.914-.338c.068-.027.128-.055.193-.082q.323-.136.6-.275c.067-.033.135-.066.2-.1a6.035,6.035,0,0,0,.606-.358,6.746,6.746,0,0,0,.739-.6c.084-.078.16-.171.242-.254.145-.148.292-.292.429-.455.094-.112.178-.24.267-.359C628.451,1280.843,628.567,1280.7,628.674,1280.538Z" transform="translate(-37.547 -643.532)" fill="#ad969a"/>
        <path id="Trazado_1034921" data-name="Trazado 1034921" d="M1598.878,537.725c13.82.138,27.628-1.209,41.42-1.871a144.11,144.11,0,0,1,23,.866c8.24.914,16.1.574,22.9-4.7,10.6-8.229,9.648-21.895,3.7-32.647a11.266,11.266,0,0,0-2.05-.206,18.166,18.166,0,0,0-7.48,1.88c-3.5,1.6-7.114,4.533-10.853,7.954-3.323,3.041-6.745,6.468-10.277,9.686-.883.8-1.772,1.6-2.669,2.365s-1.8,1.516-2.712,2.231c-5.01,3.933-10.236,6.91-15.7,7.386-7.489.651-20.742,1.915-34.4,1.915a153.159,153.159,0,0,1-19.815-1.14,65.816,65.816,0,0,1-13.779-3.171l.015.006C1577.492,535.539,1588.554,537.622,1598.878,537.725Z" transform="translate(-1129.268 -41.226)" fill="#f4d7d8"/>
        <path id="Trazado_1034922" data-name="Trazado 1034922" d="M1541.4,526.781c-.545-.3-1.071-.62-1.569-.952a41.243,41.243,0,0,0,3.523,9.788c.3.58.625,1.161.971,1.735q.26.431.538.855c.37.565.763,1.12,1.182,1.656a19.6,19.6,0,0,0,2.053,2.261,15.853,15.853,0,0,0,1.565,1.29,12.69,12.69,0,0,0,4.643,2.124c.074.017.171.028.25.043.287.058.578.114.915.158.173.023.381.037.568.056.275.029.536.061.837.082.228.016.488.023.731.036.3.015.579.034.9.043.283.009.6.009.9.013s.61.013.94.013c.576,0,1.185-.008,1.811-.019l.35-.007q.928-.021,1.922-.057l.357-.014c.684-.026,1.382-.056,2.108-.091l.044,0c.737-.036,1.5-.078,2.279-.123l.428-.025q1.131-.066,2.311-.142l.468-.03c.813-.053,1.636-.108,2.479-.166l.049,0,1.137-.08a.862.862,0,0,1,.414-.029h0l1.036-.073.571-.041,2.371-.172,3.4-.249.031,0,2.905-.211.321-.023q1.436-.1,2.892-.2l.459-.032q1.483-.1,2.978-.2l.125-.008q1.444-.095,2.9-.183l.428-.026q1.444-.088,2.892-.167l.54-.029q1.474-.08,2.946-.15l.207-.009q1.41-.066,2.813-.121l.453-.018q1.425-.054,2.837-.095l.538-.015c.956-.026,1.907-.048,2.85-.063l.254,0q1.35-.021,2.677-.025l.411,0c.4,0,.792.005,1.189.007.711,0,1.422.008,2.12.019.421.007.833.019,1.249.03.637.016,1.271.033,1.9.056.429.016.852.037,1.274.056q.892.042,1.763.095c.421.026.837.055,1.251.086q.844.062,1.663.138c.4.037.8.075,1.2.116.539.057,1.064.121,1.585.187.373.047.748.094,1.111.146.526.076,1.033.161,1.538.248.328.056.663.109.982.17.541.1,1.057.22,1.57.338.252.058.517.11.762.171.742.186,1.456.386,2.127.606l.008,0q1.509.494,3.053.939l.165.049q1.492.429,3.008.81l.272.07q1.475.368,2.963.686l.353.077q1.46.308,2.921.565l.4.072c.7.121,1.4.236,2.1.34l.88.021s0,.04,0,.1l.333.046q1.426.189,2.839.325l.438.041q1.408.127,2.794.2l.427.02q1.386.063,2.741.068c.219,0,.437,0,.655,0,.29,0,.578-.006.865-.012.255-.006.508-.014.76-.024q.424-.016.844-.037c.251-.013.5-.029.751-.045q.415-.028.825-.062.369-.031.735-.068.4-.04.8-.088.362-.043.72-.091c.262-.035.522-.074.781-.114.234-.036.469-.074.7-.114.256-.044.509-.092.761-.141.227-.044.453-.089.677-.137.249-.054.495-.111.74-.169.219-.052.436-.1.651-.16.243-.063.481-.131.719-.2.209-.06.419-.12.625-.184.234-.073.462-.151.69-.229.2-.068.4-.136.6-.208.226-.084.446-.173.667-.261.189-.076.38-.151.565-.231.218-.095.43-.2.643-.3.177-.084.357-.165.53-.252.211-.107.414-.221.618-.333.164-.091.333-.178.493-.273.2-.12.4-.248.594-.374.15-.1.3-.19.45-.29.2-.138.391-.285.584-.43.13-.1.265-.192.391-.293.209-.168.406-.346.6-.524.1-.088.2-.171.3-.261q.432-.408.827-.847a188.383,188.383,0,0,0-4.448-20.152c-.29-.922-.583-1.813-.876-2.681-.1-.286-.194-.554-.292-.834-.2-.569-.4-1.137-.6-1.681-.12-.327-.242-.637-.362-.956-.179-.471-.358-.942-.539-1.393-.133-.333-.268-.652-.4-.974-.171-.409-.342-.816-.515-1.208-.143-.325-.288-.64-.432-.954-.167-.361-.335-.718-.5-1.064q-.229-.467-.46-.914-.248-.48-.5-.938c-.161-.294-.323-.584-.486-.865s-.33-.552-.5-.819-.342-.551-.515-.812c-.162-.243-.326-.472-.49-.7-.183-.257-.364-.517-.55-.758-.156-.2-.316-.389-.475-.582-.2-.24-.395-.487-.6-.711-.134-.148-.272-.278-.408-.418a14.532,14.532,0,0,0-2.563-2.137c-.127-.082-.252-.175-.381-.251-.251-.149-.51-.274-.766-.4-.153-.076-.3-.158-.459-.226-.254-.112-.514-.2-.774-.294-.166-.058-.331-.119-.5-.169-.26-.077-.526-.138-.793-.2-.105-.022-.208-.058-.314-.077l.009.018c5.945,10.752,6.9,24.418-3.7,32.647-6.8,5.276-14.663,5.617-22.9,4.7a144.109,144.109,0,0,0-23-.866c-13.791.662-27.6,2.009-41.42,1.871-10.325-.1-21.386-2.186-28.7-9.449l-.015-.006c-.542-.2-1.068-.407-1.586-.621-.12-.05-.239-.1-.358-.152q-.658-.281-1.287-.581c-.249-.119-.487-.245-.728-.368C1541.987,527.094,1541.685,526.942,1541.4,526.781Z" transform="translate(-1105.355 -41.927)" fill="#c2a3a6"/>
      </g>
      <rect id="Rectángulo_405134" data-name="Rectángulo 405134" width="135.402" height="39.134" rx="19.567" transform="translate(674 2814.228)" fill="#32d5d3"/>
      <rect id="Rectángulo_405154" data-name="Rectángulo 405154" width="126.922" height="54.134" rx="11" transform="translate(301.999 2689.093)" fill="#32d5d3"/>
      <rect id="Rectángulo_405155" data-name="Rectángulo 405155" width="182.715" height="39.134" rx="19.567" transform="translate(131 2769.8)" fill="#32d5d3"/>
      <text id="Contrafuerte" transform="translate(741 2840.824)" fill="#12263f" font-size="18" font-family="SegoeUIBlack, Segoe UI"><tspan x="-57.006" y="0">Contrafuerte</tspan></text>
      <text id="Ojaletes_o_pasadores" data-name="Ojaletes 
o pasadores" transform="translate(365 2715.093)" fill="#12263f" font-size="18" font-family="SegoeUIBlack, Segoe UI"><tspan x="-38.162" y="0">Ojaletes </tspan><tspan x="-53.222" y="16">o pasadores</tspan></text>
      <text id="Puntera_reforzada" data-name="Puntera reforzada" transform="translate(218.999 2796.204)" fill="#12263f" font-size="18" font-family="SegoeUIBlack, Segoe UI"><tspan x="-80.367" y="0">Puntera reforzada</tspan></text>
      <g id="Grupo_1178046" data-name="Grupo 1178046" transform="translate(334.33 2731.835)">
        <circle id="Elipse_11668" data-name="Elipse 11668" cx="10.577" cy="10.577" r="10.577" transform="translate(99.771 36.152)" fill="#12263f"/>
        <circle id="Elipse_11706" data-name="Elipse 11706" cx="5.288" cy="5.288" r="5.288" transform="translate(78.882 -2.53)" fill="#12263f"/>
        <line id="Línea_563" data-name="Línea 563" x1="26" y1="44" transform="translate(84.17 2.758)" fill="none" stroke="#12263f" stroke-linecap="round" stroke-width="2" stroke-dasharray="4"/>
      </g>
      <g id="Grupo_1179048" data-name="Grupo 1179048" transform="translate(647.957 2859.287)">
        <ellipse id="Elipse_11668-2" data-name="Elipse 11668" cx="10.577" cy="10.577" rx="10.577" ry="10.577" transform="translate(0 38.683)" fill="#12263f"/>
        <ellipse id="Elipse_11706-2" data-name="Elipse 11706" cx="5.288" cy="5.288" rx="5.288" ry="5.288" transform="translate(29.466 -29)" fill="#12263f"/>
        <line id="Línea_563-2" data-name="Línea 563" y1="72.983" x2="23.788" transform="translate(10.755 -23.693)" fill="none" stroke="#12263f" stroke-linecap="round" stroke-width="2" stroke-dasharray="4"/>
      </g>
      <g id="Grupo_1179047" data-name="Grupo 1179047" transform="translate(219.33 2791.897)">
        <circle id="Elipse_11668-3" data-name="Elipse 11668" cx="10.577" cy="10.577" r="10.577" transform="translate(23.771 90.152)" fill="#12263f"/>
        <circle id="Elipse_11706-3" data-name="Elipse 11706" cx="5.288" cy="5.288" r="5.288" transform="translate(78.882 -2.53)" fill="#12263f"/>
        <line id="Línea_563-3" data-name="Línea 563" y1="92.938" x2="50" transform="translate(34.17 2.758)" fill="none" stroke="#12263f" stroke-linecap="round" stroke-width="2" stroke-dasharray="4"/>
      </g>
    </g>
  </g>
</svg>
